<svg xmlns="http://www.w3.org/2000/svg" fill="none" viewBox="0 0 512 512"><path fill="currentColor" d="M51.123 340.517h1.874c2.21.032 4.532.496 6.967 1.393 6.95 2.595 10.426 7.64 10.426 15.135 0 3.78-1.025 7.287-3.075 10.523-1.185 1.889-3.427 4.372-6.726 7.447-3.3 3.075-5.222 4.997-5.766 5.766-.513.737-.993 2.322-1.442 4.757-.448 2.434-.688 3.667-.72 3.699-.513.801-1.378 1.201-2.595 1.201h-.817c-2.466 0-3.7-2.178-3.7-6.534 0-2.627.561-4.901 1.682-6.823 1.121-1.954 2.963-4.26 5.526-6.919 2.594-2.691 4.244-4.596 4.949-5.718 1.537-2.434 2.306-4.932 2.306-7.495 0-2.595-.865-4.533-2.595-5.814-1.73-1.313-3.827-1.97-6.294-1.97-2.466 0-5.045.945-7.736 2.835-2.658 1.89-4.5 2.835-5.525 2.835-2.21 0-3.316-1.185-3.316-3.556v-.817c0-2.562 1.762-4.852 5.286-6.87 3.523-2.05 7.287-3.075 11.291-3.075Zm-7.591 62.222c0-3.492 1.873-5.237 5.621-5.237h.625c.48.096.897.144 1.249.144 1.345 0 2.402.48 3.171 1.441.801.929 1.201 2.13 1.201 3.604v1.441c0 1.506-.448 2.803-1.345 3.892-.897 1.057-2.034 1.586-3.411 1.586l-1.01.144h-1.056c-.385-.096-.865-.144-1.442-.144-.576 0-1.297-.353-2.162-1.057-.865-.737-1.297-1.714-1.297-2.931l-.145-1.009v-1.874ZM464.24 375.676h2.343c2.762.04 5.665.62 8.708 1.741 8.689 3.244 13.033 9.55 13.033 18.919 0 4.725-1.281 9.109-3.844 13.153-1.481 2.363-4.284 5.466-8.408 9.31-4.124 3.844-6.526 6.246-7.207 7.207-.641.921-1.241 2.903-1.802 5.946-.56 3.043-.861 4.585-.901 4.625-.64 1.001-1.722 1.501-3.243 1.501h-1.021c-3.083 0-4.625-2.723-4.625-8.168 0-3.283.701-6.126 2.102-8.529 1.402-2.442 3.704-5.325 6.907-8.648 3.244-3.364 5.306-5.746 6.186-7.147 1.922-3.043 2.883-6.167 2.883-9.37 0-3.243-1.081-5.665-3.243-7.267-2.162-1.642-4.785-2.463-7.868-2.463s-6.306 1.182-9.669 3.544c-3.324 2.362-5.626 3.544-6.907 3.544-2.763 0-4.144-1.482-4.144-4.445v-1.021c0-3.203 2.202-6.066 6.606-8.588 4.405-2.563 9.109-3.844 14.114-3.844Zm-9.489 77.777c0-4.364 2.342-6.546 7.027-6.546h.781c.6.12 1.121.18 1.561.18 1.682 0 3.003.601 3.964 1.802 1.001 1.161 1.502 2.663 1.502 4.504v1.802c0 1.882-.561 3.504-1.682 4.865-1.121 1.321-2.543 1.982-4.264 1.982l-1.262.18h-1.321c-.48-.12-1.081-.18-1.802-.18-.72 0-1.621-.44-2.702-1.321-1.082-.921-1.622-2.142-1.622-3.664l-.18-1.261v-2.343ZM384.961 151.039h.937c1.105.016 2.266.248 3.483.697 3.476 1.297 5.214 3.82 5.214 7.567 0 1.89-.513 3.644-1.538 5.262-.593.945-1.714 2.186-3.363 3.723-1.65 1.538-2.611 2.499-2.883 2.883-.256.369-.497 1.161-.721 2.379-.224 1.217-.344 1.833-.36 1.849-.257.401-.689.601-1.298.601h-.408c-1.233 0-1.85-1.089-1.85-3.267 0-1.314.28-2.451.841-3.412.561-.977 1.482-2.13 2.763-3.459 1.297-1.345 2.122-2.298 2.474-2.859.769-1.217 1.153-2.466 1.153-3.748 0-1.297-.432-2.266-1.297-2.907-.865-.656-1.914-.985-3.147-.985-1.233 0-2.523.473-3.868 1.418-1.329.945-2.25 1.417-2.763 1.417-1.105 0-1.657-.592-1.657-1.778v-.408c0-1.281.881-2.426 2.642-3.435 1.762-1.025 3.644-1.538 5.646-1.538Zm-3.796 31.111c0-1.746.937-2.618 2.811-2.618h.312c.241.048.449.072.625.072.673 0 1.201.24 1.586.72.4.465.6 1.065.6 1.802v.721c0 .753-.224 1.401-.673 1.946a2.141 2.141 0 0 1-1.705.793l-.505.072h-.528a3.038 3.038 0 0 0-.721-.072c-.288 0-.649-.177-1.081-.529-.433-.368-.649-.857-.649-1.465l-.072-.505v-.937ZM111.568 63.964h1.405c1.658.024 3.399.372 5.225 1.045 5.213 1.946 7.82 5.73 7.82 11.351 0 2.835-.769 5.466-2.306 7.892-.889 1.418-2.571 3.28-5.045 5.586-2.475 2.306-3.916 3.748-4.325 4.324-.384.553-.744 1.742-1.081 3.568-.336 1.826-.516 2.75-.54 2.775-.385.6-1.033.9-1.946.9h-.613c-1.85 0-2.775-1.633-2.775-4.9 0-1.97.421-3.676 1.262-5.118.84-1.465 2.222-3.195 4.144-5.189 1.946-2.018 3.183-3.447 3.712-4.288 1.153-1.826 1.729-3.7 1.729-5.622 0-1.946-.648-3.4-1.946-4.36-1.297-.985-2.871-1.477-4.72-1.477-1.85 0-3.784.708-5.802 2.126-1.994 1.417-3.376 2.126-4.144 2.126-1.658 0-2.487-.89-2.487-2.667v-.613c0-1.922 1.321-3.64 3.964-5.153 2.643-1.537 5.466-2.306 8.469-2.306Zm-5.694 46.667c0-2.619 1.405-3.928 4.216-3.928h.469c.36.072.672.108.936.108 1.01 0 1.802.36 2.379 1.081.6.697.901 1.597.901 2.703v1.081c0 1.129-.337 2.102-1.009 2.919-.673.792-1.526 1.189-2.559 1.189l-.757.108h-.792a4.559 4.559 0 0 0-1.081-.108c-.433 0-.973-.264-1.622-.793-.649-.553-.973-1.285-.973-2.198l-.108-.757v-1.405ZM253.82 229.502h3.25c3.833.056 7.861.861 12.083 2.417 12.056 4.5 18.083 13.25 18.083 26.25 0 6.555-1.777 12.639-5.333 18.25-2.055 3.278-5.944 7.583-11.667 12.917-5.722 5.333-9.055 8.666-10 10-.888 1.277-1.722 4.027-2.5 8.25-.777 4.222-1.194 6.361-1.25 6.416-.888 1.389-2.388 2.084-4.5 2.084h-1.416c-4.278 0-6.417-3.778-6.417-11.334 0-4.555.972-8.5 2.917-11.833 1.944-3.389 5.139-7.389 9.583-12 4.5-4.667 7.361-7.972 8.583-9.917 2.667-4.222 4-8.555 4-13 0-4.5-1.5-7.861-4.5-10.083-3-2.278-6.638-3.417-10.916-3.417-4.278 0-8.75 1.639-13.417 4.917-4.611 3.278-7.805 4.917-9.583 4.917-3.834 0-5.75-2.056-5.75-6.167v-1.417c0-4.444 3.055-8.416 9.166-11.916 6.112-3.556 12.639-5.334 19.584-5.334Zm-13.167 107.917c0-6.056 3.25-9.083 9.75-9.083h1.083c.834.166 1.556.25 2.167.25 2.333 0 4.167.833 5.5 2.5 1.389 1.611 2.083 3.694 2.083 6.25v2.5c0 2.611-.777 4.861-2.333 6.75-1.555 1.833-3.528 2.75-5.917 2.75l-1.75.25h-1.833c-.667-.167-1.5-.25-2.5-.25s-2.25-.612-3.75-1.834c-1.5-1.278-2.25-2.972-2.25-5.083l-.25-1.75v-3.25Z"/></svg>