<svg xmlns="http://www.w3.org/2000/svg" fill="none" viewBox="0 0 512 512"><path fill="currentColor" d="M257.625 282.937c0 7.876-.795 13.694-2.385 17.452-1.011 2.457-3.071 3.685-6.178 3.685h-1.301c-2.53 0-4.336-1.012-5.42-3.035-1.084-2.023-1.626-5.528-1.626-10.515l-.217-2.601-.976-25.04v-2.71l-.216-3.902v-2.71l-.326-9.323v-2.71l-.216-5.311v-3.903l-.217-6.503v-2.602l-.109-5.203v-11.49c0-5.637.868-9.648 2.602-12.033 1.734-2.384 4.95-3.577 9.648-3.577h2.601c3.107 0 5.42.904 6.938 2.71 1.589 1.807 2.384 5.023 2.384 9.648v6.178l-.108 1.301-.434 10.298-.216 2.602a30.986 30.986 0 0 0-.109 2.601l-.217 2.602c-.144 1.734-.216 3.071-.216 4.01l-.326 3.903c-.216 2.746-.325 4.516-.325 5.311l-.433 5.42c-.289 3.614-.434 5.818-.434 6.613l-.867 11.923-.651 7.805c-.433 5.203-.65 8.238-.65 9.106Zm-22.655 50.947c0-3.613.903-6.504 2.71-8.672 1.806-2.168 4.047-3.252 6.72-3.252 1.446-.361 2.349-.542 2.71-.542h3.794c7.371 0 11.057 3.794 11.057 11.382v3.252c0 3.541-.94 6.468-2.818 8.78-1.879 2.24-4.372 3.36-7.48 3.36-.578.145-1.012.217-1.301.217l-1.951.217h-1.843l-.433-.108h-.976c-.578-.145-1.409-.217-2.493-.217-1.084 0-2.602-.795-4.553-2.385-1.879-1.59-2.818-3.902-2.818-6.937l-.325-2.71v-2.385ZM468.125 420.714c0 5.322-.537 9.253-1.611 11.792-.684 1.66-2.076 2.49-4.175 2.49h-.879c-1.709 0-2.93-.684-3.662-2.051-.733-1.367-1.099-3.735-1.099-7.104l-.146-1.758-.659-16.919v-1.831l-.147-2.637v-1.831l-.22-6.299v-1.831l-.146-3.589v-2.636l-.147-4.395v-1.758l-.073-3.515v-7.764c0-3.808.586-6.518 1.758-8.13 1.172-1.611 3.345-2.417 6.519-2.417h1.757c2.1 0 3.662.611 4.688 1.831 1.074 1.221 1.611 3.394 1.611 6.519v4.175l-.073.879-.293 6.958-.147 1.757a21.527 21.527 0 0 0-.073 1.758l-.146 1.758c-.098 1.172-.147 2.075-.147 2.71l-.219 2.637c-.147 1.855-.22 3.051-.22 3.589l-.293 3.662c-.195 2.441-.293 3.93-.293 4.467l-.586 8.057-.44 5.274c-.293 3.515-.439 5.566-.439 6.152Zm-15.308 34.424c0-2.442.611-4.395 1.831-5.86 1.221-1.465 2.735-2.197 4.541-2.197.977-.244 1.587-.366 1.832-.366h2.563c4.98 0 7.471 2.563 7.471 7.69v2.198c0 2.392-.635 4.37-1.905 5.932-1.269 1.514-2.954 2.271-5.053 2.271-.391.097-.684.146-.879.146l-1.319.147h-1.245l-.293-.074h-.659c-.39-.097-.952-.146-1.684-.146-.733 0-1.758-.537-3.077-1.611-1.269-1.075-1.904-2.637-1.904-4.688l-.22-1.831v-1.611ZM386 166.531c0 2.271-.229 3.948-.688 5.031-.291.709-.885 1.063-1.781 1.063h-.375c-.729 0-1.25-.292-1.562-.875-.313-.583-.469-1.594-.469-3.031l-.063-.75-.281-7.219v-.781l-.062-1.125v-.782l-.094-2.687v-.781l-.063-1.532v-1.124l-.062-1.876v-.75l-.031-1.5V144.5c0-1.625.25-2.781.75-3.469.5-.687 1.427-1.031 2.781-1.031h.75c.896 0 1.562.26 2 .781.458.521.688 1.448.688 2.781v1.782l-.032.375-.125 2.969-.062.75c-.021.25-.031.5-.031.75l-.063.75c-.042.5-.063.885-.063 1.156l-.093 1.125c-.063.791-.094 1.302-.094 1.531l-.125 1.562c-.083 1.042-.125 1.678-.125 1.907l-.25 3.437-.187 2.25c-.126 1.5-.188 2.375-.188 2.625Zm-6.531 14.688c0-1.042.26-1.875.781-2.5s1.167-.938 1.938-.938c.416-.104.677-.156.781-.156h1.093c2.126 0 3.188 1.094 3.188 3.281v.938c0 1.021-.271 1.864-.812 2.531-.542.646-1.261.969-2.157.969a1.73 1.73 0 0 1-.375.062l-.562.063h-.532l-.124-.031h-.282a3.113 3.113 0 0 0-.718-.063c-.313 0-.75-.229-1.313-.687-.542-.459-.813-1.126-.813-2l-.093-.782v-.687ZM113 96.297c0 3.406-.344 5.922-1.031 7.547-.438 1.062-1.328 1.594-2.672 1.594h-.563c-1.093 0-1.875-.438-2.343-1.313-.469-.875-.703-2.391-.703-4.547l-.094-1.125-.422-10.828v-1.172l-.094-1.687v-1.172l-.14-4.031V78.39l-.094-2.297v-1.688l-.094-2.812v-1.125l-.047-2.25V63.25c0-2.438.375-4.172 1.125-5.203.75-1.031 2.141-1.547 4.172-1.547h1.125c1.344 0 2.344.39 3 1.172.687.781 1.031 2.172 1.031 4.172v2.672l-.047.562-.187 4.453-.094 1.125c-.031.375-.047.75-.047 1.125l-.093 1.125a22.2 22.2 0 0 0-.094 1.735l-.141 1.687c-.094 1.188-.141 1.953-.141 2.297l-.187 2.344c-.125 1.562-.187 2.515-.187 2.86l-.376 5.155-.281 3.375c-.187 2.25-.281 3.563-.281 3.938Zm-9.797 22.031c0-1.562.391-2.812 1.172-3.75.781-.937 1.75-1.406 2.906-1.406.625-.156 1.016-.234 1.172-.234h1.641c3.187 0 4.781 1.64 4.781 4.921v1.407c0 1.531-.406 2.796-1.219 3.796-.812.969-1.89 1.454-3.234 1.454-.25.062-.438.093-.563.093l-.843.094h-.797l-.188-.047h-.422c-.25-.062-.609-.094-1.078-.094-.469 0-1.125-.343-1.969-1.031-.812-.687-1.218-1.687-1.218-3l-.141-1.172v-1.031ZM54 373.062c0 4.542-.458 7.896-1.375 10.063-.583 1.417-1.77 2.125-3.563 2.125h-.75c-1.458 0-2.5-.583-3.124-1.75-.626-1.167-.938-3.188-.938-6.062l-.125-1.5-.563-14.438v-1.562l-.124-2.25v-1.563l-.188-5.375v-1.562l-.125-3.063v-2.25l-.125-3.75v-1.5l-.063-3V329c0-3.25.5-5.562 1.5-6.938 1-1.374 2.855-2.062 5.563-2.062h1.5c1.792 0 3.125.521 4 1.562.917 1.042 1.375 2.896 1.375 5.563v3.563l-.063.75-.25 5.937-.124 1.5c-.042.5-.063 1-.063 1.5l-.125 1.5c-.083 1-.125 1.771-.125 2.313l-.188 2.25c-.124 1.583-.187 2.604-.187 3.062l-.25 3.125c-.167 2.083-.25 3.354-.25 3.813l-.5 6.874-.375 4.5c-.25 3-.375 4.75-.375 5.25Zm-13.063 29.376c0-2.084.521-3.75 1.563-5 1.042-1.25 2.333-1.876 3.875-1.876.833-.208 1.354-.312 1.563-.312h2.187c4.25 0 6.375 2.188 6.375 6.562v1.876c0 2.041-.542 3.729-1.625 5.062-1.083 1.292-2.52 1.938-4.313 1.938-.333.083-.583.124-.75.124l-1.124.126h-1.063l-.25-.063h-.563c-.333-.083-.812-.125-1.437-.125s-1.5-.458-2.625-1.375c-1.083-.917-1.625-2.25-1.625-4l-.188-1.563v-1.374Z"/></svg>