<svg xmlns="http://www.w3.org/2000/svg" fill="none" viewBox="0 0 512 512"><path stroke="var(--accent)" stroke-linecap="round" stroke-width="50" d="M165 270h81M183 106h152"/><path stroke="currentColor" stroke-linecap="round" stroke-width="30" d="M255.534 386.82V484m.966-97.18H102.042c-8.931 0-14.746-9.365-10.767-17.339l45.135-90.432a13.03 13.03 0 0 0 1.243-4.007l24.743-177.133c.263-1.933.049-3.9-.622-5.732l-17.623-48.064C141.281 36.287 147.091 28 155.445 28H256.5l101.055.5c8.354 0 14.164 8.287 11.294 16.113l-17.623 48.064a11.973 11.973 0 0 0-.622 5.732l24.743 177.132a13.012 13.012 0 0 0 1.243 4.007l45.135 90.433c3.979 7.973-1.836 17.338-10.767 17.338L256.5 386.82Z"/><path stroke="var(--accent)" stroke-linecap="round" stroke-width="30" d="M297 270h16"/></svg>