<svg xmlns="http://www.w3.org/2000/svg" fill="none" viewBox="0 0 716 716"><path stroke="#000" stroke-linecap="round" stroke-width="50" d="M93 158.2h322m0 0h82.93c87.659 0 131.485 0 159.976 25.623a99.36 99.36 0 0 1 7.47 7.472C691 219.783 691 263.612 691 351.27v73.33c0 125.581 0 188.375-39.014 227.386C612.975 691 550.181 691 424.6 691H291.4c-125.582 0-188.373 0-227.387-39.014C25 612.975 25 550.181 25 424.6V189.827c0-29.389 0-44.083 2.31-56.323C37.474 79.622 79.621 37.476 133.503 27.309 145.744 25 160.438 25 189.827 25c12.876 0 19.314 0 25.501.579a133.204 133.204 0 0 1 72.607 30.074c4.784 3.966 9.336 8.519 18.44 17.624L324.7 91.6c17.933 18.767 61.1 58.36 90.3 66.6ZM217 426h283M367 574V291"/></svg>