<svg xmlns="http://www.w3.org/2000/svg" fill="none" viewBox="0 0 512 512"><path fill="currentColor" d="M124.718 0C91.653.044 59.955 13.909 36.575 38.554 13.195 63.198.042 96.61 0 131.464v166.06c.042 34.853 13.195 68.267 36.575 92.912 23.38 24.644 55.078 38.508 88.143 38.552h267.053c4.316-.01 8.592.88 12.58 2.618a32.675 32.675 0 0 1 10.658 7.512l63.383 66.812c2.754 2.899 6.261 4.873 10.079 5.673 3.817.799 7.774.387 11.37-1.182 3.596-1.57 6.671-4.227 8.835-7.637 2.164-3.41 3.321-7.42 3.324-11.523V131.464c-.042-34.853-13.195-68.266-36.575-92.91C452.045 13.909 420.347.044 387.282 0H124.718Zm262.564 41.515c22.623.029 44.312 9.515 60.309 26.378 15.997 16.862 24.996 39.724 25.024 63.571v309.675l-29.774-31.358c-6.688-7.096-14.646-12.722-23.412-16.552-8.767-3.829-18.168-5.785-27.658-5.755H124.718c-22.623-.03-44.312-9.516-60.309-26.378-15.997-16.863-24.996-39.725-25.024-63.572v-166.06c.028-23.847 9.027-46.71 25.024-63.571 15.997-16.863 37.686-26.349 60.309-26.378h262.564ZM262.163 85.507c-10.033 0-18.166 8.481-18.166 18.943v83.35h-90.831c-10.033 0-18.166 8.481-18.166 18.943 0 10.462 8.133 18.943 18.166 18.944h90.831v93.2c0 10.462 8.133 18.943 18.166 18.943 10.033 0 18.166-8.481 18.166-18.943v-93.2h78.478c10.033 0 18.167-8.482 18.167-18.944S368.84 187.8 358.807 187.8h-78.478v-83.35c0-10.462-8.133-18.943-18.166-18.943Z"/></svg>