<svg xmlns="http://www.w3.org/2000/svg" fill="none" viewBox="0 0 716 716">
  <path stroke="#000" stroke-width="50" d="M25 189.83c0-29.4 0-44.09 2.3-56.33A133.2 133.2 0 0 1 133.5 27.3c12.24-2.3 26.94-2.3 56.33-2.3 12.87 0 19.31 0 25.5.58a133.2 133.2 0 0 1 72.6 30.07c4.79 3.97 9.34 8.52 18.44 17.63L324.7 91.6c27.17 27.17 40.75 40.75 57.01 49.8 8.94 4.97 18.42 8.9 28.25 11.7 17.9 5.1 37.1 5.1 75.53 5.1h12.44c87.66 0 131.48 0 159.98 25.62a99.36 99.36 0 0 1 7.47 7.47C691 219.8 691 263.62 691 351.27v73.33c0 125.58 0 188.38-39.01 227.39C612.98 691 550.19 691 424.6 691H291.4c-125.58 0-188.37 0-227.39-39.01C25 612.98 25 550.19 25 424.6V189.83Z"/>
  <path stroke="#000" stroke-linecap="round" stroke-width="50" d="M217 400h283M367 548V265"/>
</svg>
