<svg
    viewBox="0 0 512 512"
    fill="none"
    stroke="currentColor"
    stroke-width="2"
    stroke-linecap="round"
    stroke-linejoin="round">
	<path
			stroke="currentColor"
			stroke-linecap="round"
			stroke-linejoin="round"
			stroke-width="30"
			d="M256 160.154h204.8M51.2 160.154h40.96M419.84 344.474h40.96M51.2 344.474H256M174.08 242.074c45.242 0 81.92-36.678 81.92-81.92 0-45.243-36.678-81.92-81.92-81.92-45.243 0-81.92 36.677-81.92 81.92 0 45.242 36.677 81.92 81.92 81.92ZM337.92 426.394c45.242 0 81.92-36.678 81.92-81.92 0-45.243-36.678-81.92-81.92-81.92-45.242 0-81.92 36.677-81.92 81.92 0 45.242 36.678 81.92 81.92 81.92Z" />
</svg>