<svg xmlns="http://www.w3.org/2000/svg" fill="none" viewBox="0 0 512 512"><path fill="currentColor" fill-rule="evenodd" d="M145.355 8.331c11.14-11.108 29.201-11.108 40.342 0l99.98 99.692c21.862 21.798 39.496 39.38 52.606 54.781 13.503 15.858 23.879 31.263 29.737 49.248a141.843 141.843 0 0 1 0 87.897c-5.858 17.985-16.234 33.39-29.737 49.247-13.11 15.402-30.744 32.984-52.606 54.78l-99.98 99.693c-11.141 11.108-29.202 11.108-40.342 0-11.14-11.109-11.14-29.116 0-40.225l99.118-98.831c22.924-22.862 38.891-38.814 50.317-52.236 11.209-13.164 16.363-22.012 18.968-30.007a85.056 85.056 0 0 0 0-52.74c-2.605-7.994-7.759-16.842-18.968-30.007-11.426-13.422-27.393-29.374-50.317-52.234l-99.118-98.831c-11.14-11.108-11.14-29.119 0-40.227Z" clip-rule="evenodd"/></svg>