<svg xmlns="http://www.w3.org/2000/svg" fill="none" viewBox="0 0 512 512"><path fill="var(--red-6)" d="M430.552 137.697c-9.932 0-17.983 8.051-17.983 17.984v301.324c0 10.56-8.573 19.238-19.238 19.238H118.459c-10.56 0-19.238-8.574-19.238-19.238V155.576c0-9.933-8.05-17.983-17.878-17.983-9.933 0-17.984 8.05-17.984 17.983V456.9c0 30.321 24.675 55.1 55.1 55.1h274.872c30.321 0 55.1-24.675 55.1-55.1V155.576c0-9.933-8.051-17.879-17.879-17.879ZM478.124 79.356H369.075V58.655C369.075 26.348 342.727 0 310.42 0H201.475c-32.412 0-58.655 26.348-58.655 58.655v20.701H33.77c-9.932 0-17.878 8.051-17.878 17.984 0 9.932 8.05 17.878 17.879 17.878h444.353c9.933 0 17.984-8.05 17.984-17.878-.105-10.038-8.051-17.984-17.984-17.984ZM178.682 58.655c0-12.547 10.247-22.793 22.793-22.793H310.42c12.547 0 22.793 10.246 22.793 22.793v20.701H178.682V58.655Z"/><path fill="var(--red-9)" d="M273.931 414.661V189.138c0-9.933-8.051-17.879-17.879-17.879-9.828 0-17.879 8.051-17.879 17.879v225.523c0 9.932 8.051 17.878 17.879 17.878 9.828 0 17.879-7.946 17.879-17.878ZM194.574 414.661V189.138c0-9.933-8.05-17.879-17.983-17.879s-17.879 8.051-17.879 17.879v225.523c0 9.932 8.051 17.878 17.879 17.878 9.933 0 17.983-7.946 17.983-17.878ZM353.183 414.661V189.138c0-9.933-8.051-17.879-17.879-17.879-9.828 0-17.879 8.051-17.879 17.879v225.523c0 9.932 8.051 17.878 17.879 17.878 9.828 0 17.879-7.946 17.879-17.878Z"/></svg>