<svg xmlns="http://www.w3.org/2000/svg" fill="none" viewBox="0 0 512 512"><path stroke="currentColor" stroke-miterlimit="10" stroke-width="50" d="m368.277 103.87-74.266-57.496C284.428 36.791 262.867 32 248.493 32h-91.035C128.71 32 97.567 53.561 90.38 82.31L32.884 257.192C20.905 290.732 42.466 319.48 78.4 319.48h95.827c14.374 0 26.352 11.979 23.957 28.748l-11.979 76.662c-4.791 21.561 9.583 45.518 31.143 52.705 19.166 7.187 43.122-2.396 52.705-16.77l98.223-146.136"/><path stroke="var(--accent)" stroke-linecap="round" stroke-linejoin="round" stroke-width="30" d="M490.442 103.872v234.776c0 33.539-14.374 45.518-47.914 45.518h-23.956c-33.54 0-47.914-11.979-47.914-45.518V103.872c0-33.54 14.374-45.517 47.914-45.517h23.956c33.54 0 47.914 11.978 47.914 45.517Z"/></svg>