<svg xmlns="http://www.w3.org/2000/svg" fill="none" viewBox="0 0 719 724"><path stroke="#000" stroke-linecap="round" stroke-width="50" d="M691 358c0-156.978 0-235.467-48.768-284.233C593.468 25 514.976 25 358 25c-156.978 0-235.467 0-284.233 48.767C25 122.533 25 201.022 25 358c0 156.976 0 235.468 48.767 284.232C122.533 691 201.022 691 358 691h156M283 353h172M372 444V272"/><path fill="red" d="m556.79 623.045 55.327-206.482c.761-2.839 1.666-6.354 2.945-9.213 1.447-3.237 4.15-7.526 9.942-10.228l.272-.124c5.704-2.569 11.483-2.292 15.568-1.677 3.667.552 7.836 1.7 11.219 2.607l16.794 4.5 16.795 4.5c3.382.906 7.566 1.996 11.018 3.352 3.845 1.51 8.989 4.159 12.644 9.236l.173.244.17.245c3.501 5.149 3.686 10.112 3.327 13.583-.322 3.116-1.296 6.613-2.057 9.452l-55.326 206.482c-.22.82-.737 3.021-1.849 5.113-1.112 2.091-2.684 3.818-3.253 4.481l-26.173 30.501c-4.68 5.453-9.21 10.793-13.384 14.366-3.634 3.109-12.048 9.36-24.245 6.224l-.289-.076c-12.353-3.31-16.568-13.046-18.172-17.591-1.829-5.182-3.082-12.071-4.408-19.134l-7.417-39.501c-.161-.859-.659-3.139-.576-5.507.072-2.071.581-3.988.855-4.984l.1-.369Zm128.862-216.117-16.795-4.5-16.794-4.5 33.589 9Z"/></svg>