<svg xmlns="http://www.w3.org/2000/svg" width="716" height="716" fill="none"><path stroke="#000" stroke-width="50" d="M25 358c0-156.978 0-235.467 48.767-284.233C122.533 25 201.022 25 358 25c156.976 0 235.468 0 284.232 48.767C691 122.533 691 201.022 691 358c0 156.976 0 235.468-48.768 284.232C593.468 691 514.976 691 358 691c-156.978 0-235.467 0-284.233-48.768C25 593.468 25 514.976 25 358Z"/><path stroke="#000" stroke-linecap="round" stroke-width="50" d="M331.645 553 117 338.355"/><path fill="red" d="M546.396 72.066c11.785-20.413 17.678-30.619 27.68-33.3 10.003-2.68 20.209 3.213 40.621 14.998L633.7 64.736c20.412 11.785 30.619 17.677 33.299 27.68 2.68 10.002-3.213 20.208-14.998 40.621l-214.64 371.767c-2.415 4.183-3.623 6.275-5.197 8.088-1.573 1.812-3.475 3.301-7.279 6.279l-23.12 18.104c-41.442 32.45-62.162 48.674-76.783 40.233-14.62-8.441-10.93-34.498-3.548-86.612l4.118-29.075c.677-4.783 1.016-7.175 1.798-9.444.783-2.269 1.991-4.361 4.406-8.544l214.64-371.767Z"/></svg>