<svg xmlns="http://www.w3.org/2000/svg" fill="none" viewBox="0 0 512 512"><path fill="var(--green-3)" d="M176.545 377.949c-1.484 0-2.917-.307-4.145-1.331-1.816-1.484-2.609-3.992-3.274-6.449a403.172 403.172 0 0 1-13.508-87.34c-.051 3.506.205 9.29 1.049 18.681a866.242 866.242 0 0 0 3.659 32.577c.383 3.685-1.228 7.831-4.554 11.669a37.214 37.214 0 0 1-16.373 10.364c-7.752 2.559-16.578 3.173-25.531 1.715a43.767 43.767 0 0 1-15.427-5.323 29.038 29.038 0 0 1-9.235-8.445l-.742.41a54.86 54.86 0 0 1-21.694 5.834c-7.035.461-14.505-.128-22.845-1.817-14.864-2.994-29.6-8.956-43.388-14.842-.435-.179-.64-.768-.486-1.28.153-.512.614-.767 1.049-.563 13.737 5.835 28.37 11.772 43.106 14.766 8.238 1.663 15.58 2.252 22.487 1.791 7.752-.512 14.838-2.431 21.132-5.655l.383-.205c-.563-.921-1.049-1.894-1.51-2.892a27.031 27.031 0 0 1-2.046-12.795c.333-3.48 1.791-6.449 3.94-7.882 1.56-1.049 3.505-1.279 5.424-.588 2.174.767 4.041 2.61 5.014 4.913a15.154 15.154 0 0 1-1.407 13.282 20.147 20.147 0 0 1-6.857 6.653c3.812 5.272 10.745 10.646 23.383 12.667 8.724 1.408 17.319.845 24.866-1.663 6.447-2.124 12.024-5.656 15.657-9.878 2.942-3.404 4.374-6.961 4.067-10.031l-.409-3.327c-.716-5.809-2.226-17.939-3.249-29.25-.563-6.346-.921-11.567-1.023-15.533-.179-6.603.307-8.522.716-9.392a7.858 7.858 0 0 1 1.023-1.664c.231-1.202.666-2.354 1.433-3.326.716-.896 1.688-1.561 3.044-2.099 1.996-.793 4.196-1.407 6.831-1.945l5.116-1.023c35.893-7.191 72.987-14.612 109.826-18.604 1.356-.154 3.198-.359 4.759.588 2.43 1.459 3.146 4.786 3.581 8.112a984.829 984.829 0 0 1 7.24 85.165v.435c.102 2.201.205 4.658-.204 6.859-.512 2.687-1.766 4.503-3.736 5.45-3.709 1.766-7.802 2.099-11.768 2.431-1.637.128-3.3.256-4.886.512-17.294 2.61-34.843 5.63-51.805 8.522a3050.53 3050.53 0 0 1-46.944 7.779c-2.609.41-4.681-1.126-6.242-4.606-1.228-2.687-1.893-6.142-2.404-8.854-.205-.973-.359-1.843-.538-2.508a409.773 409.773 0 0 1-6.216-33.037c-1.893-12.284-3.172-22.418-4.042-31.937l-.256-2.303c-.793-6.244-1.433-12.591.205-14.945a2.025 2.025 0 0 1 1.611-.973c.64-.051 1.919.333 8.622 5.349 4.323 3.25 10.079 7.779 16.168 12.539 9.107 7.165 19.417 15.303 27.962 21.47a138.636 138.636 0 0 0 11.154 7.422c4.067 2.38 5.551 2.559 6.088 2.482 2.763-.461 15.682-12.872 30.443-30.606 7.138-8.573 13.201-16.583 17.499-23.16 6.447-9.877 7.163-13.818 7.01-15.277-.052-.512-.18-1.791-2.942-1.433-11.692 1.382-50.117 7.677-114.227 18.681l-.997.179c-3.275.512-7.573 1.254-9.875 3.583-.179 1.254-.154 2.559-.103 3.838 1.126 30.453 5.68 60.598 13.534 89.618.588 2.226 1.253 4.299 2.635 5.425 1.586 1.28 3.786 1.024 6.063.666 8.058-1.357 13.968-2.432 19.673-3.455 7.674-1.382 14.914-2.713 26.017-4.453 6.473-1.024 18.982-3.276 29.062-5.118l12.714-2.252c3.045-.537 6.294-.972 9.415-1.433 5.909-.819 12.024-1.689 17.575-3.148 2.763-.716 4.375-4.376 4.835-10.824.384-5.707-.204-12.181-.614-16.481l-.256-3.071c-.102-1.791-.332-3.915-.562-6.192-.921-8.957-1.382-14.996.434-16.941a1.897 1.897 0 0 1 1.894-.589c4.042.973 8.314 2.278 12.458 3.506 4.477 1.356 8.698 2.636 11.512 3.122 3.608.64 12.331 1.254 21.567.205 4.784-.538 10.54-1.638 15.324-3.839a16.877 16.877 0 0 1-2.635-8.777c-.052-2.559.409-5.17 1.407-7.831.921-2.508 2.251-4.248 3.837-5.016a4.73 4.73 0 0 1 4.733.41 8.476 8.476 0 0 1 3.632 5.604 14.335 14.335 0 0 1-2.788 11.9 18.661 18.661 0 0 1-5.475 4.478c1.126 1.356 2.507 2.559 4.068 3.659 2.712 1.868 5.935 3.225 9.261 3.916 10.514 2.149 21.003-2.559 27.962-6.833a77.02 77.02 0 0 0 22.359-21.342 107.502 107.502 0 0 0 14.377-31.86 162.138 162.138 0 0 0 4.758-21.829l.154-1.152.512-3.941a22.176 22.176 0 0 1-6.294-6.755 8.698 8.698 0 0 1-.767-7.55c.87-2.328 2.251-2.559 2.967-2.482 2.405.256 4.989 4.299 5.526 6.909.614 2.892.563 5.937.307 8.855 1.996 1.433 4.349 2.789 6.959 4.069 5.935 2.866 12.458 4.76 16.654 4.785.358 0 1.714-.512 5.168-6.551 6.574-11.541 15.579-34.189 21.822-51.539 3.53-9.801 6.6-19.014 8.621-25.974 1.867-6.398 2.481-9.623 2.686-11.26-.665.691-1.612 1.586-2.865 2.712-2.456 2.201-6.012 5.246-10.873 9.29l-4.221 3.506c-6.165 6.269-13.252 13.665-20.671 21.393-11.409 11.9-23.203 24.209-32.106 32.858-2.046 1.996-2.379 4.581-2.763 7.882l-.051.512c-.179 1.535-.358 5.374-.511 9.468-.154 3.916-.333 8.343-.589 11.772-.128 1.919-.281 3.327-.435 4.402-.256 1.637-.537 2.303-1.049 2.61h-.025c-.282.128-.87.256-1.484-.41-.281-.307-.588-.767-.87-1.407-1.509-3.327-3.198-12.156-4.067-21.01a89.735 89.735 0 0 1-.461-11.695c.154-3.864.768-6.193 1.868-7.114 9.03-7.523 21.361-17.529 33.257-27.203 10.105-8.214 20.543-16.659 28.959-23.62a407.614 407.614 0 0 1 5.68-5.706 151.492 151.492 0 0 1 9.9-9.213l-2.558 1.024c-3.249 1.459-7.675 3.787-13.15 6.909-9.746 5.553-22.768 13.614-37.708 23.339-27.092 17.632-54.747 37.055-59.198 41.559a3.067 3.067 0 0 0-.845 1.177c-.051.23-.102.512 0 .64.461.588 2.661.563 4.989-.077 2.635-.717 5.628-1.459 8.775-2.252 5.295-1.331 11.282-2.815 16.654-4.453.435-.128.896.179.998.691.102.512-.154 1.024-.589 1.177-5.423 1.664-11.435 3.173-16.756 4.479-3.147.767-6.114 1.509-8.749 2.226a15.42 15.42 0 0 1-3.019.512c-1.765.153-2.942-.179-3.582-1.024-.358-.435-.69-1.279-.332-2.559.256-.87.818-1.484 1.33-1.996 4.528-4.606 31.39-23.466 58.687-41.277a823.229 823.229 0 0 1 37.657-23.39c15.989-9.033 19.647-9.571 21.029-9.161.486.128.767.435.921.691.691.69.691 2.277.077 5.425-1.868 9.468-9.696 32.909-18.241 54.456a350.825 350.825 0 0 1-12.151 27.843 74.9 74.9 0 0 1-5.04 8.828c-1.689 2.431-3.019 3.583-4.145 3.583-4.451-.051-11.077-1.945-17.268-4.939-1.791-.87-4.17-2.124-6.549-3.762l-.435 3.173-.153 1.152a167.132 167.132 0 0 1-4.81 22.11 108.943 108.943 0 0 1-14.659 32.449 78.498 78.498 0 0 1-22.871 21.828c-5.935 3.66-14.377 7.601-23.305 7.601-1.893 0-3.787-.179-5.705-.563a25.38 25.38 0 0 1-14.659-8.65 28.67 28.67 0 0 1-2.968 1.254c-3.709 1.382-8.186 2.354-13.277 2.943-9.363 1.075-18.266.461-21.975-.205-2.891-.511-7.163-1.817-11.666-3.173a227.74 227.74 0 0 0-12.382-3.506c-.256-.051-.384 0-.46.103-.307.332-.794 1.458-.691 5.45.077 2.918.435 6.449.767 9.827.231 2.303.461 4.478.563 6.321l.256 2.994c.409 4.35 1.023 10.953.614 16.838-.512 7.422-2.584 11.644-6.114 12.591-5.628 1.484-11.794 2.303-17.755 3.173-3.274.461-6.344.896-9.388 1.433-3.147.512-7.778 1.382-12.689 2.278-10.08 1.791-22.615 4.069-29.088 5.092-11.103 1.766-18.317 3.071-25.966 4.453-5.731 1.024-11.615 2.098-19.699 3.48-1.023.179-2.072.333-3.095.333v-.051Zm-16.117-101.108s-.256.051-.409.256c-.307.461-.794 1.766-.614 5.681.102 2.687.486 5.63.767 7.805l.281 2.354c.87 9.469 2.149 19.577 4.042 31.809 1.51 9.853 3.454 21.445 6.191 32.833.18.742.359 1.638.538 2.61.511 2.636 1.151 5.886 2.277 8.419 1.227 2.713 2.66 3.839 4.553 3.557 15.657-2.431 31.544-5.143 46.919-7.779 16.986-2.892 34.536-5.911 51.83-8.522 1.637-.256 3.351-.409 4.989-.537 3.837-.333 7.802-.665 11.256-2.303 3.326-1.587 3.121-6.27 2.942-10.416v-.435a1002.04 1002.04 0 0 0-7.24-84.96c-.384-2.84-.947-5.63-2.712-6.679-1.049-.64-2.353-.563-3.837-.384-36.788 3.992-73.857 11.414-109.698 18.579l-5.091 1.023c-2.584.512-4.682 1.101-6.6 1.869-.921.358-1.612.767-2.098 1.279 2.532-1.305 5.679-1.817 8.263-2.252l.998-.179c64.135-11.004 102.586-17.299 114.277-18.707 3.786-.46 4.579 1.766 4.733 3.148.332 3.173-2.072 8.624-7.342 16.685-4.349 6.628-10.438 14.714-17.627 23.338a329.284 329.284 0 0 1-19.161 21.215c-6.268 6.27-10.361 9.622-12.229 9.955-.818.128-2.456 0-7.06-2.662a141.563 141.563 0 0 1-11.282-7.523 925.919 925.919 0 0 1-28.039-21.496c-5.986-4.709-11.64-9.162-15.938-12.386a88.815 88.815 0 0 0-5.346-3.839c-1.868-1.202-2.405-1.33-2.508-1.33l-.025-.026Zm-68.664 43.094c-.87 0-1.688.231-2.379.717-1.688 1.126-2.84 3.531-3.121 6.397-.358 3.839.358 8.317 1.868 11.695.434.947.946 1.945 1.56 2.943a19.112 19.112 0 0 0 6.575-6.244 14.812 14.812 0 0 0 1.944-5.579c.256-2.072.026-4.043-.665-5.706a7.115 7.115 0 0 0-4.017-3.916 5.343 5.343 0 0 0-1.74-.307h-.025Zm273.248-35.366c-.461 0-.896.103-1.305.307-1.509.743-2.456 2.559-2.968 3.993a16.533 16.533 0 0 0 .077 12.897c.333.742.742 1.484 1.228 2.201a17.873 17.873 0 0 0 5.424-4.299 12.141 12.141 0 0 0 2.379-10.185 6.448 6.448 0 0 0-2.789-4.274 3.92 3.92 0 0 0-2.021-.64h-.025Zm115.019-120.377-16.757 13.614c-11.921 9.673-24.226 19.653-33.257 27.177-.256.23-1.561 1.791-1.126 11.439.256 5.374 1.024 11.848 2.047 17.35.486 2.662 1.049 4.965 1.56 6.654.384 1.279.717 1.996.921 2.354.154-.768.384-2.303.589-5.579.23-3.326.384-7.446.537-11.08.179-4.299.333-8.01.512-9.648l.051-.512c.409-3.403.793-6.653 3.351-9.11 8.903-8.624 20.671-20.933 32.055-32.807l9.491-9.878h.026v.026Zm-37.76 47.061c-.256 0-.767.128-1.202 1.33-.691 1.792-.461 3.685.639 5.707a20.229 20.229 0 0 0 5.091 5.63c.179-2.457.154-4.913-.332-7.217-.461-2.149-2.584-5.297-4.094-5.45h-.128.026Z"/></svg>