<svg width="512" height="512" viewBox="0 0 512 512" fill="none" xmlns="http://www.w3.org/2000/svg">
<path d="M459.379 70.5049H52.6208C23.6058 70.5049 -0.00244141 94.1131 -0.00244141 123.128V388.874C-0.00244141 417.892 23.6058 441.498 52.6208 441.498H459.379C488.394 441.498 512 417.892 512 388.874V123.128C512 94.1131 488.394 70.5049 459.379 70.5049ZM481.441 123.128V388.874C481.441 389.043 481.421 389.207 481.416 389.373L329.034 255.997L481.416 122.629C481.423 122.798 481.441 122.959 481.441 123.128ZM459.379 101.064C459.466 101.064 459.553 101.076 459.64 101.079L270.533 266.588C262.254 273.846 249.756 273.846 241.469 266.588L52.3572 101.079C52.4468 101.079 52.5339 101.064 52.6235 101.064H459.379ZM30.5818 389.368C30.5792 389.202 30.5562 389.038 30.5562 388.874V123.128C30.5562 122.962 30.5792 122.798 30.5818 122.632L182.971 256L30.5818 389.368ZM52.6235 410.934C52.5339 410.934 52.4519 410.921 52.3597 410.921L206.172 276.303L221.343 289.582C231.222 298.23 243.61 302.551 256.003 302.551C268.385 302.551 280.781 298.23 290.662 289.582L305.833 276.301L459.643 410.921C459.553 410.921 459.471 410.934 459.382 410.934H52.6235Z" fill="currentColor"/>
</svg>
