<svg xmlns="http://www.w3.org/2000/svg" fill="none" viewBox="0 0 512 512"><path fill="#000" d="M173.545 17.822c3.827 3.375 7.043 6.693 8.687 11.622v19.235h147.537V29.444c4.998-9.992 4.998-9.992 9.493-12.156 5.981-1.762 12.557-1.8 18.237.935 4.511 3.681 7.094 7.867 7.891 13.72.078 2.564.035 5.09-.073 7.653l-.059 2.663c-.049 2.14-.126 4.28-.208 6.42l3.031-.068c25.694-.499 46.873-.2 69.668 12.892l2.715 1.49c19.142 11.515 32.074 31.877 37.424 53.193 1.519 6.969 1.864 13.61 1.842 20.727l.015 3.639c.013 4 .012 8.001.01 12.001a9781.366 9781.366 0 0 1 .047 29.614c.001 5.691.005 11.382.012 17.073.019 16.166.028 32.332.027 48.499v2.637l-.001 2.64c-.001 14.105.02 28.21.05 42.315.031 14.515.046 29.029.044 43.543-.001 8.136.005 16.272.028 24.408.019 6.93.024 13.86.009 20.79-.006 3.528-.004 7.056.012 10.584.077 17.891.031 35.841-8.824 51.96l-1.111 2.112c-12.04 22.313-30.874 37.1-54.981 44.653-12.471 3.451-25.617 2.588-38.437 2.545-2.925.003-5.851.013-8.776.023-7.089.019-14.178.015-21.267.002-5.766-.01-11.533-.011-17.299-.006l-2.497.002-5.024.004c-15.663.012-31.326-.002-46.989-.025-13.409-.019-26.818-.016-40.228.004-15.611.023-31.222.032-46.833.019l-5.004-.004-2.486-.002c-5.753-.004-11.505.002-17.258.012-7.021.013-14.041.009-21.061-.014-3.575-.011-7.15-.013-10.725-.001-17.738.054-33.722-.319-49.715-8.849l-2.142-1.111c-22.084-11.744-37.058-30.47-44.406-54.251-3.422-13.394-2.822-27.004-2.795-40.732-.007-2.88-.014-5.761-.023-8.641-.018-6.983-.019-13.965-.013-20.948.004-5.681.003-11.362-.003-17.043l-.003-2.459-.005-4.948c-.014-15.432-.009-30.864.004-46.297.01-14.084-.003-28.169-.029-42.254-.026-14.501-.036-29.002-.03-43.503.005-8.126.002-16.252-.017-24.378-.015-6.917-.016-13.833.003-20.75.009-3.522.009-7.043-.005-10.564-.11-29.535 5.278-54.126 26.612-75.82 8.085-7.92 16.887-13.312 27.129-18.034l1.926-.913c13.518-5.904 27.655-6.212 42.108-5.966 1.678.016 3.356.03 5.034.044 4.047.034 8.092.09 12.138.156l-.15-3.907c-.04-1.725-.079-3.45-.117-5.176l-.109-2.563c-.102-6.225 1.037-10.99 4.653-16.139 6.476-5.284 14.485-6.135 22.317-3.072Zm-94.787 86.36c-6.762 8.297-11.04 19.027-11.064 29.754l-.015 3.04v3.314l-.011 3.541c-.012 3.924-.016 7.848-.02 11.771l-.021 8.431c-.021 8.44-.032 16.879-.042 25.318a51011.373 51011.373 0 0 0-.064 61.935v2.585a22168.9 22168.9 0 0 1-.072 41.423c-.035 14.191-.054 28.381-.058 42.572-.002 7.961-.011 15.923-.039 23.884-.023 6.783-.031 13.566-.021 20.348.005 3.456 0 6.912-.018 10.368-.1 19.967.526 36.581 14.694 52.117 14.214 13.66 30.638 16.767 49.589 16.736l3.356.007c3.69.007 7.381.006 11.071.005l7.963.011c6.45.009 12.9.012 19.35.013 5.247 0 10.493.002 15.74.006 14.9.009 29.8.014 44.7.013H238.64c13.008 0 26.016.01 39.024.025 13.38.015 26.76.023 40.14.022 7.503-.001 15.005.002 22.507.014 7.059.011 14.118.01 21.177.003 2.583-.002 5.167.001 7.751.007 32.572.099 32.572.099 59.957-16.298 11.013-11.912 15.302-24.732 15.254-40.702l.014-3.549c.014-3.914.012-7.828.01-11.741l.022-8.433c.018-6.837.024-13.673.025-20.51.001-5.561.005-11.122.012-16.683.019-15.786.029-31.573.027-47.36V291.013c-.001-13.786.019-27.573.049-41.36.031-14.176.046-28.352.044-42.528-.001-7.951.005-15.902.028-23.852.02-6.771.024-13.542.01-20.313-.007-3.45-.005-6.899.011-10.349.091-20.606-.896-37.702-15.773-53.438-10.851-10.3-23.613-15.394-38.509-15.333l-2.206.005c-2.309.006-4.618.02-6.927.033l-4.717.014c-3.84.012-7.68.03-11.52.053l-.121 3.982-.213 5.235-.074 2.617c-.241 5.399-1.126 9.035-3.869 13.813v2.137c-6.453 3.337-12.037 3.839-19.244 3.206-3.274-1.603-3.274-1.603-5.345-3.206h-2.139c-4.169-10.28-3.51-14.008-4.276-27.784H182.232l-1.069 19.235-3.208 6.412v2.137c-6.453 3.337-12.037 3.839-19.243 3.206-3.275-1.603-3.275-1.603-5.346-3.206h-2.138c-1.791-4.415-3.308-8.288-3.546-13.07l-.136-2.598-.127-2.699-.14-2.736c-.113-2.227-.221-4.454-.328-6.681-4.504-.08-9.009-.138-13.514-.176a578.296 578.296 0 0 1-4.581-.066c-20.697-.37-35.861 5.034-50.098 20.479Z"/><path fill="#000" d="M282.097 147.127c7.83 5.876 12.136 12.375 16.438 21.105l1.658 3.256c2.127 4.178 4.225 8.371 6.313 12.568 1.267 2.541 2.553 5.071 3.841 7.6l1.103 2.279c2.027 3.992 2.027 3.992 5.539 6.594 3.648 1.127 7.274 1.684 11.047 2.164l4.737.651c2.456.329 4.913.656 7.371.976 16.771 2.202 32.492 5.129 43.813 18.902 8.522 11.757 9.837 23.869 8.676 38.04-3.073 15.05-14.936 24.799-25.426 35.103a3052.669 3052.669 0 0 0-6.008 5.931 1073.29 1073.29 0 0 1-3.722 3.665c-3.097 2.98-3.097 2.98-5.42 6.554.15 7.443 1.318 14.773 2.682 22.076 3.135 16.79 6.477 34.751-3.299 49.948-7.064 9.609-16.303 17.249-28.213 19.804-3.222.281-6.443.295-9.677.333l-2.575.094c-11.872.124-21.632-5.397-31.727-11.105a2493.3 2493.3 0 0 0-11.546-6.407l-2.396-1.351-2.196-1.185-1.862-1.026c-4.351-1.477-7.653-1.055-11.861.677l-3.583 1.93-1.963 1.039a732.144 732.144 0 0 0-6.17 3.32c-27.322 14.691-27.322 14.691-38.907 14.281l-2.642-.056c-12.724-.496-21.666-5.26-30.66-14.133-7.273-7.964-11.372-17.78-11.412-28.588l-.012-2.412c.19-10.071 2.112-19.97 3.919-29.853l.731-4.023.678-3.594c1.051-6.106 1.051-6.106-.692-11.823l-1.75-1.834-2.073-2.196c-5.631-5.606-11.305-11.174-17.074-16.639-9.642-9.156-17.911-18.852-18.751-32.739-.365-15.179 2.378-26.853 12.793-38.435 11.825-11.384 27.503-12.309 42.986-14.55A525.061 525.061 0 0 0 187.952 202l3.925-.634c5.098-1.534 6.958-4.272 9.486-8.886a439.329 439.329 0 0 0 2.051-4.336l2.309-4.775a1304.25 1304.25 0 0 0 3.548-7.464c7.252-15.334 14.927-27.251 31.057-34.263 14.613-5.189 28.834-2.183 41.769 5.485Zm-34.683 31.916a84.955 84.955 0 0 0-3.995 7.788l-1.073 2.282a905.954 905.954 0 0 0-3.34 7.215c-14.119 30.73-14.119 30.73-30.624 37.188-9.919 3.477-20.598 4.302-30.976 5.62-2.78.359-5.556.744-8.332 1.133l-2.565.301c-4.121.591-6.409 1.303-9.898 3.718-2.196 3.243-2.987 5.498-2.714 9.443 1.227 4.337 4.432 6.929 7.673 9.891l2.189 2.113a649.234 649.234 0 0 0 6.975 6.605c19.122 18.028 19.122 18.028 22.223 27.361l1.402 4.004c2.463 11.7.31 23.765-1.935 35.304-2.461 12.292-2.461 12.292-2.67 24.758 2.795 3.726 4.992 5.743 9.61 6.407a84.953 84.953 0 0 0 8.075-3.537l2.391-1.154a387.454 387.454 0 0 0 13.017-6.687l2.671-1.43a418.844 418.844 0 0 0 5.054-2.766c8.062-4.378 16.107-7.315 25.385-7.25l3.537-.025c12.057 1.303 22.101 7.244 32.634 12.839 2.396 1.266 4.793 2.529 7.193 3.787 1.484.778 2.965 1.561 4.443 2.349 4.71 2.58 4.71 2.58 9.853 3.874 4.164-1.665 6.028-2.634 8.542-6.407.724-9.773-1.581-19.17-3.441-28.723-2.065-11.196-3.769-23.087-.162-34.141l.976-3.195c3.506-7.518 9.146-13.341 15.132-18.962 1.343-1.294 2.684-2.59 4.025-3.887a771.553 771.553 0 0 1 6.285-5.987 529.046 529.046 0 0 0 6.107-5.875l1.921-1.767c3.088-3.048 4.818-5.268 5.123-9.687-.441-4.192-.441-4.192-2.822-7.255-4.161-2.879-7.514-3.439-12.464-4.019l-2.693-.377c-2.834-.395-5.671-.76-8.51-1.12-33.885-4.424-33.885-4.424-46.343-19.233-2.481-3.24-4.336-6.7-6.179-10.331l-1.217-2.332a313.671 313.671 0 0 1-6.353-13.088l-1.273-2.764a370.478 370.478 0 0 1-2.374-5.312c-2.194-4.835-4.062-8.067-8.737-10.94-5.515-.919-7.792.507-11.746 4.271Z"/></svg>