<svg xmlns="http://www.w3.org/2000/svg" fill="none" viewBox="0 0 512 512"><path fill="currentColor" d="M0 302.645V131.187c.01-15.722.165-26.846 2.012-36.64 8.859-46.95 45.584-83.675 92.534-92.534C105.74-.099 118.67.001 138.216.001c8.595 0 14.344-.023 19.982.504l1.088.107a116.065 116.065 0 0 1 61.332 25.405l.846.694c4.359 3.614 8.408 7.696 14.484 13.772l13.017 13.016.179.187c5.674 5.938 15.615 15.436 26.377 24 9.951 7.917 18.48 13.296 24.149 15.605h54.334c30.099 0 54.809-.043 74.402 2.42 19.847 2.496 37.488 7.864 52.173 20.747l.698.619.907.827a92.177 92.177 0 0 1 6.028 6.11l.619.697c12.884 14.685 18.253 32.327 20.748 52.174 2.464 19.593 2.421 44.303 2.421 74.402v51.358c0 43.333.049 78.124-3.618 105.399-3.755 27.929-11.779 51.361-30.378 69.959l.001.001c-18.598 18.6-42.032 26.623-69.961 30.378-27.275 3.667-62.066 3.618-105.399 3.618h-93.29c-43.333 0-78.124.049-105.399-3.618-27.93-3.756-51.362-11.778-69.961-30.378-18.6-18.598-26.622-42.031-30.377-69.96C-.049 380.769 0 345.978 0 302.645Zm45.552 0c0 44.621.048 75.796 3.212 99.329 3.076 22.879 8.715 35.097 17.44 43.821 8.725 8.725 20.944 14.365 43.822 17.441 23.533 3.164 54.708 3.212 99.329 3.212h93.29c44.621 0 75.795-.048 99.329-3.212 22.879-3.076 35.097-8.716 43.82-17.441h.001c8.725-8.724 14.365-20.942 17.441-43.821 3.164-23.533 3.212-54.708 3.212-99.329v-51.358c0-31.294-.042-52.628-2.065-68.72-1.952-15.522-5.425-22.961-10.04-28.091l-.008-.009a46.573 46.573 0 0 0-3.519-3.521c-5.132-4.614-12.571-8.087-28.093-10.039-16.091-2.023-37.426-2.065-68.719-2.065H70.401c-12.578 0-22.775-10.197-22.775-22.776 0-12.578 10.197-22.775 22.775-22.775h153.946a280.62 280.62 0 0 1-7.897-7.886l-12.711-12.711-.001-.001c-6.676-6.676-9.004-8.972-11.346-10.914a70.515 70.515 0 0 0-38.436-15.92c-3.029-.284-6.299-.307-15.74-.307-21.618 0-29.272.1-35.224 1.223-28.524 5.382-50.836 27.693-56.218 56.218-1.123 5.951-1.222 13.605-1.222 35.224v164.428Z"/><path fill="currentColor" d="M350.186 275.584c12.579 0 22.776 10.197 22.776 22.776 0 12.578-10.197 22.776-22.776 22.776H162.514c-12.579 0-22.776-10.198-22.776-22.776 0-12.579 10.197-22.776 22.776-22.776h187.672Z"/><path fill="currentColor" d="M234.261 214.342c0-12.579 10.197-22.776 22.776-22.776s22.776 10.197 22.776 22.776v187.672c0 12.579-10.197 22.776-22.776 22.776s-22.776-10.197-22.776-22.776V214.342Z"/></svg>