<svg xmlns="http://www.w3.org/2000/svg" fill="none" viewBox="0 0 512 512"><path stroke="currentColor" stroke-miterlimit="10" stroke-width="50" d="M484 233.2V370c0 91.2-22.8 114-114 114H142c-91.2 0-114-22.8-114-114V142C28 50.8 50.8 28 142 28h34.2c34.2 0 41.724 10.032 54.72 27.36l34.2 45.6c8.664 11.4 13.68 18.24 36.48 18.24H370c91.2 0 114 22.8 114 114Z"/><path fill="currentColor" d="M350.186 275.583c12.579 0 22.776 10.198 22.776 22.776 0 12.579-10.197 22.776-22.776 22.776H162.514c-12.579 0-22.776-10.197-22.776-22.776 0-12.578 10.197-22.776 22.776-22.776h187.672Z"/><path fill="currentColor" d="M234.261 214.342c0-12.579 10.197-22.776 22.776-22.776s22.776 10.197 22.776 22.776v187.672c0 12.579-10.197 22.776-22.776 22.776s-22.776-10.197-22.776-22.776V214.342Z"/></svg>