<svg xmlns="http://www.w3.org/2000/svg" fill="none" viewBox="0 0 512 512"><path stroke="var(--accent)" stroke-linecap="round" stroke-linejoin="round" stroke-miterlimit="10" stroke-width="50" d="M60.263 242.523V123.896C60.263 45.579 79.843 26 158.16 26h29.254c29.253 0 35.933 8.753 46.99 23.495l29.253 39.158c7.371 9.675 11.748 15.664 31.327 15.664h58.737c78.317 0 97.896 19.579 97.896 97.896v41.231"/><path stroke="currentColor" stroke-miterlimit="10" stroke-width="50" d="m478.813 308.636-9.214 115.171C466.144 459.05 463.38 486 400.957 486H111.186c-62.423 0-65.187-26.95-68.642-62.193L33.33 308.636c-1.842-19.119 4.146-36.855 14.973-50.445l.46-.461c12.67-15.433 31.788-25.107 53.21-25.107h308.198c21.422 0 40.31 9.674 52.748 24.646.231.231.461.461.461.691 11.287 13.591 17.506 31.327 15.433 50.676Z"/><path stroke="var(--accent)" stroke-linecap="round" stroke-linejoin="round" stroke-miterlimit="10" stroke-width="30" d="M196.85 370.829h118.396"/></svg>