<svg xmlns="http://www.w3.org/2000/svg" fill="none" viewBox="0 0 512 512"><path fill="currentColor" d="M0 302.645V131.187c.01-15.722.165-26.846 2.012-36.64 8.859-46.95 45.584-83.675 92.534-92.534C105.74-.099 118.67.001 138.216.001c8.595 0 14.344-.023 19.982.504l1.088.107a116.065 116.065 0 0 1 61.332 25.405l.846.694c4.359 3.614 8.408 7.696 14.484 13.772l12.834 12.833c19.935 19.935 26.937 26.649 34.9 31.08h-.001a70.534 70.534 0 0 0 14.955 6.194l.825.227c8.562 2.283 18.515 2.474 45.826 2.474h8.717c30.099 0 54.809-.043 74.402 2.42 19.847 2.496 37.488 7.864 52.173 20.747l.698.619.906.827a92.192 92.192 0 0 1 6.029 6.11l.619.697c12.884 14.685 18.253 32.327 20.748 52.174 2.464 19.593 2.421 44.303 2.421 74.402v51.358c0 43.333.049 78.124-3.618 105.399-3.755 27.929-11.779 51.361-30.378 69.959l.001.001c-18.598 18.6-42.032 26.623-69.961 30.378-27.275 3.667-62.066 3.618-105.399 3.618h-93.29c-43.333 0-78.124.049-105.399-3.618-27.93-3.756-51.362-11.778-69.961-30.378-18.6-18.599-26.622-42.031-30.377-69.96C-.049 380.769 0 345.978 0 302.645Zm234.261 81.159v-80.878h-71.747c-12.578 0-22.775-10.198-22.776-22.776 0-12.579 10.198-22.776 22.776-22.776h71.747v-61.242c0-12.578 10.197-22.775 22.775-22.776 12.579 0 22.776 10.197 22.776 22.776v61.242h70.375c12.578 0 22.776 10.197 22.776 22.776-.001 12.578-10.198 22.775-22.776 22.776h-70.375v80.878c0 12.579-10.197 22.776-22.776 22.776-12.578 0-22.775-10.197-22.775-22.776Zm-188.71-81.159c0 44.621.05 75.796 3.213 99.329 3.076 22.879 8.715 35.097 17.44 43.821 8.726 8.725 20.944 14.365 43.822 17.441 23.533 3.164 54.708 3.212 99.329 3.212h93.29c44.621 0 75.795-.048 99.329-3.212 22.879-3.076 35.097-8.716 43.82-17.441h.001c8.725-8.724 14.365-20.942 17.441-43.821 3.164-23.533 3.212-54.708 3.212-99.329v-51.358c0-31.294-.042-52.628-2.065-68.72-1.952-15.522-5.425-22.961-10.04-28.091l-.008-.009a46.573 46.573 0 0 0-3.519-3.521v-.001c-5.132-4.614-12.571-8.086-28.093-10.038-16.091-2.023-37.426-2.065-68.719-2.065h-8.717c-25.621 0-42.83.202-59.138-4.446a116.1 116.1 0 0 1-24.614-10.195h-.001c-14.818-8.245-26.844-20.558-44.961-38.675l-12.834-12.832-.001-.001c-6.676-6.676-9.004-8.972-11.346-10.914a70.514 70.514 0 0 0-38.436-15.92c-3.03-.284-6.299-.307-15.74-.307-21.618 0-29.272.1-35.224 1.223-28.524 5.382-50.836 27.693-56.218 56.218-1.123 5.951-1.222 13.605-1.222 35.224v164.428Z"/></svg>