<?xml version="1.0" encoding="UTF-8"?>
<svg version="1.1" xmlns="http://www.w3.org/2000/svg" width="512" height="512">
<path d="M0 0 C8.7108025 6.4524463 13.39419479 15.62442636 15.6953125 26.09375 C17.86224174 40.76219411 14.07399865 55.79471474 5.3203125 67.71875 C-1.5573227 76.43477247 -9.19968991 84.51377831 -16.78515625 92.609375 C-19.55256663 95.56858609 -22.22858712 98.59633016 -24.875 101.6640625 C-27.2675056 104.38799745 -29.7237643 107.05216628 -32.1796875 109.71875 C-35.80064058 113.65154967 -39.36927797 117.62089153 -42.87109375 121.66015625 C-45.9574823 125.17317302 -49.12597528 128.61174818 -52.27734375 132.06640625 C-54.24910594 134.24335996 -56.19334087 136.43713674 -58.1171875 138.65625 C-61.54669669 142.60464474 -65.08845573 146.44732458 -68.63037109 150.29443359 C-71.76500039 153.70491889 -74.83702595 157.16042816 -77.87109375 160.66015625 C-80.9574823 164.17317302 -84.12597528 167.61174818 -87.27734375 171.06640625 C-89.24910594 173.24335996 -91.19334087 175.43713674 -93.1171875 177.65625 C-96.54669669 181.60464474 -100.08845573 185.44732458 -103.63037109 189.29443359 C-106.76500039 192.70491889 -109.83702595 196.16042816 -112.87109375 199.66015625 C-115.9574823 203.17317302 -119.12597528 206.61174818 -122.27734375 210.06640625 C-124.24910594 212.24335996 -126.19334087 214.43713674 -128.1171875 216.65625 C-131.07852315 220.06563643 -134.12123419 223.39667243 -137.1796875 226.71875 C-140.27746668 230.08426432 -143.36024913 233.45893621 -146.3671875 236.90625 C-146.91117187 237.52628906 -147.45515625 238.14632812 -148.015625 238.78515625 C-149.20837948 240.17110336 -150.37773605 241.57732026 -151.53125 242.99609375 C-157.66916084 250.34446908 -164.44734893 255.02622508 -173.6796875 257.71875 C-176.48492813 257.92294598 -176.48492813 257.92294598 -179.42730713 257.85832214 C-180.55072006 257.83939407 -181.674133 257.820466 -182.83158875 257.80096436 C-184.65953728 257.75483002 -184.65953728 257.75483002 -186.52441406 257.70776367 C-188.51325566 257.67121832 -190.50209791 257.63469946 -192.49095774 257.59915984 C-194.62444803 257.55977929 -196.75781726 257.51594217 -198.89121246 257.47173119 C-203.36806961 257.38205449 -207.84501468 257.32248559 -212.32244873 257.27033997 C-213.0814602 257.26141242 -213.84047167 257.25248487 -214.62248349 257.24328679 C-216.17487966 257.22517961 -217.72727717 257.20718652 -219.27967596 257.18930495 C-229.69267126 257.06915975 -240.1040794 256.93493179 -250.51513672 256.69702148 C-257.54997421 256.53648185 -264.58332951 256.43209108 -271.61989379 256.38876325 C-275.32957321 256.3638524 -279.03431853 256.31340241 -282.74225616 256.19392967 C-303.53153135 255.54631783 -317.0795666 259.08361447 -334.15160561 270.97397614 C-337.41608994 273.22698343 -340.78246187 275.20383425 -344.22265625 277.17578125 C-347.08720773 278.87619122 -349.94891385 280.58045981 -352.80273438 282.29882812 C-363.56643259 288.66287389 -374.82518438 290.98033347 -387.10546875 287.84375 C-398.99400175 283.25148312 -404.63479468 276.06623778 -410.43505859 265.07080078 C-411.83739025 262.42072955 -413.26702349 259.78639359 -414.69921875 257.15234375 C-419.80606493 247.74000354 -424.84754319 238.29292166 -429.87109375 228.8359375 C-430.22472488 228.17028778 -430.57835602 227.50463806 -430.94270325 226.81881714 C-432.74182746 223.43088941 -434.5381608 220.04151864 -436.33032227 216.64990234 C-439.75385137 210.17774751 -443.20953148 203.72852911 -446.765625 197.328125 C-447.41238138 196.1564001 -448.05887148 194.98452817 -448.70507812 193.8125 C-449.89273431 191.66543834 -451.09107314 189.52423182 -452.30273438 187.390625 C-458.65510186 175.86594383 -461.24244453 165.03116152 -458.02734375 152.09375 C-454.81542364 142.62080589 -448.16491314 135.97425907 -439.70703125 130.91015625 C-439.14282471 130.57028183 -438.57861816 130.23040741 -437.99731445 129.88023376 C-436.22930083 128.81858499 -434.45540528 127.76745323 -432.6796875 126.71875 C-431.58922119 126.07164062 -430.49875488 125.42453125 -429.37524414 124.7578125 C-425.98263002 122.75543237 -422.58229255 120.76657345 -419.1796875 118.78125 C-417.92235126 118.04605816 -416.66511067 117.31070271 -415.40795898 116.57519531 C-412.80344038 115.05159415 -410.19852013 113.52868343 -407.59326172 112.00634766 C-401.91620072 108.68859848 -396.24273244 105.36472103 -390.56985474 102.03982544 C-388.75239569 100.97473235 -386.93467378 99.91008885 -385.11694336 98.84545898 C-379.46319258 95.53279985 -373.81516766 92.21088274 -368.1796875 88.8671875 C-367.17284912 88.2700293 -366.16601074 87.67287109 -365.12866211 87.05761719 C-363.26896542 85.95340753 -361.4103203 84.84742397 -359.55297852 83.73925781 C-358.72983154 83.25038086 -357.90668457 82.76150391 -357.05859375 82.2578125 C-356.3529126 81.83709473 -355.64723145 81.41637695 -354.92016602 80.98291016 C-354.18080811 80.5657373 -353.4414502 80.14856445 -352.6796875 79.71875 C-351.91676895 79.20601028 -351.1538504 78.69327057 -350.36781311 78.16499329 C-344.7782183 75.9731173 -339.38169366 76.29341923 -333.42919922 76.31469727 C-332.07833798 76.30898958 -330.72748156 76.30202378 -329.37663269 76.29389954 C-325.71713825 76.27598807 -322.0578839 76.2771337 -318.39835882 76.28284192 C-315.33476172 76.28593944 -312.27121036 76.27983445 -309.20761979 76.27380317 C-301.97138211 76.25976358 -294.73526248 76.26131198 -287.49902344 76.27270508 C-280.05884895 76.28416121 -272.61903599 76.27015181 -265.17890918 76.2433086 C-258.7726832 76.22106946 -252.36656999 76.21453334 -245.96030819 76.22038502 C-242.14254744 76.22373924 -238.32501784 76.22144386 -234.50728989 76.20413399 C-230.91035018 76.18853737 -227.31393979 76.19275898 -223.71702003 76.21143913 C-221.78707146 76.21681664 -219.8570984 76.20270441 -217.92720032 76.18774414 C-201.96025091 76.32110763 -189.4301638 82.51141201 -178.23828125 93.7265625 C-176.50144743 95.94657565 -175.601763 98.0672095 -174.6796875 100.71875 C-167.79950864 95.94474834 -161.39556656 90.84940021 -155.08764648 85.35668945 C-151.02194108 81.83072341 -146.87020003 78.4532966 -142.6171875 75.15625 C-137.39373809 71.10499487 -132.31336929 66.91984466 -127.28613281 62.62817383 C-123.40636027 59.31996437 -119.46309147 56.10955657 -115.46875 52.94140625 C-111.87475213 50.0772819 -108.30790081 47.18046709 -104.7421875 44.28125 C-104.04996094 43.71841309 -103.35773438 43.15557617 -102.64453125 42.57568359 C-96.98057468 37.96769625 -91.32699585 33.34712504 -85.6796875 28.71875 C-82.01551036 25.7156935 -78.34843827 22.71621728 -74.6796875 19.71875 C-73.77210693 18.9755249 -73.77210693 18.9755249 -72.84619141 18.21728516 C-68.79129774 14.89799144 -64.72516232 11.59327422 -60.64453125 8.30566406 C-59.3782737 7.28296599 -58.11500787 6.25654702 -56.85546875 5.22558594 C-39.50747642 -8.95493588 -19.80156964 -12.66307275 0 0 Z M-36.5546875 29.21875 C-37.77618612 30.3307001 -38.99884735 31.44137435 -40.22265625 32.55078125 C-40.81224121 33.09557129 -41.40182617 33.64036133 -42.00927734 34.20166016 C-44.21680953 36.20657173 -46.52345732 38.06341272 -48.8671875 39.90625 C-52.2036021 42.5450998 -55.51561964 45.20853015 -58.8046875 47.90625 C-63.41891947 51.69044307 -68.04658949 55.45768156 -72.6796875 59.21875 C-77.18616245 62.87757097 -81.68944879 66.54000021 -86.1796875 70.21875 C-90.66992658 73.89750009 -95.17326065 77.55986937 -99.6796875 81.21875 C-106.02492076 86.37095766 -112.35799544 91.53766905 -118.6796875 96.71875 C-125.69317471 102.4668068 -132.72268049 108.19470364 -139.76293945 113.90991211 C-146.98360763 119.77059811 -146.98360763 119.77059811 -154.1484375 125.69921875 C-156.6796875 127.71875 -156.6796875 127.71875 -159.3984375 129.51953125 C-165.63596433 133.80324453 -167.91272643 137.88577499 -169.92382812 145.00048828 C-173.78002564 158.55468427 -182.52174298 167.17309448 -194.32421875 174.140625 C-203.37094632 178.39543051 -211.62509702 179.1652377 -221.55541992 179.15454102 C-222.92483839 179.16353672 -224.29424932 179.17374907 -225.66365051 179.18507385 C-229.35353477 179.2113777 -233.04320988 179.21859846 -236.73317885 179.22052121 C-239.04259804 179.22266315 -241.35196508 179.22908531 -243.66137123 179.23701286 C-251.72895272 179.26468964 -259.79638626 179.27702659 -267.86401367 179.2746582 C-275.36926021 179.27285258 -282.8738622 179.30459216 -290.37894553 179.35188919 C-296.84038035 179.39115013 -303.30160451 179.40720874 -309.76315767 179.40529197 C-313.61493686 179.40452872 -317.46614086 179.41298831 -321.31780052 179.44482613 C-324.93711648 179.47393428 -328.55530919 179.47406609 -332.17466545 179.45227623 C-334.12824846 179.44766071 -336.08183192 179.47262945 -338.0352478 179.49859619 C-344.64669056 179.42768056 -348.78409527 179.04016464 -353.52495289 174.20094204 C-356.97135355 169.77721769 -356.16757625 164.050677 -355.6796875 158.71875 C-353.68292482 154.16613109 -351.5295288 152.18191991 -346.93618393 150.32453537 C-342.04030098 149.01017288 -336.94334454 149.32659654 -331.91064453 149.36572266 C-329.95496414 149.36240671 -327.99928374 149.35908617 -326.04360366 149.35559249 C-323.95195381 149.35462629 -321.8604353 149.36092914 -319.76880264 149.36919022 C-315.39703956 149.38561974 -311.02554069 149.37705317 -306.65377808 149.36434937 C-295.01003165 149.33429886 -283.36633392 149.33566817 -271.72256839 149.35460222 C-264.0663142 149.36695991 -256.41036135 149.36500707 -248.75414169 149.33621442 C-244.41517322 149.32104003 -240.07702638 149.32837374 -235.73810983 149.35292459 C-232.39446868 149.36542433 -229.051148 149.3453926 -225.70751953 149.33056641 C-223.9211055 149.35057457 -223.9211055 149.35057457 -222.09860229 149.37098694 C-214.92551845 149.3003985 -209.35377984 148.35902151 -203.6796875 143.71875 C-198.74715545 137.50210859 -196.77979219 131.63782874 -197.6796875 123.71875 C-199.75287607 116.82477355 -204.37184367 112.26655497 -210.4682951 108.66090679 C-213.07646454 107.54970439 -215.01145811 107.44845249 -217.84321594 107.41767883 C-218.88722061 107.40192307 -219.93122528 107.3861673 -221.00686646 107.36993408 C-222.14711273 107.36298523 -223.28735901 107.35603638 -224.4621582 107.34887695 C-225.66759781 107.33412827 -226.87303741 107.31937958 -228.11500549 107.30418396 C-232.11182528 107.25959997 -236.10848902 107.2312449 -240.10546875 107.20703125 C-241.48699688 107.19761697 -242.86852446 107.18812244 -244.2500515 107.17854881 C-250.0053755 107.14004741 -255.76068508 107.10684799 -261.51611042 107.08817768 C-269.73022505 107.06145869 -277.94275163 107.00415935 -286.15629131 106.90241271 C-291.94849521 106.83315119 -297.74028114 106.79916939 -303.53288907 106.79061288 C-306.9830587 106.78465328 -310.43159363 106.76421353 -313.88131142 106.70604897 C-329.80684995 106.47353052 -340.93895115 106.62301185 -353.6796875 116.71875 C-355.98787069 118.17421498 -358.34061634 119.51073912 -360.71484375 120.859375 C-361.87457801 121.53578911 -363.03346875 122.21365346 -364.19116211 122.89355469 C-365.06005569 123.40130432 -365.06005569 123.40130432 -365.94650269 123.91931152 C-369.09049288 125.7567299 -372.23271695 127.59716414 -375.375 129.4375 C-376.00041183 129.80373474 -376.62582367 130.16996948 -377.27018738 130.54730225 C-383.77109117 134.35555587 -390.26792464 138.17110018 -396.73730469 142.03271484 C-401.41550085 144.82052713 -406.1230646 147.53149508 -410.890625 150.1640625 C-411.91099854 150.73801758 -412.93137207 151.31197266 -413.98266602 151.90332031 C-415.94088957 153.00324243 -417.90979061 154.08443693 -419.89038086 155.14355469 C-421.20341187 155.88847168 -421.20341187 155.88847168 -422.54296875 156.6484375 C-423.70759644 157.28628174 -423.70759644 157.28628174 -424.89575195 157.93701172 C-427.62742704 160.66532221 -427.60196689 162.93559246 -427.6796875 166.71875 C-426.72308086 169.7132961 -426.72308086 169.7132961 -425.0234375 172.54296875 C-424.11948242 174.18749023 -424.11948242 174.18749023 -423.19726562 175.86523438 C-422.52488594 177.04565629 -421.85235569 178.22599246 -421.1796875 179.40625 C-420.48957628 180.64930441 -419.80145935 181.89346786 -419.11523438 183.13867188 C-417.68867321 185.72360169 -416.25366663 188.30355774 -414.8125 190.88037109 C-411.52059436 196.78301513 -408.35736057 202.75401483 -405.1796875 208.71875 C-403.94451077 211.0237057 -402.70883049 213.32839162 -401.47265625 215.6328125 C-399.17045737 219.92936858 -396.87420609 224.22897261 -394.58535767 228.53265381 C-393.21846952 231.10219702 -391.84931164 233.67052758 -390.47998047 236.23876953 C-389.82992025 237.45952028 -389.18096394 238.68085961 -388.53320312 239.90283203 C-386.61265665 243.52549804 -384.66531673 247.13134043 -382.6796875 250.71875 C-382.11773682 251.74790527 -382.11773682 251.74790527 -381.54443359 252.79785156 C-380.05968313 255.29887406 -379.15454614 256.55948435 -376.35180664 257.49951172 C-373.10340403 257.7660321 -371.83345562 257.13150903 -369.0390625 255.5 C-367.69835693 254.73018799 -367.69835693 254.73018799 -366.33056641 253.94482422 C-364.89463135 253.09041748 -364.89463135 253.09041748 -363.4296875 252.21875 C-362.4298584 251.64012207 -361.4300293 251.06149414 -360.39990234 250.46533203 C-354.86798145 247.24702493 -349.38924725 243.94371171 -343.921875 240.6171875 C-342.81618164 239.94623047 -341.71048828 239.27527344 -340.57128906 238.58398438 C-338.43961526 237.28522467 -336.31364992 235.97703525 -334.19433594 234.65820312 C-333.21239258 234.05685547 -332.23044922 233.45550781 -331.21875 232.8359375 C-330.36490723 232.30597168 -329.51106445 231.77600586 -328.63134766 231.22998047 C-320.1302666 226.87748322 -312.68041453 226.32227946 -303.19287109 226.48925781 C-301.85317694 226.501587 -300.51346874 226.51246129 -299.17375183 226.52200317 C-296.305757 226.54491197 -293.43805679 226.57680522 -290.57023239 226.61551666 C-286.03100236 226.67552785 -281.49183057 226.70776413 -276.95230103 226.73504639 C-264.04986179 226.81650898 -251.1478988 226.93027723 -238.24609375 227.08203125 C-231.10738847 227.16575791 -223.96892173 227.22421757 -216.8297888 227.25535846 C-212.32082748 227.27648268 -207.81365555 227.32869334 -203.3052938 227.40419817 C-200.49805974 227.44378259 -197.69128725 227.4538162 -194.8837986 227.45562363 C-192.97054705 227.4654961 -191.05757503 227.51034017 -189.14485168 227.55636597 C-183.48780366 227.53034288 -179.71650389 227.49459017 -175.55606079 223.40252686 C-174.56764125 222.19832234 -173.60787914 220.9699662 -172.6796875 219.71875 C-171.60377359 218.48308376 -170.52119353 217.25316505 -169.4296875 216.03125 C-168.85734375 215.36738281 -168.285 214.70351563 -167.6953125 214.01953125 C-165.23488441 211.21101934 -162.70991965 208.46414813 -160.1796875 205.71875 C-156.55858823 201.7860862 -152.99009398 197.81660496 -149.48828125 193.77734375 C-146.4018927 190.26432698 -143.23339972 186.82575182 -140.08203125 183.37109375 C-138.11026906 181.19414004 -136.16603413 179.00036326 -134.2421875 176.78125 C-130.81200174 172.83207633 -127.26965232 168.98852695 -123.72680664 165.14086914 C-121.17428297 162.3639863 -118.64993004 159.56902985 -116.1796875 156.71875 C-113.24124685 153.32824156 -110.21852448 150.01908018 -107.1796875 146.71875 C-103.5355181 142.76015277 -99.94054971 138.76698168 -96.4140625 134.703125 C-92.88468036 130.66500309 -89.27334524 126.69960319 -85.6796875 122.71875 C-84.17940071 121.05234149 -82.67939878 119.38567647 -81.1796875 117.71875 C-76.6796875 112.71875 -76.6796875 112.71875 -72.1796875 107.71875 C-71.43976563 106.89632812 -70.69984375 106.07390625 -69.9375 105.2265625 C-68.41260506 103.53282106 -66.88653348 101.84013831 -65.359375 100.1484375 C-61.98056042 96.40310744 -58.61072785 92.65356793 -55.3046875 88.84375 C-51.85184931 84.877001 -48.29091369 81.01192331 -44.72924805 77.14331055 C-41.59436929 73.73260125 -38.51876314 70.280191 -35.4921875 66.7734375 C-34.0995033 65.19466187 -32.67700259 63.64214922 -31.2421875 62.1015625 C-19.02122831 49.01489047 -19.02122831 49.01489047 -15.3515625 32.09765625 C-15.81741384 28.72023402 -17.19525033 26.98397213 -19.6796875 24.71875 C-26.71931217 21.19893766 -31.55484505 24.40246695 -36.5546875 29.21875 Z " fill="#000000" transform="translate(477.6796875,115.28125)"/>
</svg>
