<svg xmlns="http://www.w3.org/2000/svg" fill="none" viewBox="0 0 512 512"><path stroke="currentColor" stroke-miterlimit="10" stroke-width="50" d="m142.744 408.099 74.253 57.485c9.581 9.581 31.138 14.371 45.509 14.371h91.018c28.743 0 59.881-21.557 67.067-50.299l57.485-174.851c11.976-33.533-9.581-62.277-45.509-62.277h-95.809c-14.372 0-26.348-11.976-23.952-28.742l11.976-76.648c4.79-21.556-9.581-45.509-31.138-52.694-19.162-7.186-43.114 2.395-52.695 16.766L142.744 197.32"/><path stroke="var(--accent)" stroke-linecap="round" stroke-linejoin="round" stroke-width="30" d="M20.594 408.096V173.365c0-33.533 14.371-45.51 47.904-45.51H92.45c33.533 0 47.905 11.977 47.905 45.51v234.731c0 33.533-14.372 45.51-47.905 45.51H68.498c-33.533 0-47.904-11.977-47.904-45.51Z"/></svg>