<svg xmlns="http://www.w3.org/2000/svg" fill="none" viewBox="0 0 512 512"><path fill="currentColor" d="M414.759.02c1.199.005 2.398.01 3.634.017 27.238.407 48.03 11.083 67.125 29.873l2.311 2.263c11.687 12.358 18.322 28.511 21.228 45.022l.412 2.318c2.966 18.678 2.389 37.86 2.384 56.707l.012 8.667c.009 6.99.012 13.98.013 20.971.001 5.693.003 11.387.007 17.081.01 16.212.015 32.424.014 48.636V236.855c-.001 14.105.01 28.211.026 42.317.017 14.551.024 29.102.023 43.653 0 8.142.003 16.284.015 24.426.012 7.669.011 15.337.003 23.005-.001 2.791.002 5.582.009 8.373.173 74.522.173 74.522-25.319 102.265l-2.249 2.56c-16.187 17.401-38.131 27.304-61.795 28.475-13.672.363-27.108-.704-40.668-2.326l-5.23-.611c-19.626-2.308-39.221-4.858-58.813-7.433l-5.818-.764c-9.091-1.193-18.182-2.389-27.271-3.59a14765.84 14765.84 0 0 0-31.096-4.073c-8.12-1.057-16.239-2.124-24.357-3.199a4371.13 4371.13 0 0 0-14.418-1.888c-37.086-4.791-70.789-9.914-96.232-39.953-16.347-21.912-23.824-47.762-21.193-75.116 1.524-7.361 4.512-12.188 10.379-16.863 6.894-4.235 13.575-4.405 21.481-3.585 6.694 1.928 10.896 5.582 14.792 11.36 3.014 6.779 3.841 12.238 3.911 19.595.405 12.229 2.445 22.4 10.574 31.954 1.444 1.842 1.444 1.842 2.582 5.25 2.071 1.209 2.071 1.209 4.551 2.272a670.228 670.228 0 0 1 7.827 5.072c10.707 5.257 22.828 6.291 34.521 7.796l5.494.73c4.94.655 9.883 1.3 14.825 1.943 5.201.678 10.4 1.366 15.599 2.052 8.736 1.153 17.472 2.299 26.209 3.44a35239.7 35239.7 0 0 1 36.784 4.832 68425.207 68425.207 0 0 0 49.46 6.496l5.304.695c9.043 1.187 18.089 2.34 27.145 3.42l2.372.286c20.106 2.366 38.04 3.605 54.608-9.166 11.605-10.438 13.542-24.203 14.551-38.956.147-4.4.159-8.795.153-13.197l.007-3.845c.008-4.22.007-8.441.006-12.661l.011-9.116c.01-7.38.013-14.76.014-22.139 0-6.005.002-12.009.006-18.014.01-17.058.015-34.116.014-51.175V275.886c0-14.884.011-29.769.027-44.653.016-15.317.024-30.634.023-45.952-.001-8.585.003-17.171.015-25.757.01-7.311.013-14.622.005-21.933-.004-3.723-.003-7.445.006-11.168 1.266-34.738 1.266-34.738-14.292-64.32-13.408-11.638-26.396-12.04-43.545-10.993-9.526.67-18.99 1.981-28.458 3.202l-7.082.898c-8.037 1.022-16.072 2.06-24.106 3.1l-6.777.874a18795.353 18795.353 0 0 0-57.021 7.447c-9.568 1.265-19.137 2.52-28.707 3.765-6.871.894-13.739 1.799-20.607 2.71-4.051.537-8.101 1.07-12.154 1.592-4.478.578-8.954 1.175-13.429 1.775l-3.931.497c-12.272 1.675-23.894 4.214-33.961 11.705-2.053 1.442-2.053 1.442-5.467 2.578-1.203 2.093-1.203 2.093-2.276 4.544a316.12 316.12 0 0 1-3.342 4.686c-5.949 8.981-7.033 17.131-7.396 27.689-.332 9.032-.787 17.19-7.062 24.26-6.739 6.17-12.997 7.512-22.015 7.335-6.799-.706-10.905-3.317-15.725-8.023-4.894-7.258-6.468-13.902-6.258-22.578l.041-2.699c.67-27.992 10.383-51.867 30.107-71.805 20.63-19.164 45.986-25.278 73.045-28.766l5.715-.763c5.117-.683 10.236-1.353 15.355-2.02 5.397-.706 10.794-1.424 16.19-2.14 9.062-1.2 18.125-2.392 27.189-3.58 11.567-1.515 23.133-3.043 34.698-4.575a42360.43 42360.43 0 0 1 30.07-3.97l9.548-1.261C397.186-.081 397.186-.081 414.759.02Z"/><path fill="var(--red-6)" d="m244.119 133.098 3.374-.098c10.02 1.428 16.271 7.881 23.094 14.767l2.983 2.955c2.679 2.659 5.347 5.329 8.01 8.004 2.8 2.808 5.611 5.606 8.421 8.405a6268.4 6268.4 0 0 1 14.118 14.128 5001 5001 0 0 0 16.298 16.273c4.689 4.664 9.369 9.336 14.042 14.016a2993.69 2993.69 0 0 0 8.366 8.35c3.118 3.099 6.216 6.216 9.313 9.335l2.784 2.753c5.924 6.008 10.621 11.637 12.078 20.198l-.036 3.276.036 3.276c-1.692 9.941-7.96 16.125-14.862 22.951l-2.958 2.979a2014.769 2014.769 0 0 1-8.012 8.002c-2.812 2.797-5.612 5.606-8.414 8.412a6485.338 6485.338 0 0 1-14.143 14.104 5000.997 5000.997 0 0 0-16.29 16.281 5622.559 5622.559 0 0 1-14.03 14.027 2994.044 2994.044 0 0 0-8.359 8.358c-3.102 3.114-6.222 6.21-9.345 9.303l-2.755 2.781c-6.014 5.918-11.649 10.611-20.219 12.066-9.551-.104-15.567-1.566-22.459-8.298-4.571-6.785-7.265-13.611-5.917-21.936 2.696-10.002 10.059-16.483 17.236-23.473 1.248-1.236 2.494-2.473 3.74-3.712a2128.24 2128.24 0 0 1 9.812-9.661c3.352-3.29 6.688-6.596 10.025-9.902a6076.1 6076.1 0 0 1 19.647-19.348l-4.019-.008a74391.21 74391.21 0 0 1-94.482-.253l-11.634-.038-2.339-.008c-12.494-.04-24.988-.068-37.481-.092-12.824-.025-25.648-.063-38.471-.112a7778.53 7778.53 0 0 0-21.604-.056c-6.779-.007-13.558-.03-20.336-.064-2.487-.01-4.974-.015-7.461-.013-3.399.002-6.797-.017-10.196-.041l-2.973.017c-8.71-.102-16.433-2.102-22.785-8.448-4.832-6.979-6.565-13.188-5.704-21.652 1.615-6.442 4.276-12.252 9.893-16.132 5.119-3.06 9.343-4.516 15.246-4.539l2.761-.019 3.013-.003 3.216-.017c3.565-.018 7.13-.027 10.694-.037l7.655-.034c6.936-.031 13.872-.055 20.808-.077 7.246-.025 14.491-.057 21.736-.087 12.164-.051 24.328-.097 36.492-.141a78534.876 78534.876 0 0 0 39.926-.151l11.623-.047c32.14-.13 64.281-.252 96.422-.368l-2.143-2.102a6298.57 6298.57 0 0 1-19.99-19.713 2804.962 2804.962 0 0 0-10.278-10.132 1949.778 1949.778 0 0 1-9.918-9.798 662.763 662.763 0 0 0-3.784-3.718c-7.988-7.793-13.551-13.589-14.846-25.049.315-6.66 2.546-13.201 6.942-18.26 5.615-5.021 10.828-7.28 18.439-7.38Z"/></svg>