<svg xmlns="http://www.w3.org/2000/svg" fill="none" viewBox="0 0 512 512"><path fill="#000" d="M362.047 16.942c18.268-.065 37.079.424 54.273 7.329l2.628 1.014c12.807 5.115 23.88 12.106 34.368 21.079l1.895 1.485c16.797 13.186 28.673 34.757 34.754 54.968l.645 2.134c3.542 12.764 4.285 25.816 4.259 38.994a3056.384 3056.384 0 0 1 .03 17.134c-.001 3.499.005 6.998.01 10.497.012 8.27.013 16.541.006 24.812-.007 8.473.007 16.945.031 25.418.02 7.327.026 14.654.023 21.981-.002 4.352 0 8.705.016 13.057.14 42.385-6.262 77.634-36.373 109.212l-.729.697c-15.37 14.577-34.049 24.843-54.732 29.76l-2.244.563-1.015.212c-10.485 2.122-21.059 1.782-31.725 1.776l-6.876.022-7.373.021c-2.458.005-4.916.008-7.373.011-7.777.007-15.555.031-23.332.058l-26.862.075c-8.954.022-17.908.04-26.862.059-16.425.034-32.851.072-49.276.129a9426.6 9426.6 0 0 1-23.18.049c-4.809.006-9.618.023-14.427.041l-6.675.008c-3.044-.002-6.089.01-9.133.026l-2.647-.011c-7.282.061-14.692.413-20.558 5.017-2.571 3.297-4.538 6.542-6.467 10.252l-1.085 2.062c-.761 1.449-1.516 2.9-2.268 4.353l-2.371 4.551a4783.902 4783.902 0 0 0-4.759 9.06l-1.609 3.05c-3.774 7.106-7.673 14.139-11.629 21.147-1.243 2.206-2.476 4.417-3.709 6.628l-2.378 4.23-2.047 3.646-.622.987c-6.511 10.039-15.612 15.312-27.011 18.994l-1.214.273c-12.555 2.675-25.354.596-36.41-5.988-11.35-7.803-18.634-18.057-21.804-31.305l-.294-1.292c-.877-5.426-.786-10.848-.767-16.332l-.012-3.996c-.01-3.636-.01-7.272-.005-10.908.001-1.966-.001-3.932-.004-5.898l-.012-5.897c-.014-7.696-.016-15.392-.014-23.088l-.005-18.789c0-.893 0-1.787-.002-2.707 0-1.815-.002-3.63-.003-5.444-.012-17.01-.01-34.021-.003-51.031.003-7.76 0-15.52-.004-23.281l-.024-23.282c-.021-15.97-.031-31.94-.027-47.909.001-4.477.001-8.953-.001-13.429l-.015-13.429c-.013-7.627-.015-15.254-.002-22.882.004-1.941.006-3.883.005-5.824l-.01-5.824c-.115-41.089-.114-41.089 7.327-59.629l1.014-2.628c5.113-12.81 12.101-23.888 21.072-34.38l1.485-1.894c13.182-16.803 34.746-28.683 54.95-34.766l2.133-.645c15.736-4.37 31.6-4.282 47.782-4.261 2.494-.005 4.989-.01 7.483-.017 3.367-.007 6.735-.012 10.102-.013l27.029-.01c7.043-.006 14.085-.009 21.127-.009l21.126.005c6.091.003 12.182.001 18.273-.004l18.273-.024c6.28-.011 12.559-.018 18.838-.023l18.838-.004c7.03.002 14.061 0 21.091-.016 3.309-.007 6.618-.01 9.928-.01l9.927.013c2.413.002 4.825 0 7.238-.01Zm.114 29.999h.001c-2.465.01-4.927.013-7.386.01h-.032c-6.582-.014-13.156-.017-19.725-.003h.001c-7.065.016-14.123.02-21.166.017-6.269-.002-12.539 0-18.808.004l-18.807.023c-12.195.02-24.401.034-36.612.028-7.038-.004-14.075-.006-21.11-.005l-21.1.01c-5.639.005-11.299.01-16.962.01h-.006a7610.563 7610.563 0 0 0-27.616.029h-.097c-16.828-.022-28.437.084-39.457 3.096l-1.726.523-.023.007-.022.007C94.983 55.67 79.654 64.874 71.512 75.252l-1.475 1.883-.396.504-.416.487c-7.067 8.266-12.215 16.529-15.968 25.9l-.933 2.418-.071.184-.075.184c-3.84 9.571-4.187 10.797-4.561 13.844-.625 5.085-.667 12.899-.606 34.507.013 3.956.012 7.896.005 11.802v.003a6476.88 6476.88 0 0 0 .001 22.777c.016 8.98.02 17.955.017 26.917-.004 15.952.006 31.907.027 47.861.022 15.532.033 31.071.028 46.615-.007 17.005-.01 34.004.003 50.997a30135.813 30135.813 0 0 1 .006 8.151l.004 18.822c-.002 7.682 0 15.351.014 23.013.008 3.911.018 7.896.016 11.88v.019c-.005 3.607-.006 7.195.004 10.772l.013 3.996v.202c-.02 5.663-.017 8.397.276 10.695 1.31 5.356 3.864 9.239 8.739 12.806 4.154 2.242 8.758 2.968 13.496 2.073 3.384-1.174 5.414-2.241 6.723-3.143 1.164-.802 2.127-1.721 3.083-3.191l1.692-3.013.008-.013.007-.013 2.366-4.209c1.215-2.181 2.465-4.421 3.731-6.668l.005-.008.004-.008c4.443-7.872 8.725-15.616 12.793-23.378.796-1.519 1.593-3.037 2.391-4.554l.002-.005c1.606-3.055 3.147-5.98 4.661-8.907l1.172-2.257c.392-.753.785-1.506 1.18-2.258l.006-.01.005-.01 1.085-2.062c2.515-4.825 5.416-9.675 9.358-14.733l2.256-2.893 2.886-2.265c14.903-11.693 32.453-11.359 38.826-11.413l.189-.002.189.001 2.503.01c3.016-.015 6.081-.027 9.163-.025h.005c2.18.001 4.361-.002 6.543-.008l7.239-.025c2.417-.007 4.838-.013 7.261-.016h.013c7.705-.007 15.407-.022 23.105-.048l24.664-.073c8.22-.021 16.438-.04 24.653-.057l26.852-.059c8.946-.021 17.889-.045 26.831-.075l11.689-.036c3.901-.01 7.808-.019 11.716-.022 4.89-.005 9.778-.015 14.663-.032l6.9-.022h.106c12.341.007 19.228.185 25.969-1.225l1.883-.47.178-.042c15.464-3.677 29.482-11.364 41.131-22.448 21.992-23.326 27.767-49.176 27.64-87.926l-.015-6.605c-.002-2.197-.002-4.389-.001-6.575.003-7.298-.003-14.593-.023-21.883l-.027-12.754c-.006-4.254-.008-8.512-.004-12.771.007-8.253.006-16.501-.006-24.744l-.01-16.76c-.001-2.051-.005-4.096-.012-6.138l-.017-4.685-.001-.076v-.076c.024-12.099-.699-21.872-3.095-30.647l-.523-1.733-.007-.022-.007-.024c-4.974-16.533-14.176-31.869-24.551-40.013l-1.882-1.476-.503-.395-.488-.416c-8.268-7.074-16.533-12.225-25.907-15.979l-2.397-.927-.185-.071-.184-.073c-11.145-4.476-24.506-5.235-42.979-5.17Z"/><path fill="#000" d="M204.221 270.4c5.685.001 10.714 2.267 14.933 6.22 4.623 4.16 7.187 9.465 7.187 15.64 0 6.077-2.626 11.275-7.187 15.38l-.063.056-.065.056c-4.492 3.818-9.753 5.847-15.586 5.848-5.416 0-10.254-2.239-14.4-5.949l-.124-.111-.118-.117c-4.272-4.272-6.438-9.623-6.438-15.683 0-5.685 2.143-10.662 6.165-14.64l.396-.382c4.296-4.067 9.462-6.318 15.3-6.318Zm139.073 0c5.72.001 10.777 2.294 15.012 6.292 4.572 4.15 7.108 9.428 7.108 15.568 0 6.077-2.626 11.275-7.186 15.38l-.063.056-.065.056c-4.493 3.818-9.753 5.847-15.585 5.848-5.417 0-10.255-2.239-14.402-5.949l-.124-.111-.118-.117c-4.272-4.272-6.436-9.623-6.436-15.683 0-5.868 2.282-10.983 6.559-15.022 4.296-4.067 9.463-6.318 15.3-6.318ZM197.98 103.74c19.824 0 36.074 4.826 47.913 15.283 11.945 10.552 17.627 25.251 17.628 43.237 0 6.335-.961 12.641-2.858 18.9-1.83 6.039-4.202 12.052-7.103 18.037l-.016.033-.017.034a207.071 207.071 0 0 1-9.638 17.136 1276.792 1276.792 0 0 1-9.888 15.87l.001.001c-4.691 7.47-8.72 13.316-12.061 17.413-3.75 4.837-8.724 8.016-14.86 8.016-4.363 0-8.502-.989-11.996-3.407l-.123-.086-.119-.092c-3.571-2.747-5.723-6.601-5.723-11.255 0-1.78.099-3.628.29-5.537.276-2.761 1.31-5.295 2.813-7.57 2.034-4.365 4.87-9.466 8.453-15.266l.033-.053.034-.053a566 566 0 0 0 11.32-18.268c3.691-6.207 6.866-12.392 9.531-18.554 2.541-5.878 3.667-10.951 3.667-15.299 0-7.312-2.405-11.889-6.588-14.877l-.079-.058-.078-.059c-4.442-3.397-11.438-5.526-21.835-5.526-5.321 0-9.068.657-11.552 1.651l-.122.048-.124.044c-2.789.977-4.869 2.215-6.404 3.607-1.712 1.722-3.094 3.461-4.182 5.21a225.558 225.558 0 0 1-3.634 6.483 22.834 22.834 0 0 1-6.333 7.029l-.044.033-.045.03c-3.067 2.147-6.752 2.905-10.461 2.905-4.974 0-10.364-1.153-13.639-5.52l-.069-.091-.064-.094c-2.45-3.538-3.407-7.789-3.407-12.255 0-8.989 3.31-17.213 9.447-24.548l.602-.707c1.973-2.354 4.355-4.719 7.101-7.099l.072-.063.074-.059c3.103-2.521 6.624-4.799 10.531-6.852l.822-.438c4.134-2.154 8.769-3.823 13.854-5.054 5.626-1.536 11.942-2.26 18.876-2.26Zm145.314-.78c1.952 0 3.874.179 5.668.643 2.851.485 5.189 2 6.948 4.052 1.846 2.154 2.933 4.829 3.585 7.568.761 2.569 1.196 5.728 1.412 9.303l.082 1.604v.01l.001.009c.347 9.011.693 17.848 1.039 26.511.35 8.747.525 17.494.525 26.24 0 4.353-.086 8.308-.261 11.86-.003 3.465-.09 6.93-.261 10.395a118.313 118.313 0 0 1-.53 10.899c-.171 3.59-.341 7.609-.512 12.056l-.002.036-.002.034c-.187 3.753-.666 7.149-1.557 10.045l-.021.066-.021.066c-.854 2.561-2.042 4.97-3.738 6.948-1.645 1.919-3.68 3.41-6.088 4.313l-.226.085-.232.067c-1.859.53-3.818.749-5.809.75-4.255-.001-8.378-1.214-11.523-4.358l-.1-.1-.097-.106c-2.886-3.175-4.436-7.838-5.359-12.823l-.021-.107-.015-.107c-.747-5.039-1.188-11.65-1.364-19.729-.174-8.033-.261-18.221-.261-30.55 0-9.915.087-19.572.261-28.971l.001-.056.002-.055c.348-9.38.696-17.303 1.045-23.762.186-3.774.61-7.143 1.361-9.984.708-2.68 1.85-5.442 3.862-7.54l-.001-.001c3.238-3.508 7.448-5.311 12.209-5.311Z"/></svg>