<svg xmlns="http://www.w3.org/2000/svg" fill="none" viewBox="0 0 512 512"><path fill="var(--surface-4)" fill-rule="evenodd" d="M74.821 104.552c2.961 0 3.833-1.394 4.53-7.49.783-6.967 1.306-7.75 5.66-7.49 4.964.349 12.106-1.916 15.154-4.703 3.222-3.048 4.702-6.88 5.747-14.543.436-3.484 1.655-11.583 2.613-18.028 2.874-19.682 2.091-24.56-4.964-30.394-3.483-2.874-7.228-3.92-20.292-5.4-14.543-1.567-21.075-2.351-33.964-3.745-6.968-.784-13.761-1.567-15.242-1.741-1.393-.261-4.44.087-6.618.696-8.273 2.178-12.193 7.316-13.76 17.94-.436 3.136-1.742 11.323-2.787 18.29-2.786 17.766-2.787 23.078.348 27.781 3.658 5.487 7.142 6.706 27.607 9.231 10.016 1.22 18.551 2.7 19.596 3.397.958.697 4.18 4.094 6.967 7.577 7.054 8.621 6.967 8.622 9.405 8.622Zm1.916-1.655c-1.219 1.829-3.222.348-8.796-6.445-9.318-11.321-8.709-10.972-25.169-12.714-22.468-2.439-25.516-3.223-29.435-7.926-4.093-4.79-4.094-6.619.696-37.361 1.22-7.838 2.874-15.589 3.658-17.244 1.655-3.57 5.66-6.793 9.841-7.925 4.093-1.133 3.92-1.132 12.28-.174A757.756 757.756 0 0 0 54.53 14.85c41.628 4.703 45.286 5.4 49.902 9.492 2.525 2.09 4.093 6.794 4.093 11.845 0 4.965-3.745 33.181-5.312 39.8-1.829 8.099-6.271 11.234-16.373 11.67-3.57.174-6.88.696-7.316 1.131-.435.436-1.132 3.571-1.567 6.967-.435 3.484-.958 6.619-1.22 7.142Z" clip-rule="evenodd"/><path fill="currentColor" d="M361.083 42.719c-12.019 2.177-23.428 15.502-37.797 44.241l-4.006 8.1-6.706-3.571c-6.358-3.484-11.583-5.574-17.244-7.054-1.393-.349-4.79-1.22-7.403-1.916-19.682-5.226-37.1-6.532-50.076-3.745-21.772 4.703-32.746 8.36-42.064 14.108-4.529 2.7-8.187 4.703-8.361 4.53-.087-.088-3.483-6.88-7.489-15.067-7.229-14.718-12.28-21.86-21.773-30.917-6.096-5.748-16.024-7.228-23.949-3.397-3.136 1.481-8.535 9.232-10.364 14.893-1.742 5.486-4.529 19.769-6.096 31.613-1.394 10.451-.784 27.695 1.306 33.53 3.484 9.928 12.454 20.901 20.031 24.385 2.351 1.132 4.267 2.438 4.267 2.961 0 .522-1.132 4.441-2.613 8.621-1.393 4.268-2.612 8.622-2.612 9.842 0 2.699-4.093 14.892-6.097 18.201-3.222 5.226-4.441 10.625-4.093 17.679.349 5.661.958 7.838 3.919 13.935 4.268 8.709 10.19 17.243 16.199 23.514 7.49 7.838 24.385 16.895 36.229 19.421l4.529.958-2.09 2.177c-2.961 3.222-5.574 4.267-13.064 5.487-5.312.871-7.925.871-12.192 0-10.799-2.091-18.202-7.142-25.343-17.244-6.706-9.493-8.971-11.322-15.067-12.628-3.222-.61-6.27-1.916-8.012-3.397-3.484-2.961-8.012-3.831-12.367-2.525-4.528 1.306-5.05 3.222-1.742 6.619 1.394 1.48 2.613 3.048 2.613 3.57 0 .436-3.048 2.787-6.793 5.313-19.247 12.715-41.977 37.274-56.172 60.701-8.97 14.718-17.593 35.01-20.989 49.293-6.01 25.517-6.096 39.8-.435 45.547 4.18 4.094 7.49 2.178 12.453-7.228 5.835-10.973 19.073-20.379 31.962-22.643 13.412-2.352 28.217 5.486 36.49 19.159 4.007 6.619 8.013 10.625 9.929 9.929.696-.262 3.222-4.529 5.748-9.58 3.657-7.316 5.312-9.754 8.534-12.193 4.094-3.135 5.4-2.874 5.4 1.045 0 3.136 4.354 10.712 7.925 13.76 7.229 6.184 17.07 6.097 24.385-.261 4.18-3.483 6.009-7.315 6.009-12.279v-3.484l2.178 1.393c1.916 1.22 2.177 2.004 2.177 6.445 0 2.787.696 8.274 1.48 12.28 1.132 5.835 1.481 12.802 1.481 34.574l.087 27.259-3.135 2.787c-6.184 5.487-8.883 13.15-6.88 20.031 1.654 6.009 5.835 9.841 12.018 11.147 1.742.348 4.79 1.045 6.706 1.568 1.916.522 10.189.958 18.376.958 18.114 0 23.601-1.307 30.046-7.229 6.88-6.27 8.186-10.276 10.015-32.397.261-2.439 1.045-7.925 1.916-12.193l1.48-7.838 3.484.262c17.766 1.132 20.727 1.219 21.424 0 .697-.958.871-.958 1.567.087 1.568 2.525 3.571 14.108 4.355 26.214 1.219 18.201 3.309 22.207 14.457 27.694 9.231 4.529 13.586 5.051 37.884 4.18 8.709-.348 18.376-3.135 21.946-6.357 4.355-3.919 5.574-10.973 3.31-18.899-1.22-4.615-5.487-9.492-10.19-12.018l-2.787-1.393v-10.799c-.087-5.835.262-14.806.784-19.857.436-5.051 1.481-17.244 2.264-27.259 1.481-17.156 2.265-20.901 3.484-15.589 1.393 6.358 4.616 10.451 9.841 12.541 3.222 1.219 11.931.871 14.805-.522 3.048-1.655 8.448-7.577 10.277-11.409l1.48-3.048 2.526 6.793c2.961 7.751 4.441 9.754 7.228 9.754 2.178 0 5.922-4.268 8.883-10.19 4.094-8.012 14.893-15.589 25.256-17.766 6.968-1.393 14.893.087 21.947 4.267 9.318 5.487 12.715 9.058 16.982 18.028 3.397 7.141 4.181 8.186 6.532 8.709 3.135.697 6.096-.958 8.448-4.529 1.306-1.916 1.567-4.267 1.48-12.454-.087-21.511-5.835-42.848-18.724-69.323-12.193-24.907-30.481-47.028-53.734-64.794l-10.712-8.187 2.525-2.438c3.049-2.787 2.874-5.226-.348-6.706-4.703-2.09-12.105-.697-15.066 2.874-.697.784-2.178 1.393-3.397 1.393-4.703 0-9.144 3.223-14.457 10.538-10.799 14.805-16.808 18.899-28.391 19.682-6.357.436-6.793.436-9.667-2.09-1.654-1.393-3.832-3.135-4.964-3.919-1.916-1.306-1.829-1.393 3.484-3.222 24.385-8.535 38.493-18.986 47.986-35.794 6.619-11.496 8.448-16.895 8.448-24.82 0-5.835-.262-6.793-5.052-16.199-3.396-6.793-5.573-12.454-6.618-17.331-.871-4.006-2.526-9.928-3.658-13.237-2.613-7.316-2.613-8.1-.087-9.754 4.528-3.223 11.409-10.886 13.673-15.328 4.441-8.796 6.27-17.418 6.183-29.088-.087-18.463-4.877-43.545-9.928-52.166-4.093-6.88-11.06-10.538-18.027-9.319Zm9.231 3.135c3.484 1.655 8.273 8.1 9.667 12.977.522 1.915 1.568 5.66 2.351 8.36 3.832 13.412 6.01 41.28 4.006 50.251-3.222 13.847-8.796 22.991-18.114 29.61l-2.613 1.916-2.7-5.748c-1.48-3.222-2.961-5.661-3.135-5.399-.261.261.349 1.916 1.219 3.832 3.31 6.705 7.403 19.072 10.451 31.7 1.132 4.355 3.832 11.235 6.619 16.808 4.267 8.448 4.79 9.928 4.79 14.805-.087 7.055-2.352 13.761-8.448 24.386-7.054 12.453-15.937 20.553-30.133 27.694-20.466 10.364-39.887 13.325-87.699 13.412-29.61 0-47.376-.958-60.701-3.484-13.847-2.613-18.289-3.919-27.085-7.925-12.802-5.922-20.292-12.367-28.826-24.995-7.403-10.973-9.58-16.808-9.842-25.691-.174-7.316-.087-7.838 3.397-14.979 3.571-7.403 7.228-18.202 7.228-21.511 0-.958 1.22-5.4 2.613-9.754 1.481-4.442 2.439-8.361 2.264-8.709-.261-.349-2.09-1.22-4.093-1.829-7.838-2.613-18.55-15.851-21.337-26.475-1.393-5.226-1.654-24.647-.348-31.788.435-2.7 1.219-7.838 1.742-11.409 2.177-14.98 8.099-29.523 12.976-32.223 4.006-2.09 9.928-2.525 14.892-1.045 3.832 1.22 5.835 2.613 10.277 7.141 3.048 3.049 6.967 7.577 8.796 10.016 4.441 5.748 18.202 32.832 17.592 34.748-.087.436.958.087 2.264-.784 1.307-.957 3.223-2.09 4.181-2.612.958-.523 3.919-2.352 6.531-4.006 6.097-3.92 20.728-8.97 33.094-11.235 2.177-.435 5.661-1.132 7.838-1.655 2.178-.522 8.361-.87 13.76-.958 11.322 0 30.22 3.31 43.458 7.751 7.228 2.352 21.772 9.319 24.646 11.758 2.613 2.264 3.832 2.351 1.394.087-2.265-2.09-2.352-2.439-1.307-5.051.61-1.568 2.003-4.355 2.961-6.271 1.045-1.916 3.745-7.054 6.097-11.322 2.264-4.354 5.399-9.58 6.793-11.757 4.18-6.096 14.631-16.547 18.463-18.288 4.267-2.09 10.102-2.178 14.021-.349ZM110.265 241.98c5.835 3.223 5.487 6.184-.958 8.1-3.396 1.045-3.396 1.045-7.315-3.135-2.178-2.352-3.92-4.355-3.92-4.529 0-.174.871-.697 2.004-1.132 3.135-1.219 6.967-.958 10.189.696Zm290.443.523c1.655 1.132 1.568 1.393-1.916 4.79-1.916 2.003-3.745 3.571-4.093 3.571-1.219 0-9.231-3.832-9.231-4.442 0-.348 1.306-1.655 2.874-2.874 3.222-2.613 9.579-3.135 12.366-1.045Zm-278.076 4.964c3.919 1.045 7.228 4.355 12.628 12.454 8.36 12.367 23.253 19.334 37.274 17.331 3.396-.523 6.27-.784 6.445-.61.261.261-.871 1.655-2.352 3.222-6.88 7.055-22.469 28.653-30.917 42.848-10.363 17.331-16.808 35.446-18.898 52.689-.697 6.184-1.132 7.577-2.787 8.709-4.267 2.787-8.883 8.535-11.583 14.37-3.483 7.49-4.877 9.406-6.531 8.709-1.307-.435-4.703-5.051-6.793-9.231-4.616-9.145-17.68-17.68-29.872-19.508-13.325-2.004-33.53 9.841-41.02 23.862-3.57 6.793-6.88 9.667-8.97 7.925-3.396-2.787-4.267-6.27-4.18-15.676.262-19.247 6.358-41.716 17.68-64.446 10.276-20.727 20.204-34.226 38.667-52.689 16.547-16.46 29.262-26.127 33.181-25.169 2.352.61 11.757-3.309 11.757-4.79 0-1.219 2.178-1.219 6.271 0Zm261.529-.174c.958 1.655 10.19 5.312 12.106 4.79 1.393-.349 4.267 1.306 11.408 6.706 15.328 11.408 31.962 29.349 44.59 47.812 6.967 10.276 19.421 38.493 22.905 51.818 4.615 18.202 6.444 37.623 4.006 43.545-2.961 6.967-8.883 6.967-11.235.087-4.18-12.193-17.069-23.166-30.481-25.866-8.535-1.742-21.163 1.568-27.782 7.142-5.312 4.528-8.883 8.447-9.928 10.799-1.742 4.093-6.357 10.015-7.751 10.015-1.742 0-4.441-4.616-6.183-10.451-.784-2.613-1.742-5.225-2.177-5.748-.349-.435-.436-3.745 0-7.402 1.48-14.109-2.787-30.046-14.283-53.038-5.138-10.276-17.679-28.913-29.785-44.328l-4.615-5.748 6.967-.958c11.147-1.568 15.937-5.138 26.649-19.508 5.835-7.925 8.883-10.364 13.151-10.451 1.045 0 2.09.348 2.438.784Zm-154.583 23.95c11.234.348 21.859.696 23.514.783 4.615.174 42.325-1.132 48.857-1.654l5.661-.523 3.135 9.406c1.742 5.225 3.483 10.625 3.745 12.105.348 1.394.783 2.177 1.045 1.568.174-.61-1.132-5.661-2.961-11.322s-3.31-10.625-3.31-11.06c0-.436 2.178-1.307 4.79-1.916 4.79-1.132 4.79-1.132 9.145 1.829 7.228 4.79 9.928 7.402 17.766 17.418 7.49 9.667 20.553 28.739 24.733 36.316 3.31 6.009 9.667 20.814 12.977 30.307 2.612 7.664 2.874 9.057 2.874 19.595 0 14.892-2.265 20.814-10.277 26.649-2.787 2.003-4.355 2.526-8.099 2.526-8.274 0-12.454-2.7-14.806-9.754l-1.393-4.354 3.222-2.7c2.961-2.439 7.142-9.841 6.097-10.886-.523-.523-.349-.871-3.049 4.615-2.873 5.748-7.228 8.1-12.279 6.619-4.006-1.219-5.835-3.571-6.532-8.883-.697-5.4.958-10.973 4.442-14.457 3.048-3.048 2.961-3.745-.174-1.567-1.829 1.219-1.829 1.132-3.31-5.487-.784-3.658-3.222-12.193-5.399-18.898-2.178-6.706-5.052-15.502-6.358-19.596a1924.434 1924.434 0 0 1-4.877-15.589c-1.306-4.441-2.613-7.751-2.787-7.228-.348 1.219 3.31 14.021 10.277 35.532 3.309 10.19 6.619 21.599 7.489 25.518 1.394 6.444 1.394 7.489.175 12.541-1.916 7.75-.871 14.108 2.786 17.33 1.481 1.394 3.223 2.439 3.92 2.439 1.567 0 1.567.784.435 13.412-2.613 28.391-3.484 42.151-3.484 52.95v11.931l4.006 2.003c11.322 5.661 14.022 22.731 4.529 28.566-3.832 2.351-4.18 2.264-3.222-1.046 2.177-7.75-.261-16.024-6.706-22.294-2.526-2.439-5.313-4.529-6.009-4.529-.784 0-1.132.348-.871.871.261.435 1.045.871 1.655.871 1.48 0 7.751 6.793 9.579 10.276 3.223 6.184 2.352 16.373-1.567 18.899-2.352 1.393-10.799 2.438-14.631 1.741l-2.874-.522.435-4.964c.871-9.58-2.787-20.64-7.751-23.166-4.093-2.177-16.372-1.393-17.853 1.132-.261.436.958.261 2.787-.435 4.354-1.568 11.06-1.481 14.108.087 1.394.784 3.223 2.525 4.006 4.006 3.223 6.357 4.79 17.331 3.049 21.946-1.133 2.787-5.313 3.484-15.328 2.265-6.271-.697-9.319-1.655-15.241-4.529-7.054-3.483-7.489-3.919-9.841-8.622-2.09-4.354-2.525-6.618-3.222-17.418-.784-12.889-1.655-18.724-3.658-24.646l-1.132-3.483-10.451.261c-5.748.174-12.454-.087-14.979-.523-2.526-.435-4.442-.522-4.268-.261.175.261-.174 3.222-.87 6.619-1.742 8.883-3.571 21.685-4.268 29.61-.784 8.796-2.874 13.238-8.448 17.766-5.486 4.442-11.147 6.184-20.466 6.184-7.054 0-7.228-.087-7.75-2.265-.784-3.135.174-17.592 1.306-20.727.609-1.393.784-2.7.609-2.874-.261-.261-1.045 1.829-1.915 4.529-1.481 5.312-2.004 16.024-.871 19.334.609 2.003.522 2.003-6.968 2.003-9.928 0-14.108-1.307-15.763-4.703-1.219-2.7-1.219-2.7-.871-.348.349 2.177.175 2.351-1.916 1.828-8.273-2.003-11.495-11.757-7.141-21.424 1.829-4.093 5.313-6.967 11.757-9.841l2.7-1.219-3.048.523-3.048.435.609-12.018c.697-16.547 0-35.097-2.003-48.509-.871-6.183-1.654-12.976-1.654-14.979 0-3.397.261-3.832 2.003-3.832 3.483 0 7.315-3.136 8.883-7.316 1.829-4.79 1.393-9.841-1.394-15.676l-2.003-3.919 2.526-8.97c1.393-4.964 3.571-11.757 4.964-15.067 4.267-10.276 9.057-23.862 12.28-34.835 5.399-18.376 4.267-17.157-2.352 2.612-3.483 10.538-7.751 22.469-9.493 26.563-3.919 9.405-8.447 24.036-8.447 27.171 0 2.7-.958 3.136-2.613 1.133-.61-.697-1.48-1.307-1.916-1.307-.435 0 .61 1.307 2.264 2.961 3.832 3.571 5.748 7.925 5.748 13.238 0 8.883-6.009 14.196-12.628 10.973-2.961-1.48-3.919-2.351-6.096-5.661-2.003-3.135-2.7-2.438-.958 1.045 1.742 3.223 1.829 9.667.174 13.499-2.787 6.619-12.802 11.322-19.595 9.145-20.205-6.445-19.508-39.103 1.481-76.987 11.931-21.424 32.658-48.857 42.848-56.434l5.051-3.832 8.186 1.48c5.226.958 15.328 1.742 28.566 2.091Z"/><path fill="var(--surface-4)" fill-rule="evenodd" d="M354.553 130.592c3.918 6.009 3.919 6.009 6.966 5.313 6.097-1.394 12.368-8.187 15.677-16.896 3.31-8.883 2.873-25.517-1.133-43.632-2.09-9.057-3.657-13.15-6.27-15.937-2.003-2.177-2.438-2.264-4.528-1.045-2.004 1.22-8.971 12.541-11.497 18.811-2.09 5.14-7.489 24.559-7.489 26.911 0 .783.784 1.306 2.003 1.306 1.132 0 2.962 1.045 4.181 2.264 2.874 3.048 2.961 10.626.087 13.674-1.045 1.132-1.916 2.264-1.916 2.612 0 .262 1.742 3.31 3.919 6.619Zm6.619 3.57c-1.742 0-2.875-1.045-5.052-4.354-1.568-2.351-2.874-4.703-2.874-5.139 0-.523.871-2.264 1.829-4.006 2.613-4.441 2.003-10.885-1.393-14.369-1.394-1.48-3.222-2.613-4.18-2.613-1.045 0-1.481-.435-1.22-1.132.261-.697 1.481-5.486 2.787-10.712 3.223-12.976 12.889-32.571 16.112-32.571.522 0 1.654 1.306 2.612 2.786 3.222 5.313 4.529 10.626 7.403 30.743 1.132 7.838 1.22 10.886.436 16.547-1.916 13.063-9.667 24.82-16.46 24.82ZM150.588 143.394c.174.261 1.916-2.264 3.919-5.486 5.051-8.535 5.051-9.494.175-12.89-4.355-3.048-5.836-6.88-4.094-11.061 1.829-4.354 5.487-6.531 8.186-4.79 1.568 1.045 2.178-2.351 1.133-6.531-6.183-23.862-14.544-40.758-20.118-40.758-1.48 0-3.048.784-4.093 2.177-2.525 3.222-5.835 16.025-8.622 33.355-2.438 15.154.174 26.214 8.274 34.488 3.919 4.093 7.924 5.748 13.846 5.748h4.703l-1.829 2.7c-1.044 1.393-1.741 2.786-1.48 3.048Zm4.094-9.493c-2.003 3.396-4.356 3.658-11.323 1.393-8.186-2.613-14.456-12.54-15.414-24.471-.609-8.535.958-18.725 5.922-38.059 2.526-9.84 5.922-11.67 10.276-5.4 4.529 6.62 7.751 13.848 10.799 24.56 4.442 15.415 4.442 14.196.871 14.893-3.744.697-8.099 6.183-8.099 10.276 0 3.571 2.787 7.925 6.096 9.667 3.048 1.568 3.31 3.309.872 7.141Z" clip-rule="evenodd"/><path fill="var(--surface-4)" d="M318.671 127.543c10.625 5.661 13.673 6.009 13.673 1.568 0-3.571-2.09-5.313-15.676-12.541-7.577-4.093-8.883-4.441-11.147-2.786-4.529 3.135-2.003 5.747 13.15 13.759ZM191.085 130.853c.697 3.397 4.181 2.788 13.848-2.351 12.889-6.88 14.195-7.838 14.195-10.886 0-2.352-1.916-4.355-4.093-4.355-.348 0-4.79 2.265-9.842 5.052-14.281 7.837-14.979 8.534-14.108 12.54Z"/><path fill="var(--accent)" fill-rule="evenodd" d="M293.937 184.239c6.183 13.934 25.343 20.902 39.887 14.457 6.357-2.787 8.447-7.054 8.795-18.376.262-7.141 0-9.058-1.916-14.196-6.357-16.982-20.465-26.213-33.703-21.946-5.486 1.742-11.583 7.316-13.586 12.454-2.351 6.183-2.09 21.685.523 27.607Zm43.457 10.19c-3.049 4.354-14.718 6.531-23.078 4.267-4.616-1.306-4.79-2.352-.436-3.049 4.006-.609 9.841-5.312 11.844-9.58 1.742-3.744 1.829-11.756.088-15.936-4.877-11.67-20.031-15.154-28.13-6.532-1.655 1.654-3.31 3.919-3.658 4.877-1.394 3.396-.958-4.964.522-9.841 3.397-11.583 16.635-16.983 28.392-11.496 9.405 4.267 17.33 16.982 18.723 29.61.523 5.661-1.393 13.674-4.267 17.68Zm-28.565-12.367c-1.741 0-.871-4.093 1.306-6.096 1.219-1.132 2.178-2.787 2.178-3.658 0-2.265-3.833-2.961-6.532-1.219-2.352 1.567-3.919 1.219-3.919-.784 0-1.568 4.093-3.832 7.054-3.919 1.307 0 3.309.784 4.616 1.829 3.222 2.525 2.961 5.573-.784 8.97-1.654 1.567-3.048 3.309-3.049 3.832 0 .609-.347 1.044-.87 1.045Zm.87 4.005c0 1.481-1.915 1.22-2.438-.347-.174-.61.262-1.045 1.046-1.045.783 0 1.392.609 1.392 1.392ZM196.136 201.309c13.325 2.438 30.83-5.487 36.143-16.46 1.741-3.571 2.003-5.487 2.003-14.544l.086-10.451-3.483-5.138c-4.877-7.229-10.451-10.277-19.508-10.625-3.657-.174-7.576 0-8.796.435-9.057 2.961-16.285 9.667-20.814 19.246-2.874 6.097-3.048 7.142-3.048 15.242-.087 8.012.174 9.057 2.525 13.411 2.961 5.312 6.27 7.316 14.892 8.884Zm16.46-2.788c-9.405 2.874-21.423 1.655-26.91-2.612-1.132-.958-2.961-3.919-4.006-6.706-4.442-11.583-.088-27.347 9.928-36.491 6.096-5.574 11.061-7.315 20.118-6.967 5.66.261 7.576.697 10.45 2.526 6.793 4.354 10.887 10.886 10.887 17.244v3.919l-1.742-2.788c-2.874-4.702-8.274-7.576-14.371-7.576-6.705-.087-11.234 2.439-15.24 8.361-2.699 3.919-3.048 5.051-3.048 10.189 0 5.051.349 6.357 2.961 10.363 2.874 4.529 5.225 6.271 11.322 8.449l3.135 1.045-3.484 1.044Zm4.354-16.459c-2.002-.001-1.567-2.526.872-5.4 2.525-2.961 2.525-4.79.174-6.27-1.132-.697-2.09-.61-4.18.522-3.397 2.003-4.268 2.003-4.268-.174 0-2.003 3.745-4.267 7.055-4.354 1.306 0 3.309.783 4.441 1.741 1.219.958 2.438 2.438 2.699 3.396.436 1.916-2.263 6.881-4.179 7.578-.697.348-1.307 1.044-1.307 1.741 0 .697-.61 1.22-1.307 1.22Zm0 5.225c-.696 0-1.305-.61-1.305-1.307 0-.696.609-1.306 1.305-1.306.697 0 1.307.61 1.307 1.306 0 .697-.61 1.307-1.307 1.307Z" clip-rule="evenodd"/><path fill="var(--surface-4)" d="M256.488 185.197c-8.97 2.7-12.454 10.363-7.054 15.24 6.183 5.661 13.237 7.751 20.814 6.097 12.802-2.787 18.724-11.061 12.454-17.331-5.052-5.051-16.983-6.88-26.214-4.006ZM260.495 220.12c-5.225 2.786-9.754 10.015-8.709 14.021.697 2.787 3.745 3.658 13.063 3.658 11.409 0 14.37-1.307 14.37-6.358 0-3.309-1.916-6.793-5.661-10.102-3.57-3.135-8.621-3.571-13.063-1.219Zm8.709.261c1.219.522.435.784-3.048.784-3.484 0-4.268-.262-3.048-.784.958-.436 2.351-.784 3.048-.784.696 0 2.09.348 3.048.784Zm2.874 13.15c1.045.697 1.916 1.481 1.916 1.829 0 .958-17.592.871-18.986 0-1.045-.696.262-1.654 4.181-3.135 2.177-.784 10.886.087 12.889 1.306ZM327.294 102.462c.871.871 1.742 1.306 2.091 1.045.261-.348-.437-1.045-1.569-1.567-1.915-1.045-1.915-1.045-.522.522ZM336.091 109.342c1.393 1.306 2.699 2.176 2.874 1.916.261-.261-.871-1.306-2.439-2.351l-2.874-2.003 2.439 2.438ZM160.082 112.39c0 1.219.174 1.655.436 1.045.174-.523.174-1.567 0-2.177-.262-.522-.436-.087-.436 1.132ZM160.256 127.196c.174-.001 1.22-1.22 2.265-2.613 2.003-2.874 1.915-3.484-.175-1.132-1.655 2.003-2.7 3.745-2.09 3.745ZM146.844 150.883c.087.61.871-.348 1.829-2.177.958-1.916 1.567-3.57 1.306-3.832-.175-.26-1.045.785-1.742 2.265-.783 1.393-1.393 3.134-1.393 3.744ZM258.578 179.188c.784.174 2.003.174 2.612 0 .523-.261-.086-.436-1.567-.436-1.393 0-1.916.175-1.045.436ZM286.188 184.587c2.089.958 2.089.958.522-.261-1.393-1.133-4.268-2.09-3.049-1.045.174.174 1.307.784 2.527 1.306ZM243.429 184.674c.435 0 1.132-.436 1.393-.871.261-.522.174-.871-.348-.871-.436 0-1.133.349-1.394.871-.261.436-.174.871.349.871ZM290.541 187.286c.958.523 1.741.697 1.741.523 0-.261-.783-.871-1.741-1.394-.958-.522-1.742-.696-1.742-.522 0 .261.784.871 1.742 1.393ZM294.462 189.813c1.654 1.915 4.789 4.005 4.79 3.309 0-.261-1.481-1.48-3.223-2.874-2.699-2.003-2.961-2.09-1.567-.435ZM229.493 193.122c-1.132 1.394-1.046 1.48.348.348 1.393-1.132 1.829-1.828 1.133-1.828-.175 0-.871.697-1.481 1.48ZM206.413 275.856c-.435 1.48-.435 1.48.523 0 .522-.871.783-2.003.522-2.613-.261-.783-.436-.783-.436 0a26.244 26.244 0 0 1-.609 2.613ZM204.326 282.127c.087 1.132.262 1.133.958-.174.958-1.654.697-2.874-.348-1.742-.349.262-.61 1.133-.61 1.916ZM275.564 442.285c1.568.522 6.619-1.306 15.676-5.574 4.529-2.09 8.535-3.832 8.971-3.832.435 0 .784-.435.784-.871 0-.522-.088-.87-.175-.783-.176.001-3.223 1.394-6.793 3.048-3.57 1.654-9.406 4.093-12.976 5.312-3.57 1.306-6.008 2.525-5.487 2.7ZM221.74 434.185c0 .958 18.115 8.709 18.812 8.1.173-.262-2.701-1.743-6.358-3.31-3.744-1.568-8.099-3.396-9.58-4.006-1.567-.696-2.872-1.045-2.874-.784ZM326.509 469.369c1.829 0 1.829-.087.175-.784-2.439-1.045-3.223-1.044-2.614 0 .262.436 1.394.872 2.439.784ZM177.326 481.737c0 .696.784-.088 1.829-1.743 3.571-5.921 8.622-8.883 16.46-9.667l5.66-.609-5.224-.087c-3.31 0-6.533.523-8.797 1.568-3.571 1.567-9.928 8.273-9.928 10.538ZM222.96 478.252c1.219 1.481 2.265 2.352 2.265 1.916 0-1.48-4.79-5.747-8.187-7.315-2.003-.871-4.964-1.568-6.619-1.568-2.613.088-2.351.174 1.742 1.132 5.922 1.307 7.925 2.352 10.799 5.835ZM202.582 475.64c0 .435.436.609.871.348.523-.262.871-.697.871-.958 0-.174-.349-.348-.871-.348-.435 0-.871.435-.871.958ZM175.671 486.352c0 1.654.087 1.654.871-.262.871-2.09.696-3.135-.349-2.09-.348.262-.609 1.394-.522 2.352ZM174.885 493.407c0 1.393.174 1.915.435 1.045.174-.784.174-2.003 0-2.613-.261-.522-.435.087-.435 1.568Z"/><path fill="var(--surface-4)" fill-rule="evenodd" d="M426.314 206.533c2.613 2.091 4.529 1.568 9.58-2.612 5.487-4.529 10.8-8.361 12.368-8.971.786-.261 7.403-.173 14.804.349 19.769 1.219 23.514 1.132 27.259-.609 6.271-2.961 8.274-7.578 10.19-23.515 3.919-33.181 3.832-35.619-2.09-41.803-4.355-4.528-6.706-5.225-21.947-6.531a3951.111 3951.111 0 0 1-20.031-1.742c-11.495-1.132-31.785-1.828-33.877-1.132-7.228 2.09-11.322 8.099-12.716 18.637-.435 3.57-1.567 12.541-2.612 19.943-2.177 17.07-2.177 18.899.262 23.602 2.438 4.528 7.053 7.489 12.975 8.273 2.264.348 4.528 1.045 4.964 1.567.61.697.523 3.136-.174 6.968-.957 5.748-.957 6.009 1.045 7.576Zm10.538-5.312c-5.573 4.877-7.489 5.748-9.144 4.354-1.045-.871-1.219-2.351-.783-7.837.696-7.751.522-8.013-7.055-9.145-4.877-.697-9.318-3.57-11.321-7.402-1.481-2.961-1.655-8.97-.436-17.244.436-3.222 1.654-11.67 2.612-18.811 1.916-13.847 2.962-17.418 6.097-20.118 4.964-4.441 10.712-4.79 40.496-2.177 11.06.958 22.818 1.915 26.127 2.264 7.054.609 12.802 2.961 15.154 6.27 3.222 4.529 3.658 8.535 2.264 21.163-3.396 32.485-3.658 33.53-7.664 37.884-3.745 4.093-6.967 4.703-22.469 3.745-24.123-1.393-22.73-1.481-26.562 1.132-1.829 1.393-5.138 4.006-7.316 5.922Z" clip-rule="evenodd"/><path fill="currentColor" d="M59.45 63.12c1.3 0 2.449.518 3.413 1.422 1.056.951 1.642 2.165 1.642 3.577 0 1.39-.6 2.579-1.642 3.518l-.015.013-.014.012c-1.027.874-2.23 1.338-3.562 1.338-1.237 0-2.343-.512-3.29-1.36l-.028-.026-.027-.027c-.977-.977-1.471-2.2-1.471-3.587 0-1.3.49-2.439 1.408-3.348l.09-.088c.982-.93 2.163-1.445 3.497-1.445ZM58.025 25c4.53 0 8.242 1.104 10.947 3.496C71.702 30.909 73 34.27 73 38.385c0 1.449-.22 2.891-.653 4.323a28.214 28.214 0 0 1-1.623 4.125l-.004.008-.003.008a47.397 47.397 0 0 1-2.203 3.92c-.752 1.229-1.506 2.438-2.259 3.629-1.072 1.709-1.992 3.046-2.755 3.983-.857 1.106-1.994 1.833-3.396 1.833-.997 0-1.943-.226-2.74-.779l-.029-.02-.027-.02C56.492 58.766 56 57.885 56 56.82c0-.407.023-.83.066-1.266.064-.632.3-1.211.643-1.732.465-.998 1.113-2.165 1.932-3.491l.007-.013.008-.012a129.955 129.955 0 0 0 2.587-4.178 37.214 37.214 0 0 0 2.177-4.244c.58-1.344.838-2.505.838-3.5 0-1.672-.55-2.718-1.505-3.402l-.018-.013-.018-.014c-1.015-.776-2.614-1.263-4.99-1.264-1.215 0-2.071.15-2.639.378l-.028.011-.028.01c-.637.223-1.112.507-1.463.825a6.79 6.79 0 0 0-.956 1.192 51.421 51.421 0 0 1-.83 1.483 5.225 5.225 0 0 1-1.447 1.607l-.01.008-.01.007c-.701.49-1.543.664-2.39.664-1.137 0-2.369-.263-3.117-1.262l-.016-.021-.014-.022c-.56-.809-.779-1.781-.779-2.803 0-2.056.756-3.937 2.159-5.614l.137-.162c.451-.539.995-1.08 1.623-1.624l.016-.014.017-.014a14.489 14.489 0 0 1 2.406-1.567l.188-.1c.945-.493 2.004-.875 3.166-1.156 1.285-.351 2.728-.517 4.313-.517ZM452.97 170.156c1.301 0 2.451.523 3.414 1.434 1.039.945 1.616 2.148 1.616 3.547 0 1.385-.597 2.57-1.634 3.505l-.014.013-.015.012c-1.022.871-2.218 1.333-3.544 1.333-1.232 0-2.332-.51-3.274-1.355l-.029-.026-.026-.027c-.972-.973-1.464-2.192-1.464-3.573 0-1.338.519-2.503 1.492-3.424.976-.926 2.151-1.439 3.478-1.439ZM452.97 132c.444 0 .881.041 1.289.146.648.111 1.18.456 1.58.924.42.491.667 1.1.815 1.724.173.586.272 1.306.321 2.12l.019.366v.004c.079 2.054.158 4.067.236 6.042.08 1.993.12 3.986.12 5.979 0 .992-.02 1.893-.06 2.703 0 .789-.02 1.579-.059 2.368-.001.812-.041 1.64-.121 2.484-.038.818-.077 1.734-.116 2.747v.008l-.001.008c-.042.856-.151 1.629-.354 2.289l-.005.015-.004.016c-.195.583-.465 1.132-.85 1.583a3.38 3.38 0 0 1-1.385.983l-.051.019-.053.015a4.793 4.793 0 0 1-1.321.171c-.967 0-1.905-.277-2.62-.993l-.022-.023-.022-.024c-.657-.723-1.009-1.786-1.219-2.922l-.005-.024-.003-.025c-.17-1.148-.27-2.654-.31-4.495a329.96 329.96 0 0 1-.06-6.962c0-2.26.02-4.46.06-6.602v-.025c.079-2.138.159-3.943.238-5.415.042-.86.139-1.628.309-2.275.161-.611.421-1.24.879-1.718l-.001-.001a3.675 3.675 0 0 1 2.776-1.21Z"/></svg>