<svg xmlns="http://www.w3.org/2000/svg" fill="none" viewBox="0 0 512 512"><path fill="#000" d="m128.789 15.612 3.441-.016c3.777-.014 7.554-.007 11.332 0 2.719-.004 5.439-.013 8.158-.02a5840.42 5840.42 0 0 1 19.811-.014c5.371.004 10.742.003 16.113-.002l2.322-.003 4.671-.004c14.581-.014 29.162-.009 43.743.003 13.318.01 26.636-.003 39.954-.027 13.7-.024 27.399-.034 41.099-.027 7.681.003 15.363 0 23.044-.017a3996.13 3996.13 0 0 1 19.617.002c3.332.009 6.662.009 9.994-.004C397.57 15.39 397.57 15.39 408 20l2.702 1.083c14.243 5.913 24.057 19.425 30.255 32.983 2.632 7.403 3.336 14.46 3.31 22.277l.014 3.042c.013 3.344.011 6.688.009 10.032l.021 7.216c.015 5.842.022 11.684.023 17.526.001 4.749.005 9.497.011 14.246.018 13.474.027 26.948.026 40.422l-.001 2.198v2.2c-.001 11.78.018 23.561.047 35.342.028 12.107.042 24.214.04 36.321 0 6.794.005 13.587.027 20.38.019 6.383.019 12.766.005 19.15a1177.2 1177.2 0 0 0 .014 7.031c.016 3.197.007 6.392-.009 9.589l.031 2.817c-.059 5.555-.814 8.741-4.525 13.145-4.167 3.854-6.737 4.782-12.25 5.312-4.653-.387-7.946-1.616-11.75-4.312-3.74-4.603-5.125-8.36-5.125-14.197l-.007-2.528.007-2.762-.004-2.947c-.004-3.267 0-6.534.003-9.801l-.006-7.017c-.004-5.042-.006-10.085-.006-15.127-.001-7.976-.014-15.952-.03-23.928l-.008-4.078-.012-6.18a60316.2 60316.2 0 0 1-.04-23.299l-.004-2.151c-.017-11.494-.02-22.988-.018-34.482.001-11.808-.017-23.617-.051-35.426-.019-6.627-.028-13.253-.016-19.88.011-6.237 0-12.473-.03-18.71-.006-2.285-.004-4.57.007-6.856.014-3.128-.003-6.254-.028-9.382l.035-2.721c-.112-7.39-2.379-13.906-7.409-19.446-8.536-7.94-18.71-8.233-29.751-8.216l-3.165-.007c-3.493-.006-6.985-.005-10.478-.004l-7.521-.01a15080.2 15080.2 0 0 0-18.297-.012c-4.96 0-9.92-.003-14.88-.006a61900.23 61900.23 0 0 0-42.223-.012H272.346c-12.299 0-24.597-.01-36.896-.023-12.64-.015-25.281-.022-37.922-.02-7.091 0-14.183-.003-21.275-.014-6.67-.01-13.341-.01-20.011-.003-2.446.002-4.891 0-7.336-.007a2178.38 2178.38 0 0 0-10.032.005l-2.916-.016c-10.395.053-19.648 1.314-27.458 8.677-6.925 7.708-6.936 15.117-6.895 25.002a2021.375 2021.375 0 0 0-.027 15.402c.003 4.061-.012 8.122-.024 12.183-.021 7.952-.025 15.904-.024 23.856.002 6.465-.002 12.93-.01 19.394l-.006 5.589-.003 2.81c-.019 17.533-.018 35.066-.011 52.6.006 16.033-.015 32.066-.048 48.099-.034 16.469-.049 32.938-.045 49.407a9154.22 9154.22 0 0 1-.028 27.73c-.021 7.87-.024 15.74-.005 23.61.009 4.014.01 8.027-.011 12.04-.018 3.679-.014 7.356.009 11.035.006 1.952-.012 3.903-.032 5.855.086 8.482 1.533 15.463 7.402 21.878 7.698 7.227 16.672 8.249 26.814 8.222l2.54.006c1.812.004 3.624.006 5.436.006 3.859.004 7.717.025 11.575.045 7.175.038 14.349.07 21.524.067 5 0 9.999.023 14.998.062 1.901.011 3.801.012 5.702.005 2.662-.01 5.321.011 7.983.039l2.36-.03c5.661.106 9.2 1.786 13.326 5.674 3.568 4.949 3.832 10.1 3 16-1.784 5.31-5.075 8.439-10 11-4.626 1.014-9.164 1.148-13.879 1.145l-2.324.01c-2.525.01-5.05.012-7.575.013l-5.314.01c-3.715.006-7.429.008-11.144.007-4.72 0-9.44.014-14.16.031-3.663.011-7.325.013-10.988.013-1.738.001-3.475.005-5.213.013-23.149.094-42.087-2.59-59.716-19.117-12.11-12.656-15.995-27.961-15.955-44.945a3037.293 3037.293 0 0 1-.023-15.747c0-4.152-.01-8.304-.02-12.457-.017-8.13-.022-16.26-.023-24.39-.001-6.611-.005-13.222-.012-19.833a55260.5 55260.5 0 0 1-.025-59.333v-3.067c.001-16.393-.018-32.786-.046-49.179-.029-16.845-.043-33.691-.04-50.536 0-9.452-.006-18.904-.027-28.356-.019-8.049-.023-16.098-.01-24.146.007-4.103.007-8.206-.01-12.309-.016-3.764-.013-7.527.005-11.29.004-1.99-.01-3.981-.027-5.971.125-16.372 5.928-30.414 17.174-42.28 12.556-12.202 26.695-17.774 44.141-17.674Z"/><path fill="#000" d="M344.187 318.125c3.797 2.531 6.962 5.508 8.547 9.918 1.945 3.006 4.402 3.301 7.766 4.332 11.137 3.674 19.164 9.444 27.5 17.625l1.902 1.828c8.277 8.633 13.861 20.506 16.098 32.172l.525 2.545c.608 4.424.572 8.742.545 13.201.009 1.908.019 3.817.032 5.725.016 2.987.023 5.972-.002 8.959a484.21 484.21 0 0 0 .033 8.691l-.053 2.684c.097 4.999.756 7.564 4.365 11.142l1.884 1.602c2.212 1.921 3.328 3.996 4.546 6.639l1.18 2.48c1.824 4.501 2.133 8.396 2.195 13.27l.078 3.652c-.42 4.366-1.803 6.838-4.828 9.957-4.453 3.571-7.263 4.579-12.889 4.567l-3.337-.001-3.598-.015-3.687-.005c-3.892-.005-7.784-.018-11.677-.03l-7.908-.014c-6.468-.011-12.936-.028-19.404-.049l-.395 3.301c-.887 5.422-3.176 8.341-7.105 12.074-5.169 2.4-9.897 2.372-15.5 1.625-5.455-2.435-7.628-5.709-10-11a88.26 88.26 0 0 1 0-6l-2.086.02c-7.17.067-14.34.112-21.51.145-2.676.013-5.35.035-8.026.061-3.847.037-7.694.054-11.542.067l-3.618.047c-6.648.001-11.717-.147-16.863-4.84-4.728-6.073-5.015-11.008-4.355-18.5 1.985-9.409 6.259-16.259 13-23 .222-2.786.325-5.48.344-8.27l.044-2.521c.047-2.674.081-5.347.112-8.021.303-25.341 2.98-46.507 21.051-65.836 8.379-8.045 18.012-13.428 28.886-17.289 3.917-1.504 3.917-1.504 6.313-5L324 323c5.745-6.036 12.367-7.635 20.187-4.875ZM314 369c-8.641 7.843-13.446 17.103-14.172 28.769-.058 3.09-.053 6.175-.023 9.266l.006 3.011c.01 3.672.038 7.344.064 11.017L300 446h74l.187-25.875.083-8.109c.009-2.148.017-4.297.023-6.446l.046-3.312c.004-11.907-2.905-21.517-11.226-30.235C348.919 358.917 329.804 357.77 314 369ZM240.856 251.853l3.628-.022 3.97-.008 4.189-.02c4.583-.021 9.165-.031 13.748-.041l4.739-.013c7.423-.019 14.846-.033 22.268-.041 8.559-.01 17.117-.036 25.675-.077 6.622-.03 13.243-.045 19.865-.048 3.952-.002 7.904-.011 11.855-.036 3.72-.024 7.44-.028 11.16-.018 2.007.001 4.014-.018 6.021-.038 7.155.041 11.979.572 18.026 4.509 4.71 5.072 5.362 8.399 5.273 15.172-.423 4.381-1.516 6.364-4.273 9.828-6.516 5.081-13.186 4.575-21.162 4.533-1.436.008-2.873.016-4.309.027-3.886.022-7.772.019-11.659.01-3.25-.005-6.501.002-9.751.01-7.671.017-15.342.013-23.013-.004-7.901-.017-15.801-.001-23.702.032-6.796.026-13.592.034-20.388.025-4.054-.005-8.107-.003-12.16.018-3.813.018-7.625.012-11.438-.012-1.395-.005-2.79-.002-4.184.011-7.901.066-14.202-.099-20.234-5.65-3.838-5.037-3.817-10.908-3-17 2.178-4.436 4.914-7.242 9-10 3.295-1.097 6.399-1.133 9.856-1.147ZM241.78 92.86a24495 24495 0 0 1 3.577-.018l3.914-.003 4.13-.015c3.738-.013 7.475-.02 11.213-.024l7.012-.012c7.318-.013 14.636-.023 21.954-.027a8716.34 8716.34 0 0 0 25.311-.05c6.529-.022 13.057-.033 19.585-.034 3.896-.001 7.792-.007 11.688-.025 3.667-.016 7.334-.018 11.002-.01 1.978.002 3.957-.012 5.935-.026 14.364.067 14.364.067 19.446 4.836 4.309 4.991 4.81 8.304 4.726 14.72-.423 4.381-1.516 6.364-4.273 9.828-6.52 5.089-13.196 4.568-21.178 4.518a1464.662 1464.662 0 0 1-15.985.019c-4.079-.01-8.158 0-12.238.006-6.849.007-13.698-.002-20.548-.022-7.909-.021-15.817-.014-23.726.008-6.801.018-13.602.02-20.403.01-4.058-.006-8.115-.007-12.172.006-3.815.012-7.63.004-11.445-.019a390.325 390.325 0 0 0-4.191.005c-13.115.075-13.115.075-19.114-4.531-3.686-3.781-4.304-6.881-4.5-12 .19-5.117.872-8.181 4.5-12 5.379-4.146 9.114-5.121 15.78-5.14ZM247.178 172.482a1464.662 1464.662 0 0 1 15.985-.019c4.079.01 8.158 0 12.238-.006 6.849-.007 13.698.002 20.548.022 7.909.021 15.817.014 23.726-.008 6.801-.018 13.602-.02 20.403-.01 4.058.006 8.115.007 12.172-.006 3.815-.012 7.63-.004 11.445.019 1.397.006 2.794.004 4.191-.005 13.212-.076 13.212-.076 19.114 4.531 3.971 4.99 4.639 9.077 4.387 15.414-.743 4.969-3.318 7.597-6.887 10.899-4.062 2.741-7.525 2.814-12.363 2.827l-3.632.018-3.975.003-4.194.015c-3.796.013-7.591.02-11.387.024a18387.644 18387.644 0 0 1-29.401.039c-8.566.004-17.133.022-25.7.051-6.627.022-13.253.032-19.88.033-3.956.001-7.911.007-11.867.025-3.722.016-7.445.018-11.167.01-2.011-.002-4.022.012-6.032.026-13.13-.06-13.13-.06-18.644-4.919-4.462-6.017-4.978-10.015-4.258-17.465 1.434-4.733 4.306-7.828 8.658-10.183 5.277-1.841 10.994-1.37 16.52-1.335ZM171.25 169c5.796 3.195 9.656 7.719 11.75 14 .893 8.379.023 15.087-5 22-4.123 4.253-9.14 6.403-15 7-6.996-.012-12.184-1.653-17.625-6.188-5.333-6.315-7.073-11.573-6.758-19.91.782-5.928 3.01-9.529 7.195-13.715 8.285-5.685 16.118-7.335 25.438-3.187ZM170.52 88.91c5.958 3.543 10.278 8.475 12.48 15.09.871 7.344.592 13.985-4 20-4.271 4.534-8.509 7.586-14.832 8.336-7.671.1-13.211-.608-18.918-5.984-5.466-6.018-6.727-11.283-6.558-19.348.641-6.247 3.183-10.241 7.808-14.379 6.838-5.564 15.601-6.756 24.02-3.715ZM176 251.688c5.287 5.286 7.12 9.804 7.437 17.25-.195 6.523-1.612 10.997-6.05 15.812-5.659 5.219-11.169 6.754-18.797 6.559-7.068-.843-11.963-3.983-16.399-9.43-3.814-6.016-3.896-11.943-3.191-18.879 1.764-6.609 6.345-11.347 12-15 8.544-3.803 17.924-2.228 25 3.688Z"/></svg>