<svg
    viewBox="0 0 512 512"
    fill="none"
    stroke="currentColor"
    stroke-width="2"
    stroke-linecap="round"
    stroke-linejoin="round">
	<path fill="currentColor" fill-rule="evenodd" d="M152.016 164.84c18.357-10.41 38.132-17.961 59.414-11.367.045.007.09.018.134.031l2.201.68c7.987 2.458 15.84 5.318 23.673 8.146a509.242 509.242 0 0 0 50.173 15.299c2.947.731 5.887 1.483 8.823 2.255l2.934.78.038.011c3.666 1.143 6.46 2.804 9.572 4.849l1.262.799 1.294.829.079.056c.025.021.05.042.073.065 5.76 5.601 9.973 13.295 10.954 21.36l.085.782.003.091.011 3.218.05 3.2a.971.971 0 0 1-.006.121c-.37 3.488-1.295 6.326-2.469 9.313 8.877-4.265 17.396-9.066 25.881-14.085l3.95-2.352c8.849-5.305 17.776-10.469 26.74-15.561a1513.562 1513.562 0 0 0 21.716-12.552l7.564-4.451c16.568-9.728 25.835-14.926 33.262-17.166 7.549-2.277 13.224-1.507 22.443.461l4.184.911.086.023c7.541 2.382 14.313 6.923 18.718 13.592l.419.652.051.091c5.234 10.743 6.642 21.176 3.056 32.735a.897.897 0 0 1-.024.067c-5.059 12.983-17.094 19.471-28.105 26.052-3.1 1.872-6.199 3.746-9.298 5.62a1132.916 1132.916 0 0 0-13.309 8.193l-.003.002c-7.79 4.82-15.581 9.629-23.381 14.429l.001.001-3.3 2.04-.003.002-6.68 4.099-45.549 28.031h-.002a2924.693 2924.693 0 0 0-20.253 12.536l-.002.001c-2.191 1.361-4.368 2.709-6.534 4.076l-.007.005c-11.108 6.884-21.326 11.469-32.019 13.602-10.7 2.133-21.816 1.798-34.705-1.077l-.017-.003c-7.277-1.755-14.493-3.739-21.689-5.708a479.676 479.676 0 0 1-3.071-.82l-35.366-9.558a22213.93 22213.93 0 0 1-26.3-7.122l-2.339-.628-.004-.001-2.191-.601-.003-.001a310.718 310.718 0 0 1-5.914-1.728c-4.176-1.11-7.476-.892-11.346 1.046a265.926 265.926 0 0 0-5.02 3.001.993.993 0 0 1-.522.148h-.323l.922 1.704.005.01c2.211 4.195 3.884 7.366 5.099 9.902 1.213 2.533 1.999 4.488 2.413 6.247.845 3.593.096 6.25-1.212 11.021l-.013.044c-3.481 10.768-13.45 15.198-22.173 19.825l-3.76 2.046c-9.208 5-16.534 8.369-27.623 5.56a.96.96 0 0 1-.159-.054c-5.001-2.206-8.613-6.211-11.537-10.661-2.904-4.419-5.233-9.454-7.518-13.668l-3.988-7.254v-.003l-1.011-1.85a714.483 714.483 0 0 0-10.171-17.668l-.004-.005a808.96 808.96 0 0 1-14.428-25.652c-4.793-8.837-9.786-17.557-14.806-26.276v-.002a3689.376 3689.376 0 0 1-10.224-17.964 876.65 876.65 0 0 1-4.361-7.813l-1.24-2.21-.009-.015c-3.504-6.511-3.766-12.214-2.872-19.388l.036-.166c1.588-5.242 5.32-9.178 9.609-12.358 3.207-2.377 6.802-4.383 10.137-6.207l3.224-1.769 3.04-1.743.007-.005c4.427-2.485 8.347-4.414 12.472-5.454 4.147-1.046 8.455-1.181 13.661-.156a.9.9 0 0 1 .134.037c8.38 2.902 12.884 10.27 16.564 17.491.072.14.109.296.109.454v.289c11.217-6.303 22.393-12.645 33.494-19.152a2411.926 2411.926 0 0 1 27.093-15.657Zm-83.593 34.597c-2.844-.055-4.469 1.081-7.315 2.72l-.006.003-3.37 1.91-3.49 2.034-.01.006-3.53 2-.036.019c-2.604 1.338-3.856 1.981-5.034 2.718-1.102.689-2.145 1.464-4.167 2.985a26.206 26.206 0 0 0 3.483 11.218l.429.709.017.028 1.954 3.36 2.13 3.57.003.007a1836.87 1836.87 0 0 1 5.541 9.522c3.505 6.008 6.91 12.055 10.282 18.128 5.276 9.455 10.623 18.86 16.002 28.257a2104.363 2104.363 0 0 1 9.51 16.742l3.136 5.599.001.002c2.258 4.066 4.544 8.121 6.825 12.192a653.966 653.966 0 0 1 2.924 5.227 570.81 570.81 0 0 0 1.817 3.241l1.837 3.229.01.017 1.003 1.837c.75 1.279 1.293 2.161 1.963 2.857.622.646 1.386 1.159 2.604 1.605 1.523.095 2.591-.047 3.595-.378 1.07-.352 2.108-.926 3.607-1.772l.004-.003 2.9-1.614 3.019-1.73.008-.005 3.031-1.699c3.564-2 7.044-3.987 10.418-6.218.864-5.316-1.956-9.068-4.945-14.013l-.005-.008c-1.711-2.896-3.422-5.794-5.131-8.692-2.964-5.027-5.849-10.105-8.737-15.162l-3.069-5.38c-4.983-8.704-9.895-17.457-14.785-26.208a2627.367 2627.367 0 0 0-15.434-27.218 1052.705 1052.705 0 0 1-7.077-12.46l-2.321-4.175-1.65-2.98a510.99 510.99 0 0 1-3.006-5.5l-1.351-2.404-.006-.012-1.122-2.058c-.607-.859-.818-1.14-1.069-1.345-.237-.194-.533-.336-1.387-.708Zm138.825-27.388c-10.425-3.608-20.789-1.997-30.825 1.892-10.065 3.9-19.674 10.037-28.601 15.377l-.001.001c-5.928 3.535-11.916 6.968-17.893 10.407a2874.466 2874.466 0 0 0-29.17 17.011 607.096 607.096 0 0 0 13.942 25.111l2.158 3.65.003.005c4.108 6.993 8.044 14.064 11.888 21.192l.006.01a237.604 237.604 0 0 0 12.002 20.336l1.393-.759a682.46 682.46 0 0 1 5.981-3.261 243.054 243.054 0 0 0 6.045-3.405l.126-.063c5.998-2.441 11.78-1.022 17.471.52l2.041.54.006.002 11.409 3.079c4.18 1.12 8.369 2.25 12.549 3.39l12.341 3.32a9099.025 9099.025 0 0 1 54.801 14.89l4.381 1.191.003.001 3.796 1.043c15.799 3.825 28.631.922 42.416-7.327l4.39-2.695.001-.001 2.34-1.429a1960.704 1960.704 0 0 0 15.732-9.745l.001-.001c5.193-3.232 10.406-6.434 15.605-9.633l81.87-50.38 7.8-4.785c2.601-1.59 5.205-3.173 7.817-4.749l2.925-1.768a367.036 367.036 0 0 1 5.436-3.268c5.055-3.084 8.811-5.669 10.962-11.026.636-3.048.888-5.643.635-8.143-.252-2.492-1.009-4.939-2.448-7.679-1.642-2.136-3.148-3.5-4.859-4.462-1.732-.973-3.737-1.573-6.438-2.088-8.972-.865-18.018 1.897-26.76 6.065-8.768 4.179-17.084 9.695-24.661 14.251-6.159 3.706-12.397 7.301-18.617 10.871a2039.07 2039.07 0 0 0-31.005 18.17l-.005.003c-5.838 3.45-5.838 3.449-11.656 6.917l.001.001c-22.265 13.314-44.558 14.681-69.476 8.452l-.006-.001-6.429-1.651c-8.869-2.272-17.696-4.663-26.509-7.104l-2.936-.799-.002-.001a856.366 856.366 0 0 1-11.075-3.123c-2.973-1.072-5.103-1.945-7.437-4.344a.993.993 0 0 1-.254-.459c-.798-3.254-.564-6.261-.014-9.41l.024-.104c.029-.101.073-.197.132-.285.682-1.008 1.144-1.713 1.809-2.212.658-.493 1.485-.762 2.698-1.174l.085-.025c.086-.021.174-.03.262-.028 6.438.163 12.536 1.737 18.562 3.469l2.581.717.003.001 8.101 2.29 13.107 3.68.034.01c7.495 2.384 11.092 3.522 14.67 3.801 3.531.275 7.068-.285 14.37-1.474 2.211-1.745 3.746-3.356 4.836-5.185 1.102-1.849 1.784-3.983 2.199-6.811-.414-2.8-1.134-4.938-2.24-6.814-1.122-1.9-2.673-3.586-4.816-5.437-4.449-3.043-9.212-3.766-14.75-4.825l-.025-.005a317.217 317.217 0 0 1-33.536-9.279l-2.394-.789a1051.255 1051.255 0 0 1-38.908-13.66Z" clip-rule="evenodd"/>
</svg>