<svg xmlns="http://www.w3.org/2000/svg" fill="none" viewBox="0 0 512 512">
  <path fill="#000" d="M206 7c3.4 2.87 4.7 5.24 5.89 9.5l.9 3.19.9 3.31.93 3.31c4.24 15.16 4.24 15.16 3.38 21.69-1.93 2.85-3.22 3.72-6.44 4.88-3.16.15-4.82-.3-7.56-1.88-3.75-5.42-5.01-11.46-6.69-17.75l-.97-3.46c-1.74-6.45-2.87-12.1-2.34-18.79 2.66-4.54 7.09-5.3 12-4ZM426 7c2.5 1.44 2.5 1.44 4 4 .62 7.88-1.2 14.7-3.31 22.25l-.94 3.5C423 46.82 423 46.82 420 51c-4.16 1.88-6.05 2.35-10.38.75C407 50 407 50 406 48c-.62-7.73 1.1-14.48 3.2-21.9.55-1.99 1.08-3.98 1.6-5.97l1.06-3.81.95-3.46C415.35 6.75 419.96 5.94 426 7ZM316 18c4.03 1.7 7.74 3.89 11.5 6.13l3.32 1.91c3.4 1.97 6.8 3.96 10.18 5.96l6.06 3.52c3.95 2.3 7.9 4.6 11.85 6.92a3062.56 3062.56 0 0 0 22.22 12.88l16.59 9.54a2753.98 2753.98 0 0 1 30.78 17.89l2.54 1.48 2.3 1.38 2.01 1.19C437 88 437 88 439 91c.26 2.6.26 2.6.27 5.8l.03 3.66v4.02l.03 4.23a2594.98 2594.98 0 0 1 .05 18.7c.03 8.35.04 16.7.05 25.06 0 7.8.03 15.59.07 23.38.04 6.69.05 13.37.05 20.06 0 4 .01 7.99.04 11.99.03 3.75.03 7.51.01 11.27 0 1.38 0 2.75.02 4.13.12 10.68.12 10.68-2.95 14.92a156.97 156.97 0 0 1-9.86 6.16l-2.2 1.27-4.9 2.8-8.7 5-16.62 9.6-19.63 11.32-16.4 9.45-3.32 1.91-6.53 3.75a766.37 766.37 0 0 0-15.79 9.32l-3.02 1.82a580.22 580.22 0 0 0-5.59 3.43c-8.73 5.3-8.73 5.3-14.11 4.95-3.87-1.67-7.4-3.82-11-6l-5.94-3.3a1284.47 1284.47 0 0 1-29.48-16.81c-6.3-3.74-12.66-7.41-19.02-11.08l-3.33-1.92L231 264c-7.7-4.43-15.39-8.87-23.07-13.31-2.74-1.58-5.49-3.15-8.24-4.71-1.54-.9-3.08-1.78-4.63-2.67l-2.08-1.17c-3.47-2-5.93-3.68-7.98-7.14-.38-2.73-.38-2.73-.4-5.91l-.03-3.67.01-4.01-.03-4.24c-.02-3.83-.02-7.66-.02-11.49 0-3.2 0-6.4-.02-9.6-.01-7.54-.02-15.09-.01-22.63 0-7.78-.02-15.57-.05-23.35-.03-6.68-.05-13.37-.04-20.05 0-4 0-7.98-.03-11.98-.02-3.75-.02-7.5 0-11.26 0-1.37 0-2.75-.02-4.13-.11-11.7-.11-11.7 3.02-14.93L190 86l2.54-1.7 2.72-1.54 3.1-1.77a27883.36 27883.36 0 0 0 6.81-3.85l7.24-4.1c5.55-3.15 11.07-6.35 16.59-9.54l6.5-3.75 3.25-1.88 9.75-5.62 3.25-1.88a107380.77 107380.77 0 0 1 33.3-19.2c4.5-2.59 9-5.17 13.41-7.89l1.93-1.16c1.57-.96 3.12-1.93 4.68-2.9 3.84-1.6 6.9-2.07 10.93-1.22Zm-10.44 21.06-3.27 1.92-3.42 2.02-3.44 2.02L287 50a75.97 75.97 0 0 0 9.16 6.05l3.11 1.78 3.36 1.92 3.5 2.01c2.42 1.4 4.84 2.78 7.27 4.17 5.54 3.18 11.07 6.38 16.6 9.57l6.47 3.73 3.25 1.88 10.03 5.78 3.36 1.94 6.6 3.78c5.02 2.86 9.93 5.77 14.72 8.99 7.83 5.64 7.83 5.64 16.94 7.02A44.47 44.47 0 0 0 400 103a203.7 203.7 0 0 1 5.45-3.3c2.55-1.52 5.05-3.11 7.55-4.7-2.5-2.8-5.25-4.43-8.5-6.27l-3.4-1.92-1.8-1.02c-2.54-1.42-5.07-2.85-7.6-4.29l-3.92-2.22c-6.32-3.58-12.62-7.2-18.9-10.84l-6.42-3.7-3.2-1.86-10.07-5.8-6.75-3.9-3.27-1.87c-4.85-2.8-9.7-5.61-14.51-8.47l-2.41-1.44c-1.46-.86-2.9-1.73-4.35-2.6-5.63-3.36-6.78-3.02-12.34.26ZM260.8 64.87l-1.94 1.11c-3.53 1.9-3.53 1.9-5.87 5.02l2.03 1.13C277.6 84.7 277.6 84.7 288.4 91.1c8.52 5.05 17.12 9.98 25.7 14.92a4382.64 4382.64 0 0 1 24.26 14.05c1.99 1.15 3.98 2.28 5.98 3.4a82.6 82.6 0 0 1 4.87 3c2.18 1.47 2.18 1.47 5.78 2.52 3.27-.98 5.76-2.74 8.5-4.75l2.2-1.5c1.79-1.22 3.55-2.48 5.3-3.75a75.91 75.91 0 0 0-9.16-6.05l-3.11-1.78-3.36-1.92-3.5-2.01c-2.42-1.4-4.84-2.78-7.27-4.17-5.54-3.18-11.07-6.38-16.6-9.57a25388.17 25388.17 0 0 0-29.83-17.2 815.73 815.73 0 0 1-14.44-8.46l-2.39-1.44-4.27-2.6c-6.58-3.98-10.02-2.61-16.26 1.08Zm-28.7 16.07-2.95 1.83-3.22 1.94-3.31 2.1-3.4 2.07c-2.75 1.68-5.5 3.4-8.23 5.12 2.5 2.82 5.3 4.46 8.57 6.3l3.43 1.94 1.82 1.02 9.56 5.41 1.96 1.11c5.96 3.38 11.88 6.82 17.78 10.28 9.47 5.54 18.96 11.05 28.48 16.5 5.06 2.91 10.1 5.85 15.09 8.9l2.64 1.6c1.6.97 3.2 1.96 4.8 2.97l2.14 1.29 1.83 1.14c3.5 1 6.23-1.12 9.3-2.7l2.46-1.36 2.69-1.49 2.76-1.53 2.82-1.57L336 140c-1.45-4.34-4.72-5.3-8.56-7.31l-4.98-2.7-2.69-1.46c-4.8-2.65-9.53-5.44-14.27-8.22a5583.7 5583.7 0 0 0-35.13-20.37 5311.1 5311.1 0 0 1-8.77-5.06l-7.13-4.14a5226.83 5226.83 0 0 1-10.81-6.26L241 83l-2.97-1.86c-3-1.49-3-1.49-5.91-.2ZM202 110c-.56 15.01-.99 30.02-1.24 45.04-.13 6.97-.3 13.94-.57 20.92-.27 6.73-.4 13.46-.47 20.2-.04 2.57-.13 5.13-.26 7.7-.67 11.87-.67 11.87 2.54 23.14 5.87 6.1 13.49 9.5 21.17 12.77a89.28 89.28 0 0 1 10.46 5.6L240 249c13.84 7.88 27.61 15.9 41.35 23.97l6.81 3.99c2.15 1.25 4.3 2.51 6.44 3.78l2.9 1.69 2.56 1.5c1.72 1.15 1.72 1.15 2.94 1.07.21-15.15.37-30.3.47-45.45.04-7.04.1-14.07.2-21.11.1-6.79.16-13.58.18-20.37.02-2.59.05-5.18.1-7.77.07-3.63.08-7.25.07-10.88l.1-3.25c-.02-5.65-.02-5.65-3.09-10.14A56.36 56.36 0 0 0 294 162l-2.94-1.74-2.56-1.42-2.96-1.63-3.1-1.71a1379 1379 0 0 1-28.33-16.17 3510.9 3510.9 0 0 0-25.98-15.04 706 706 0 0 1-19.94-11.85c-2.88-1.88-2.88-1.88-6.19-2.44Zm214.3 2.05-2.23 1.3-2.32 1.4-2.28 1.34A369.08 369.08 0 0 0 403 120l-3.23 1.44c-3.2 2.95-3.21 3.55-3.46 7.7-.01 2.16.01 4.3.06 6.45v3.44c0 3.64.02 7.27.07 10.9.03 3.64.06 7.27.06 10.9 0 2.26.02 4.52.06 6.78 0 7.6 0 7.6-2.69 11.38a109.16 109.16 0 0 1-9.3 5.9c-.91.5-.91.5-1.83 1.03l-5.74 3.2a7473.38 7473.38 0 0 0-10.94 6.15c-1.96 1.11-3.9 2.25-5.83 3.43-3.61 2.1-6.1 1.7-10.23 1.3-2.1-1.54-2.88-2.43-3.4-5a5310 5310 0 0 1-.03-2.29l-.06-2.6-.02-2.8-.06-2.89c-.05-3.03-.08-6.07-.12-9.1l-.1-6.18c-.09-5.05-.15-10.1-.21-15.14a63.77 63.77 0 0 0-9.6 4.57c-.85.48-1.68.97-2.54 1.47l-2.61 1.52-2.65 1.54c-4.03 2.14-4.03 2.14-7.6 4.9-.1 1.52-.12 3.04-.12 4.56v9.75l.02 11.38a20624.66 20624.66 0 0 1 .03 26.5l.02 21.2L321 285l5.17-2.82 2.91-1.58c4.56-2.5 9.09-5.04 13.6-7.6l3-1.7c8.07-4.57 16.1-9.23 24.11-13.92 8.54-5 17.11-9.95 25.7-14.88 1.97-1.14 3.94-2.3 5.9-3.5 2.56-1.5 5.11-2.6 7.9-3.62 4.94-2 9.31-4.17 12.71-8.38 3.1-8.32 1.97-17.87 1.66-26.57a952.01 952.01 0 0 0-.44-26.26c-.19-7-.28-14-.36-21-.18-14.4-.48-28.78-.86-43.17-2.5 0-3.55.77-5.7 2.05Zm-40.9 23.92-1.96 1.1-2.5 1.43L363 143v34l5-2 3.09-1.11c3.62-1.62 6.12-3.06 8.91-5.89 1.52-5.87 1.14-11.44.75-17.44A396.8 396.8 0 0 0 380 134c-1.75 0-3.1 1.12-4.6 1.97Z"/>
  <path fill="#000" d="m197.84 300.1 2.2.68c7.96 2.45 15.79 5.3 23.63 8.13a510.2 510.2 0 0 0 50.27 15.33 637.87 637.87 0 0 1 11.74 3.03c3.53 1.1 6.23 2.7 9.32 4.73.85.54 1.7 1.07 2.56 1.63 5.8 5.64 9.97 13.44 10.74 21.52l.01 3.23.05 3.2c-.45 4.24-1.74 7.49-3.36 11.42 11.15-5.2 21.69-11.27 32.23-17.58 8.84-5.3 17.76-10.46 26.72-15.55 7.28-4.13 14.52-8.31 21.73-12.56 43.02-25.34 43.02-25.34 66.73-20.13 7.6 2.4 14.35 7.03 18.59 13.82 5.14 10.55 6.5 20.72 3 32-4.91 12.6-16.58 18.92-27.69 25.56a12649.3 12649.3 0 0 0-9.3 5.62c-4.46 2.7-8.9 5.44-13.32 8.2-7.79 4.82-15.58 9.63-23.38 14.43l-3.3 2.04-6.68 4.1L374 423l-6.5 4-3.25 2-9.75 6-3.25 2-6.47 3.98a2924.21 2924.21 0 0 0-20.26 12.54c-2.19 1.36-4.37 2.71-6.54 4.08-22.09 13.69-40.42 18.1-65.98 12.4-7.26-1.75-14.46-3.73-21.66-5.7-2.05-.54-4.1-1.1-6.14-1.65l-16-4.33-16.3-4.4a21421.4 21421.4 0 0 1-26.3-7.12l-2.34-.63-2.19-.6c-1.98-.55-3.95-1.14-5.92-1.73-4.4-1.17-7.96-.94-12.08 1.13-1.7.99-3.39 2-5.07 3.03h-2l1.72 3.18c8.86 16.81 8.86 16.81 6.22 26.44-3.33 10.3-12.83 14.55-21.69 19.25l-3.77 2.05c-9.17 4.98-16.2 8.18-26.9 5.47-9.5-4.19-13.92-15.3-18.58-23.89l-3.99-7.26-1.01-1.85a715.6 715.6 0 0 0-10.19-17.7 807.91 807.91 0 0 1-14.41-25.62c-4.8-8.85-9.8-17.58-14.82-26.3a3686.72 3686.72 0 0 1-10.22-17.96c-1.47-2.6-2.92-5.2-4.36-7.81l-1.24-2.21C9.39 367.53 9.12 362.06 10 355c3-9.9 14.16-15.1 22.5-19.75l3.05-1.75c8.82-4.95 15.3-7.5 25.45-5.5 7.97 2.76 12.32 9.78 16 17v2c11.72-6.58 23.4-13.2 35-20a2414.5 2414.5 0 0 1 27.08-15.65c18.34-10.4 37.84-17.78 58.76-11.24Zm-63.96 34c-5.92 3.53-11.9 6.96-17.88 10.4A2869.16 2869.16 0 0 0 86 362a609.18 609.18 0 0 0 16.57 29.65c4.1 6.98 8.03 14.04 11.87 21.16A238.78 238.78 0 0 0 127 434l2.2-1.2c1.99-1.1 3.98-2.18 5.98-3.26 2.04-1.11 4.06-2.25 6.07-3.42 5.65-2.3 11.12-.99 16.84.56l2.04.54 6.66 1.8 4.75 1.28c4.18 1.12 8.37 2.25 12.55 3.39l12.34 3.32a9097.7 9097.7 0 0 1 54.8 14.89l4.38 1.19 3.82 1.05c16.1 3.9 29.2.92 43.17-7.44l4.4-2.7 2.34-1.43c5.27-3.22 10.5-6.48 15.74-9.75 5.19-3.23 10.4-6.43 15.6-9.63l6.64-4.08 3.35-2.06L367 407l6.5-4 3.25-2 13-8 6.49-4a40312.81 40312.81 0 0 1 26.31-16.19c5.2-3.2 10.39-6.38 15.61-9.53l2.93-1.77c1.8-1.1 3.6-2.19 5.42-3.26 5.1-3.11 9.14-5.85 11.42-11.6 1.32-6.28 1.1-10.92-1.93-16.65-3.44-4.5-6.47-5.95-12-7-18.5-1.81-37.03 11.4-52.08 20.45-6.15 3.7-12.38 7.29-18.6 10.86a2038.57 2038.57 0 0 0-31.02 18.18c-5.84 3.45-5.84 3.45-11.66 6.92-21.99 13.15-44 14.52-68.72 8.34L259 387l-3.51-.9c-8.86-2.27-17.68-4.66-26.49-7.1l-2.94-.8a860.72 860.72 0 0 1-11-3.1c-2.94-1.06-4.89-1.87-7.06-4.1-.75-3.06-.54-5.91 0-9 1.44-2.13 1.44-2.13 4-3 6.3.16 12.29 1.7 18.31 3.43l2.59.72 8.1 2.29a8167.04 8167.04 0 0 0 13.11 3.68c14.9 4.74 14.9 4.74 29.76 2.32 4.75-3.7 6.78-6.97 7.63-12.94-.85-5.94-3.04-9.24-7.46-13.05-4.67-3.21-9.68-3.96-15.17-5.01a316 316 0 0 1-33.43-9.25l-2.4-.79a1052 1052 0 0 1-38.88-13.65c-21.47-7.44-42.51 6.72-60.28 17.35Zm-86.7 12.83-3.37 1.91-3.5 2.04-3.53 2c-5.18 2.66-5.18 2.66-9.78 6.12a27.21 27.21 0 0 0 4.1 12.93l1.96 3.37 2.13 3.57a1886.47 1886.47 0 0 1 5.54 9.52c3.5 6 6.9 12.04 10.27 18.11 5.28 9.46 10.63 18.87 16.01 28.27 4.26 7.42 8.47 14.86 12.64 22.33 2.26 4.07 4.55 8.13 6.83 12.2.98 1.73 1.95 3.47 2.92 5.22a578.1 578.1 0 0 0 3.66 6.48l1.01 1.85c1.49 2.54 2.4 3.96 5.23 4.96 3.4.24 4.94-.6 7.9-2.27l2.91-1.62 3.02-1.73 3.03-1.7c3.69-2.07 7.32-4.14 10.84-6.49 1.17-6-2.02-10.2-5-15.13a10452.2 10452.2 0 0 1-5.13-8.69c-2.96-5.02-5.84-10.09-8.73-15.15l-3.07-5.38c-4.98-8.7-9.89-17.45-14.78-26.2a2614.7 2614.7 0 0 0-15.44-27.23 1050.4 1050.4 0 0 1-9.39-16.62l-1.65-2.98a521.6 521.6 0 0 1-3-5.49l-1.36-2.42-1.15-2.11c-1.2-1.7-1.2-1.7-3.09-2.52-3.3-.12-5.2 1.22-8.03 2.85ZM489 55c2.99 2.41 3.01 4.1 3.56 7.94.13 1.96.13 1.96-.56 4.06-5.15 5.16-11.64 8.63-17.88 12.31l-3.18 1.96c-5.91 3.5-10.02 5.79-16.94 4.73-3.06-2.04-3.82-3.44-4.94-6.94-.07-3.75.77-5.04 2.94-8.06 2.23-1.7 2.23-1.7 4.82-3.2.95-.54 1.9-1.1 2.87-1.67l3-1.7 2.93-1.7c16.9-9.77 16.9-9.77 23.38-7.73ZM148.13 56.44l3.14 1.83a23409.74 23409.74 0 0 1 5.2 3.05c1.78 1.06 3.57 2.1 5.37 3.13 10 5.86 10 5.86 12.16 8.55 1.03 3.96 1.4 6.11-.31 9.88-2.3 2.89-3.3 3.06-6.99 3.64-6.14-.09-11.07-3.62-16.2-6.7-1.75-1.07-3.52-2.1-5.3-3.14-9.74-5.75-9.74-5.75-13.2-9.68-.93-3.74-.5-7.06 1.31-10.44 4.42-4.09 9.84-2.41 14.82-.12ZM472 125c4.32.96 8.56 2.1 12.81 3.31l3.35.9c10.5 2.94 10.5 2.94 13.84 6.79.93 3.1.69 5.86 0 9-1.88 2.63-1.88 2.63-5 4-7.8.12-15.39-2.21-22.81-4.31l-3.35-.9c-10.21-2.85-10.21-2.85-13.84-6.79-1.24-3.63-1.35-5.24.25-8.75 4.34-5.58 8.45-4.32 14.75-3.25ZM164.81 125.69c2.47 2.6 3.1 3.75 3.19 7.31-1.07 4.07-2.5 5.77-6 8-3.02 1.07-3.02 1.07-6.52 2.04l-3.85 1.07-2 .53-5.99 1.66c-11.34 3.1-11.34 3.1-16.64 2.7-3.08-1.85-4.64-3.06-5.94-6.44-.07-3.1.44-4.84 1.94-7.56 3.2-2.9 6.4-3.9 10.52-5.04l3.85-1.07 2-.53 5.99-1.66c14.52-3.97 14.52-3.97 19.45-1.01Z"/>
  <path fill="#000" d="M55 359c3.06 1.88 3.06 1.88 5 5 .88 4.11 1.18 8.06-1.07 11.76-2.69 2.57-5.38 3.58-9 3.8-4.3-.61-5.94-1.48-8.93-4.56-1.6-3.2-1.5-6.53-1-10 3.94-6.17 8-7.01 15-6Z"/>
</svg>