<svg xmlns="http://www.w3.org/2000/svg" fill="none" viewBox="0 0 512 512"><path fill="currentColor" d="M209.096 415.468c45.136 0 87.281-14.657 121.542-39.087l128.883 128.661c5.982 5.971 13.867 8.958 22.025 8.958C499.22 514 512 500.428 512 483.056c0-8.144-2.717-15.743-8.703-21.715L375.231 333.223c26.918-35.286 42.961-78.988 42.961-126.488C418.192 91.917 324.112-2 209.096-2 93.807-2 0 91.917 0 206.735c0 114.816 93.807 208.733 209.096 208.733Zm0-45.058c-90.001 0-163.96-74.102-163.96-163.675 0-89.574 73.959-163.676 163.96-163.676 89.729 0 163.959 74.102 163.959 163.676 0 89.573-74.23 163.675-163.959 163.675Z"/></svg>