<svg xmlns="http://www.w3.org/2000/svg" fill="none" viewBox="0 0 512 512">
  <path fill="currentColor" d="M477.68 222.73c8.71 6.45 13.4 15.62 15.7 26.1A56.59 56.59 0 0 1 483 290.44c-6.88 8.71-14.52 16.8-22.1 24.89a301.67 301.67 0 0 0-8.1 9.05c-2.39 2.73-4.84 5.4-7.3 8.06-3.62 3.93-7.19 7.9-10.7 11.94-3.08 3.51-6.25 6.95-9.4 10.4a405.17 405.17 0 0 0-5.84 6.6c-3.43 3.94-6.97 7.79-10.51 11.63-3.13 3.41-6.2 6.87-9.24 10.37-3.09 3.51-6.26 6.95-9.4 10.4a405.17 405.17 0 0 0-5.85 6.6c-3.43 3.94-6.97 7.79-10.51 11.63-3.13 3.41-6.2 6.87-9.24 10.37-3.09 3.51-6.26 6.95-9.4 10.4a405.17 405.17 0 0 0-5.85 6.6c-2.96 3.4-6 6.74-9.06 10.06-3.1 3.36-6.18 6.74-9.19 10.19-.54.62-1.08 1.24-1.65 1.87-1.19 1.39-2.36 2.8-3.51 4.22-6.14 7.34-12.92 12.02-22.15 14.72-2.8.2-2.8.2-5.75.14l-3.4-.06-3.7-.1-5.96-.1-6.4-.13c-4.48-.09-8.96-.15-13.43-.2l-2.3-.03-4.66-.05c-10.41-.12-20.82-.26-31.23-.5-7.04-.16-14.07-.26-21.11-.3-3.71-.03-7.41-.08-11.12-.2-20.8-.65-34.34 2.9-51.41 14.78a140.7 140.7 0 0 1-10.07 6.2c-2.87 1.7-5.73 3.4-8.58 5.13-10.77 6.36-22.02 8.68-34.3 5.54-11.9-4.59-17.53-11.77-23.34-22.77-1.4-2.65-2.83-5.29-4.26-7.92-5.1-9.41-10.15-18.86-15.17-28.31l-1.07-2.02-5.4-10.17c-3.41-6.47-6.87-12.92-10.43-19.32l-1.94-3.52a650 650 0 0 0-3.6-6.42c-6.35-11.52-8.93-22.36-5.72-35.3 3.21-9.47 9.86-16.12 18.32-21.18l1.71-1.03a844.27 844.27 0 0 1 8.62-5.12 2360.57 2360.57 0 0 1 13.97-8.19 77309.55 77309.55 0 0 1 30.3-17.73 3475.4 3475.4 0 0 0 30.19-17.86l2.24-1.26 2.31-1.56c5.6-2.19 10.99-1.87 16.94-1.85 1.35 0 2.7 0 4.05-.02h10.98l9.2-.02h21.7c7.44.01 14.88 0 22.32-.03 6.4-.02 12.81-.03 19.22-.02 3.82 0 7.63 0 11.45-.02 3.6-.01 7.2 0 10.8.01 1.92 0 3.85 0 5.78-.02 15.97.13 28.5 6.32 39.7 17.54 1.73 2.22 2.63 4.34 3.55 6.99a225.25 225.25 0 0 0 19.6-15.36c4.06-3.53 8.21-6.9 12.46-10.2 5.23-4.06 10.3-8.24 15.33-12.53 3.88-3.31 7.83-6.52 11.82-9.69 3.6-2.86 7.16-5.76 10.73-8.66l2.1-1.7c5.66-4.61 11.31-9.23 16.96-13.86l11-9 1.83-1.5c4.06-3.32 8.13-6.63 12.2-9.91l3.8-3.08c17.34-14.19 37.05-17.9 56.85-5.23Zm-36.56 29.22-3.66 3.33-1.79 1.65c-2.2 2-4.51 3.86-6.86 5.7-3.33 2.64-6.65 5.3-9.94 8-4.6 3.79-9.24 7.56-13.87 11.32-4.5 3.66-9.01 7.32-13.5 11-4.49 3.68-9 7.34-13.5 11a5415.21 5415.21 0 0 0-19 15.5 5785.33 5785.33 0 0 1-21.08 17.19c-7.22 5.86-7.22 5.86-14.39 11.79-2.53 2.02-2.53 2.02-5.25 3.82-6.24 4.28-8.51 8.37-10.52 15.48-3.86 13.55-12.6 22.17-24.4 29.14-9.05 4.25-17.3 5.02-27.24 5.01l-4.1.03c-3.7.03-7.38.04-11.07.04-2.31 0-4.62 0-6.93.02-8.07.02-16.14.04-24.2.03-7.5 0-15.01.03-22.52.08-6.46.04-12.92.06-19.38.05-3.85 0-7.7.01-11.56.04-3.62.03-7.24.03-10.86.01-1.95 0-3.9.02-5.85.05-6.62-.07-10.75-.46-15.5-5.3-3.44-4.42-2.64-10.15-2.15-15.48 2-4.56 4.15-6.54 8.74-8.4 4.9-1.31 10-1 15.03-.95l5.87-.02 6.27.02h13.12c11.64-.04 23.28-.04 34.93-.02 7.65.02 15.3.01 22.97-.01 4.33-.02 8.67-.01 13.01.01 3.34.01 6.69 0 10.03-.02l3.61.04c7.17-.07 12.75-1.01 18.42-5.65 4.93-6.22 6.9-12.08 6-20-2.07-6.9-6.7-11.45-12.79-15.06-2.6-1.11-4.54-1.21-7.37-1.24l-3.17-.05-3.45-.02-3.66-.05-11.99-.1-4.14-.02-17.27-.1c-8.21-.02-16.42-.08-24.64-.18-5.79-.07-11.58-.1-17.37-.11-3.45 0-6.9-.03-10.35-.08-15.93-.24-27.06-.09-39.8 10-2.3 1.46-4.66 2.8-7.03 4.15l-3.48 2.03-1.76 1.03-9.42 5.52-1.9 1.1c-6.5 3.81-13 7.63-19.47 11.5a496.5 496.5 0 0 1-14.15 8.12l-3.1 1.74c-1.95 1.1-3.92 2.18-5.9 3.24l-2.65 1.5-2.36 1.3c-2.73 2.72-2.7 5-2.78 8.78.96 3 .96 3 2.66 5.82l1.82 3.32 2.02 3.55 2.06 3.73 4.3 7.74c3.3 5.9 6.46 11.87 9.64 17.84l3.7 6.91a4598.71 4598.71 0 0 1 12.95 24.27c1.92 3.62 3.86 7.23 5.85 10.82l1.14 2.08c1.48 2.5 2.39 3.76 5.19 4.7 3.25.26 4.52-.37 7.31-2l2.7-1.56 2.91-1.72 3.03-1.76a967.93 967.93 0 0 0 16.48-9.84l3.35-2.04c2.13-1.3 4.26-2.6 6.38-3.92l2.97-1.82 2.59-1.61c8.5-4.35 15.95-4.9 25.44-4.74l4.02.03c2.86.02 5.73.06 8.6.1 4.54.05 9.08.09 13.62.11 12.9.09 25.8.2 38.7.35 7.14.08 14.28.14 21.42.17 4.5.02 9.02.08 13.52.15 2.81.04 5.62.05 8.43.06 1.9 0 3.82.05 5.74.1 5.65-.03 9.42-.07 13.58-4.16 1-1.2 1.95-2.43 2.88-3.68 1.08-1.24 2.16-2.47 3.25-3.69l1.73-2.01a444.2 444.2 0 0 1 7.52-8.3 535.2 535.2 0 0 0 10.7-11.94c3.08-3.52 6.25-6.95 9.4-10.41 1.97-2.18 3.91-4.37 5.84-6.59 3.43-3.95 6.97-7.8 10.51-11.64a385.7 385.7 0 0 0 7.55-8.42c2.94-3.4 5.96-6.7 9-10 3.64-3.96 7.24-7.95 10.77-12.02 3.53-4.04 7.14-8 10.73-11.98l4.5-5 9-10 2.24-2.5 4.58-5.07c3.38-3.75 6.75-7.5 10.06-11.3 3.45-3.97 7-7.84 10.57-11.7 3.13-3.42 6.21-6.87 9.24-10.38a231.7 231.7 0 0 1 4.25-4.67c12.22-13.09 12.22-13.09 15.89-30-.47-3.38-1.84-5.12-4.33-7.38-7.04-3.52-11.88-.32-16.88 4.5ZM275.29 5.74c5.49 4.17 8.5 8.79 11.52 15l1.16 2.3c1.5 2.98 2.96 5.95 4.42 8.94l2.7 5.4.77 1.62c1.42 2.83 1.42 2.83 3.88 4.68 2.56.8 5.1 1.2 7.74 1.54l3.32.46 5.17.7c11.75 1.56 22.76 3.64 30.7 13.42 5.97 8.36 6.89 16.96 6.08 27.03-2.16 10.7-10.47 17.62-17.82 24.94l-4.21 4.22-2.6 2.6c-2.18 2.12-2.18 2.12-3.8 4.66.1 5.29.92 10.5 1.87 15.69 2.2 11.93 4.54 24.69-2.3 35.49-4.96 6.82-11.43 12.25-19.78 14.07-2.26.2-4.51.2-6.78.23l-1.8.07c-8.32.09-15.16-3.84-22.24-7.9l-8.09-4.54-1.68-.96-1.53-.84-1.3-.73c-3.06-1.05-5.37-.75-8.32.48l-2.51 1.37-1.38.74c-1.44.77-2.88 1.56-4.32 2.36-19.15 10.43-19.15 10.43-27.26 10.14l-1.86-.04c-8.91-.35-15.18-3.73-21.48-10.04a30.14 30.14 0 0 1-8-20.31v-1.72c.13-7.15 1.48-14.19 2.74-21.2l.51-2.87.48-2.55c.74-4.34.74-4.34-.49-8.4l-1.22-1.3-1.45-1.56a673.54 673.54 0 0 0-11.97-11.83c-6.75-6.5-12.55-13.39-13.14-23.26-.25-10.78 1.67-19.08 8.97-27.3 8.28-8.1 19.27-8.75 30.12-10.34 3.07-.46 6.14-.94 9.21-1.47l2.75-.45c3.57-1.1 4.88-3.04 6.65-6.32l1.44-3.08 1.61-3.4c.84-1.76 1.67-3.52 2.49-5.3 5.08-10.89 10.46-19.36 21.76-24.34 10.24-3.69 20.2-1.55 29.27 3.9Zm-24.3 22.67a60.3 60.3 0 0 0-2.8 5.54l-.75 1.62c-.8 1.7-1.57 3.41-2.34 5.13-9.9 21.83-9.9 21.83-21.46 26.42-6.95 2.47-14.44 3.06-21.71 4-1.95.25-3.9.52-5.84.8l-1.8.21c-2.88.42-4.49.93-6.93 2.64-1.54 2.3-2.1 3.9-1.9 6.71.86 3.08 3.1 4.93 5.37 7.03l1.54 1.5c1.61 1.58 3.25 3.14 4.88 4.7 13.4 12.8 13.4 12.8 15.58 19.44l.98 2.84c1.73 8.31.22 16.89-1.36 25.08-1.72 8.74-1.72 8.74-1.87 17.6 1.96 2.64 3.5 4.08 6.74 4.55a59.1 59.1 0 0 0 5.66-2.51l1.67-.83c3.07-1.52 6.1-3.1 9.12-4.75l1.87-1.01c1.19-.65 2.37-1.3 3.55-1.97 5.65-3.1 11.28-5.2 17.78-5.15l2.48-.02c8.45.93 15.49 5.15 22.87 9.13a1622.63 1622.63 0 0 0 8.15 4.35c3.3 1.84 3.3 1.84 6.9 2.76 2.93-1.19 4.23-1.87 6-4.55.5-6.95-1.12-13.63-2.42-20.41-1.44-7.96-2.64-16.4-.11-24.26l.68-2.27c2.46-5.34 6.41-9.48 10.6-13.47l2.83-2.77a540.4 540.4 0 0 1 4.4-4.25c1.44-1.38 2.86-2.77 4.28-4.17l1.35-1.26c2.16-2.17 3.37-3.74 3.59-6.88-.31-2.98-.31-2.98-1.98-5.16-2.92-2.04-5.27-2.44-8.73-2.85-.63-.1-1.25-.18-1.9-.27-1.98-.28-3.97-.54-5.96-.8-23.74-3.14-23.74-3.14-32.47-13.66a46.03 46.03 0 0 1-4.33-7.34l-.85-1.66a223.73 223.73 0 0 1-4.45-9.3l-.9-1.96c-.56-1.26-1.12-2.51-1.66-3.78-1.54-3.43-2.85-5.73-6.12-7.77-3.87-.65-5.46.36-8.23 3.03Z"/>
  <path fill="currentColor" d="M120.38 80.82c3.72 2.79 5.76 5.87 7.8 10l.79 1.54 3 5.96c.6 1.2 1.2 2.4 1.82 3.6l.52 1.08c.96 1.89.96 1.89 2.63 3.12 1.73.53 3.45.8 5.24 1.03a1730.66 1730.66 0 0 1 5.75.77c7.95 1.04 15.41 2.43 20.78 8.95 4.04 5.57 4.67 11.3 4.12 18.02-1.46 7.13-7.09 11.75-12.07 16.63l-2.84 2.8-1.77 1.74c-1.47 1.41-1.47 1.41-2.57 3.1.07 3.53.62 7 1.27 10.46 1.49 7.96 3.07 16.47-1.57 23.66-3.35 4.56-7.73 8.17-13.38 9.38-1.53.14-3.06.14-4.6.16l-1.22.05c-5.63.06-10.26-2.56-15.05-5.26l-5.47-3.04-1.14-.64-1.04-.56-.89-.49c-2.06-.7-3.63-.5-5.63.32l-1.7.92-.93.5c-.98.5-1.95 1.04-2.92 1.56-12.97 6.96-12.97 6.96-18.46 6.77l-1.26-.03c-6.03-.23-10.28-2.49-14.54-6.7a19.92 19.92 0 0 1-5.42-13.53v-1.15c.09-4.77 1-9.46 1.86-14.14l.34-1.9.32-1.7c.5-2.9.5-2.9-.32-5.6l-.83-.88-.99-1.03c-2.67-2.66-5.36-5.3-8.1-7.89-4.57-4.33-8.5-8.93-8.9-15.5-.17-7.2 1.13-12.73 6.07-18.21 5.61-5.4 13.05-5.83 20.4-6.9 2.08-.3 4.16-.62 6.24-.97l1.86-.3c2.42-.73 3.3-2.03 4.5-4.21l.97-2.06 1.1-2.26a624.3 624.3 0 0 0 1.68-3.53c3.44-7.27 7.08-12.91 14.74-16.23 6.93-2.46 13.68-1.04 19.81 2.6Zm-16.45 15.12a40.23 40.23 0 0 0-1.9 3.7l-.5 1.07-1.6 3.42c-6.69 14.56-6.69 14.56-14.52 17.62-4.7 1.64-9.77 2.03-14.7 2.66l-3.95.53-1.22.15a9.35 9.35 0 0 0-4.7 1.76 6.16 6.16 0 0 0-1.28 4.47c.58 2.06 2.1 3.28 3.64 4.69l1.04 1 3.3 3.13c9.08 8.54 9.08 8.54 10.55 12.96l.67 1.9c1.17 5.54.14 11.25-.92 16.72-1.17 5.82-1.17 5.82-1.27 11.72 1.33 1.77 2.37 2.72 4.56 3.04 1.34-.5 2.56-1.04 3.83-1.68l1.14-.54c2.08-1.02 4.13-2.08 6.17-3.17l1.27-.68 2.4-1.3c3.82-2.08 7.64-3.47 12.04-3.44l1.68-.01c5.72.61 10.49 3.43 15.48 6.08a1107.84 1107.84 0 0 0 5.52 2.9c2.24 1.23 2.24 1.23 4.68 1.84 1.97-.79 2.86-1.25 4.05-3.04.35-4.63-.75-9.08-1.63-13.6-.98-5.3-1.79-10.94-.08-16.17l.47-1.52c1.66-3.56 4.34-6.32 7.17-8.98l1.92-1.84c.98-.95 1.98-1.9 2.98-2.84l2.9-2.78.9-.84c1.47-1.44 2.3-2.5 2.44-4.59-.21-1.98-.21-1.98-1.34-3.43-1.98-1.36-3.57-1.63-5.92-1.9l-1.27-.18c-1.35-.2-2.7-.36-4.04-.53-16.08-2.1-16.08-2.1-21.99-9.11a30.62 30.62 0 0 1-2.93-4.9l-.58-1.1a147 147 0 0 1-3.01-6.2l-.6-1.31c-.39-.84-.76-1.68-1.13-2.52-1.04-2.29-1.93-3.82-4.15-5.18-2.61-.44-3.7.24-5.57 2.02ZM415.38 80.82c3.72 2.79 5.76 5.87 7.8 10l.79 1.54 3 5.96c.6 1.2 1.2 2.4 1.82 3.6l.52 1.08c.96 1.89.96 1.89 2.63 3.12 1.73.53 3.45.8 5.24 1.03l2.25.3 3.5.47c7.95 1.04 15.41 2.43 20.78 8.95 4.05 5.57 4.67 11.3 4.12 18.02-1.46 7.13-7.09 11.75-12.06 16.63l-2.85 2.8-1.77 1.74c-1.47 1.41-1.47 1.41-2.57 3.1.07 3.53.62 7 1.27 10.46 1.49 7.96 3.07 16.47-1.57 23.66-3.35 4.56-7.73 8.17-13.38 9.38-1.53.14-3.06.14-4.6.16l-1.22.05c-5.63.06-10.26-2.56-15.05-5.26l-5.47-3.04-1.14-.64-1.04-.56-.89-.49c-2.06-.7-3.63-.5-5.63.32l-1.7.92-.93.5c-.98.5-1.95 1.04-2.92 1.56-12.97 6.96-12.97 6.96-18.46 6.77l-1.26-.03c-6.03-.23-10.28-2.49-14.54-6.7a19.92 19.92 0 0 1-5.42-13.53v-1.15c.09-4.77 1-9.46 1.86-14.14l.34-1.9.32-1.7c.5-2.9.5-2.9-.32-5.6l-.83-.88-.99-1.03c-2.67-2.66-5.36-5.3-8.1-7.89-4.57-4.33-8.5-8.93-8.9-15.5-.17-7.2 1.13-12.73 6.07-18.21 5.62-5.4 13.05-5.83 20.4-6.9 2.08-.3 4.16-.62 6.24-.97l1.86-.3c2.42-.73 3.3-2.03 4.5-4.21l.97-2.06 1.1-2.26c.56-1.17 1.13-2.35 1.68-3.53 3.44-7.27 7.08-12.91 14.74-16.23 6.93-2.46 13.68-1.04 19.81 2.6Zm-16.45 15.12a40.23 40.23 0 0 0-1.9 3.7l-.5 1.07a423.3 423.3 0 0 0-1.59 3.42c-6.7 14.56-6.7 14.56-14.53 17.62-4.7 1.64-9.77 2.03-14.7 2.66l-3.95.53-1.22.15a9.35 9.35 0 0 0-4.7 1.76 6.16 6.16 0 0 0-1.28 4.47c.58 2.06 2.1 3.28 3.64 4.69l1.04 1 3.3 3.13c9.08 8.54 9.08 8.54 10.55 12.96l.67 1.9c1.17 5.54.14 11.25-.92 16.72-1.17 5.82-1.17 5.82-1.27 11.72 1.33 1.77 2.37 2.72 4.56 3.04a40.4 40.4 0 0 0 3.83-1.68l1.14-.54a186.08 186.08 0 0 0 7.44-3.85l2.4-1.3c3.82-2.08 7.64-3.47 12.04-3.44l1.68-.01c5.72.61 10.49 3.43 15.48 6.08a1107.84 1107.84 0 0 0 5.52 2.9c2.24 1.23 2.24 1.23 4.68 1.84 1.98-.79 2.86-1.25 4.05-3.04.35-4.63-.75-9.08-1.63-13.6-.98-5.3-1.79-10.94-.08-16.17l.46-1.52c1.67-3.56 4.35-6.32 7.19-8.98l1.9-1.84 2.99-2.84 2.9-2.78.9-.84c1.47-1.44 2.3-2.5 2.44-4.59-.21-1.98-.21-1.98-1.34-3.43-1.98-1.36-3.57-1.63-5.92-1.9l-1.27-.18c-1.35-.2-2.7-.36-4.04-.53-16.08-2.1-16.08-2.1-21.99-9.11a30.62 30.62 0 0 1-2.93-4.9l-.58-1.1a147 147 0 0 1-3.01-6.2l-.6-1.31c-.39-.84-.76-1.68-1.13-2.52-1.04-2.29-1.93-3.82-4.15-5.18-2.62-.44-3.7.24-5.57 2.02Z"/>
</svg>