<svg xmlns="http://www.w3.org/2000/svg" fill="none" viewBox="0 0 512 512"><path fill="#000" d="M275.29 44.737c5.488 4.175 8.505 8.793 11.519 14.996l1.162 2.314c1.491 2.968 2.961 5.947 4.424 8.93a766.47 766.47 0 0 0 2.691 5.4l.773 1.619c1.421 2.836 1.421 2.836 3.882 4.685 2.556.8 5.096 1.196 7.741 1.537l3.319.463c1.721.234 3.443.466 5.165.693 11.752 1.565 22.768 3.645 30.701 13.431 5.972 8.354 6.893 16.959 6.08 27.028-2.154 10.694-10.467 17.621-17.818 24.941-1.404 1.404-2.808 2.808-4.209 4.215-.867.87-1.737 1.738-2.608 2.604-2.171 2.117-2.171 2.117-3.798 4.656.105 5.289.923 10.497 1.879 15.686 2.197 11.93 4.539 24.692-2.312 35.49-4.949 6.827-11.424 12.255-19.769 14.071-2.258.2-4.515.21-6.781.237l-1.805.067c-8.319.087-15.158-3.835-22.232-7.891a1690.018 1690.018 0 0 0-8.09-4.552l-1.68-.96-1.538-.842-1.304-.729c-3.049-1.05-5.363-.75-8.312.481l-2.511 1.371-1.375.738a547.751 547.751 0 0 0-4.324 2.359c-19.145 10.439-19.145 10.439-27.264 10.148l-1.851-.04c-8.915-.353-15.182-3.738-21.484-10.043-5.096-5.658-7.968-12.632-7.997-20.312l-.008-1.714c.133-7.155 1.48-14.189 2.746-21.211l.513-2.858.474-2.554c.737-4.339.737-4.339-.485-8.4l-1.226-1.304-1.452-1.56c-3.946-3.983-7.922-7.94-11.965-11.822-6.756-6.506-12.551-13.395-13.139-23.262-.256-10.785 1.666-19.08 8.964-27.31 8.287-8.088 19.272-8.745 30.122-10.338 3.077-.453 6.147-.936 9.213-1.469l2.75-.45c3.572-1.09 4.875-3.036 6.647-6.314.485-1.025.963-2.052 1.437-3.08l1.618-3.394a933.238 933.238 0 0 0 2.486-5.303c5.082-10.895 10.46-19.363 21.763-24.345 10.239-3.687 20.205-1.55 29.268 3.897Zm-24.302 22.678a60.309 60.309 0 0 0-2.8 5.533l-.752 1.622a678.545 678.545 0 0 0-2.341 5.126c-9.893 21.834-9.893 21.834-21.459 26.423-6.95 2.47-14.433 3.057-21.706 3.993-1.948.255-3.893.529-5.838.805l-1.797.214c-2.888.42-4.491.926-6.936 2.642-1.539 2.304-2.093 3.906-1.902 6.709.86 3.081 3.106 4.923 5.377 7.028l1.533 1.502a470.142 470.142 0 0 0 4.888 4.692c13.4 12.81 13.4 12.81 15.573 19.441l.982 2.845c1.726 8.313.218 16.886-1.356 25.084-1.724 8.734-1.724 8.734-1.871 17.592 1.958 2.647 3.498 4.08 6.734 4.552a59.106 59.106 0 0 0 5.659-2.513l1.675-.82a270.122 270.122 0 0 0 9.122-4.752l1.871-1.015a312.825 312.825 0 0 0 3.542-1.965c5.649-3.112 11.286-5.198 17.787-5.152l2.479-.017c8.449.925 15.487 5.146 22.868 9.121 1.679.9 3.358 1.797 5.04 2.691 1.04.553 2.077 1.109 3.113 1.669 3.301 1.834 3.301 1.834 6.905 2.753 2.917-1.183 4.223-1.872 5.986-4.552.506-6.945-1.109-13.621-2.412-20.409-1.447-7.955-2.641-16.403-.114-24.258l.684-2.27c2.457-5.342 6.41-9.479 10.604-13.473.941-.92 1.881-1.84 2.821-2.762a552.392 552.392 0 0 1 4.404-4.254 391.65 391.65 0 0 0 4.279-4.174l1.346-1.256c2.164-2.165 3.376-3.742 3.59-6.882-.309-2.979-.309-2.979-1.978-5.155-2.915-2.046-5.265-2.444-8.733-2.856l-1.888-.268c-1.986-.28-3.974-.54-5.963-.796-23.744-3.143-23.744-3.143-32.473-13.665-1.739-2.302-3.039-4.76-4.33-7.34l-.853-1.658a223.727 223.727 0 0 1-4.452-9.299l-.892-1.964a269.84 269.84 0 0 1-1.664-3.774c-1.537-3.436-2.846-5.732-6.122-7.773-3.865-.653-5.46.36-8.23 3.035Z"/><path fill="#000" d="M120.384 119.825c3.715 2.783 5.758 5.862 7.799 9.997l.787 1.543a675.413 675.413 0 0 1 2.995 5.953 551.813 551.813 0 0 0 1.823 3.6l.523 1.079c.962 1.891.962 1.891 2.628 3.124 1.731.533 3.451.797 5.241 1.025l2.247.308c1.166.156 2.332.31 3.498.462 7.957 1.043 15.416 2.43 20.787 8.954 4.043 5.569 4.667 11.306 4.116 18.019-1.458 7.129-7.086 11.747-12.063 16.627-.951.936-1.902 1.872-2.85 2.81-.588.58-1.176 1.159-1.766 1.736-1.47 1.412-1.47 1.412-2.572 3.104.071 3.526.625 6.998 1.273 10.457 1.487 7.954 3.073 16.462-1.566 23.66-3.351 4.552-7.735 8.171-13.385 9.381-1.529.133-3.058.14-4.592.158l-1.222.044c-5.632.059-10.263-2.556-15.052-5.26a1332.51 1332.51 0 0 0-5.478-3.035l-1.137-.64-1.042-.561-.883-.486c-2.065-.7-3.631-.5-5.628.32l-1.7.915-.931.492c-.979.518-1.954 1.045-2.928 1.572-12.963 6.96-12.963 6.96-18.46 6.765l-1.253-.026c-6.037-.235-10.28-2.492-14.546-6.695-3.451-3.772-5.396-8.422-5.415-13.542l-.006-1.142c.09-4.771 1.003-9.459 1.86-14.141l.347-1.905.321-1.703c.5-2.893.5-2.893-.328-5.6l-.83-.869-.984-1.04a454.858 454.858 0 0 0-8.1-7.882c-4.576-4.337-8.499-8.93-8.897-15.508-.173-7.19 1.128-12.72 6.07-18.206 5.61-5.392 13.048-5.83 20.394-6.892 2.084-.303 4.163-.624 6.238-.979l1.862-.301c2.419-.726 3.301-2.023 4.5-4.209.329-.683.653-1.368.974-2.054l1.096-2.262a641.051 641.051 0 0 0 1.683-3.535c3.44-7.264 7.082-12.909 14.735-16.23 6.933-2.458 13.68-1.034 19.817 2.598Zm-16.455 15.118a40.25 40.25 0 0 0-1.896 3.689l-.509 1.081a441.263 441.263 0 0 0-1.585 3.418c-6.698 14.556-6.698 14.556-14.529 17.615-4.706 1.647-9.773 2.038-14.697 2.662-1.319.17-2.635.353-3.953.537l-1.217.142c-1.955.28-3.04.618-4.696 1.762-1.042 1.536-1.417 2.604-1.288 4.473.583 2.054 2.103 3.282 3.641 4.685l1.038 1.001a312.27 312.27 0 0 0 3.31 3.128c9.073 8.54 9.073 8.54 10.544 12.961l.665 1.897c1.169 5.542.147 11.257-.918 16.722-1.168 5.823-1.168 5.823-1.267 11.728 1.326 1.765 2.368 2.72 4.56 3.035a40.32 40.32 0 0 0 3.83-1.676l1.135-.546a185.21 185.21 0 0 0 6.176-3.168l1.267-.677c.802-.432 1.602-.868 2.398-1.31 3.825-2.074 7.642-3.466 12.044-3.434l1.678-.012c5.721.617 10.486 3.431 15.484 6.081 1.136.6 2.274 1.198 3.412 1.794.704.368 1.407.739 2.108 1.113 2.235 1.222 2.235 1.222 4.675 1.835 1.976-.789 2.86-1.248 4.053-3.035.343-4.63-.75-9.081-1.633-13.606-.98-5.303-1.788-10.936-.077-16.172l.463-1.513c1.664-3.562 4.34-6.32 7.18-8.982l1.91-1.842c.989-.95 1.981-1.897 2.982-2.836.975-.918 1.937-1.849 2.897-2.782l.911-.837c1.465-1.444 2.286-2.495 2.431-4.589-.209-1.986-.209-1.986-1.339-3.436-1.974-1.364-3.565-1.629-5.913-1.904l-1.278-.179c-1.345-.187-2.691-.36-4.038-.53-16.077-2.096-16.077-2.096-21.987-9.111-1.177-1.534-2.058-3.174-2.932-4.893l-.577-1.105a147.009 147.009 0 0 1-3.015-6.2l-.604-1.309c-.382-.836-.757-1.674-1.126-2.516-1.041-2.291-1.927-3.821-4.145-5.182-2.617-.435-3.697.24-5.573 2.023ZM415.384 119.825c3.715 2.783 5.758 5.862 7.799 9.997l.787 1.543a675.413 675.413 0 0 1 2.995 5.953 551.813 551.813 0 0 0 1.823 3.6l.523 1.079c.962 1.891.962 1.891 2.628 3.124 1.731.533 3.451.797 5.241 1.025l2.247.308c1.166.156 2.332.31 3.498.462 7.957 1.043 15.416 2.43 20.787 8.954 4.043 5.569 4.667 11.306 4.116 18.019-1.458 7.129-7.086 11.747-12.063 16.627-.951.936-1.902 1.872-2.85 2.81-.588.58-1.176 1.159-1.766 1.736-1.47 1.412-1.47 1.412-2.572 3.104.071 3.526.625 6.998 1.273 10.457 1.487 7.954 3.073 16.462-1.566 23.66-3.351 4.552-7.735 8.171-13.385 9.381-1.529.133-3.058.14-4.592.158l-1.222.044c-5.632.059-10.263-2.556-15.052-5.26a1332.51 1332.51 0 0 0-5.478-3.035l-1.137-.64-1.042-.561-.883-.486c-2.065-.7-3.631-.5-5.628.32l-1.7.915-.931.492c-.979.518-1.954 1.045-2.928 1.572-12.963 6.96-12.963 6.96-18.459 6.765l-1.254-.026c-6.036-.235-10.279-2.492-14.546-6.695-3.451-3.772-5.396-8.422-5.415-13.542l-.006-1.142c.091-4.771 1.003-9.459 1.86-14.141l.347-1.905.321-1.703c.499-2.893.499-2.893-.328-5.6l-.83-.869-.984-1.04a452.817 452.817 0 0 0-8.101-7.882c-4.575-4.337-8.498-8.93-8.896-15.508-.173-7.19 1.128-12.72 6.069-18.206 5.611-5.392 13.049-5.83 20.395-6.892a251.88 251.88 0 0 0 6.238-.979l1.862-.301c2.419-.726 3.301-2.023 4.501-4.209.328-.683.652-1.368.973-2.054l1.095-2.262a600.372 600.372 0 0 0 1.684-3.535c3.44-7.264 7.082-12.909 14.735-16.23 6.933-2.458 13.68-1.034 19.817 2.598Zm-16.455 15.118a40.25 40.25 0 0 0-1.896 3.689l-.509 1.081a423.306 423.306 0 0 0-1.584 3.418c-6.699 14.556-6.699 14.556-14.53 17.615-4.706 1.647-9.773 2.038-14.697 2.662-1.319.17-2.636.353-3.953.537l-1.217.142c-1.955.28-3.04.618-4.696 1.762-1.042 1.536-1.417 2.604-1.287 4.473.582 2.054 2.102 3.282 3.64 4.685l1.038 1.001a315.235 315.235 0 0 0 3.31 3.128c9.072 8.54 9.072 8.54 10.544 12.961l.665 1.897c1.169 5.542.147 11.257-.918 16.722-1.168 5.823-1.168 5.823-1.267 11.728 1.326 1.765 2.368 2.72 4.56 3.035a40.404 40.404 0 0 0 3.831-1.676l1.134-.546a186.082 186.082 0 0 0 6.176-3.168l1.267-.677c.802-.432 1.602-.868 2.398-1.31 3.825-2.074 7.642-3.466 12.044-3.434l1.678-.012c5.721.617 10.486 3.431 15.484 6.081 1.136.6 2.274 1.198 3.412 1.794.704.368 1.407.739 2.108 1.113 2.235 1.222 2.235 1.222 4.675 1.835 1.976-.789 2.86-1.248 4.053-3.035.343-4.63-.75-9.081-1.633-13.606-.98-5.303-1.788-10.936-.077-16.172l.463-1.513c1.664-3.562 4.34-6.32 7.18-8.982l1.91-1.842c.989-.95 1.981-1.897 2.982-2.836.975-.918 1.937-1.849 2.897-2.782l.911-.837c1.465-1.444 2.286-2.495 2.431-4.589-.209-1.986-.209-1.986-1.339-3.436-1.974-1.364-3.565-1.629-5.913-1.904l-1.278-.179c-1.345-.187-2.691-.36-4.038-.53-16.077-2.096-16.077-2.096-21.987-9.111-1.177-1.534-2.058-3.174-2.932-4.893l-.577-1.105a147.009 147.009 0 0 1-3.015-6.2l-.604-1.309c-.382-.836-.757-1.674-1.126-2.516-1.041-2.291-1.927-3.821-4.145-5.182-2.617-.435-3.697.24-5.573 2.023ZM63.366 278.797c9.95-5.253 20.894-5.305 31.514-2.05 9.123 2.796 17.903 2.107 26.532.704 3.655-.594 9.096-1.669 12.942-2.102 3.306-.372 10.408-1.061 16.865 2.586l.623.366.327.207c5.571 3.614 7.972 10.343 6.317 16.48 11.629-.526 25.63 3.16 42.284 11.709 11.565 5.937 19.321 10.56 25.071 14.137 6.212 3.864 8.59 5.501 11.109 6.733 3.179 1.554 5.887 2.327 27.154 2.327 9.369 0 17.796-.878 25.916-1.682 7.519-.746 16.137-1.619 23.667-.69 8.382 1.034 17.39 4.534 23.417 13.816 3.476 5.351 5.313 11.708 6.165 18.641l70.537-34.179.276-.133.281-.122c9.258-4.028 25.015-8.71 39.265-5.547 7.765 1.723 15.826 5.992 21.137 14.496 4.99 7.991 6.313 17.758 5.245 28.287-.219 9.138-3.804 17.516-8.522 24.71-4.899 7.471-11.594 14.556-19.138 21.157-15.085 13.199-35.244 25.909-56.445 37.163-42.229 22.416-91.805 40.717-120.47 45.854-31.636 5.669-53.126-4.227-69.796-14.196-8.777-5.248-14.102-9.061-20.561-12.31-5.73-2.883-10.291-4.124-14.93-3.909-24.474 1.135-41.314.63-48.491.073-14.655 1.209-36.085-.682-54.686-10.988-20.364-11.283-36.16-32.137-36.16-65.336 0-34.707 3.312-63.341 11.997-82.521 4.443-9.813 10.945-18.605 20.558-23.681ZM86.09 305.43c-4.947-1.516-7.372-.813-8.717-.103-1.681.888-4.404 3.27-7.236 9.526-5.868 12.96-9.325 36.053-9.325 70.146 0 21.84 9.474 32.876 20.698 39.094 12.364 6.851 28.024 8.3 38.628 7.246l1.474-.146 1.475.145c4.13.405 20.072 1.131 45.672-.056 11.606-.538 21.429 2.865 29.8 7.076 7.642 3.844 16.137 9.574 22.476 13.364 13.563 8.111 27.497 14.285 49.109 10.412 24.581-4.405 71.121-21.283 111.696-42.821 20.201-10.723 38.116-22.184 50.755-33.243 6.317-5.527 10.897-10.592 13.806-15.029 2.94-4.483 3.619-7.464 3.62-9.143v-.84l.093-.835c.769-6.846-.491-9.352-.795-9.838-.108-.172-.362-.694-2.192-1.1-2.133-.474-5.383-.485-9.519.284-3.92.729-7.849 2.014-11.052 3.389l-93.979 45.54a14.927 14.927 0 0 1-8.534 1.368c-3.707 2.099-7.791 3.574-12.27 4.583-7.336 1.653-16.135 2.154-26.635 2.13-9.303-.021-20.676-.467-34.588-1.16l-6.119-.312-.387-.025c-8.084-.626-14.238-7.589-13.815-15.733.422-8.144 7.265-14.433 15.37-14.218l.386.016 6.101.311c13.794.686 24.548 1.101 33.12 1.121 9.928.022 16.004-.502 19.972-1.396 3.545-.799 4.7-1.733 5.37-2.391.821-.808 1.804-2.137 3.273-4.933-.29-6.872-1.431-9.463-1.854-10.144-.235-.092-.819-.279-1.954-.419-3.549-.438-8.569-.069-17.034.77-7.866.78-17.774 1.828-28.875 1.828-19.674 0-29.789-.221-40.333-5.377-4.341-2.123-9.05-5.271-13.775-8.21-5.188-3.227-12.223-7.426-22.928-12.922-16.43-8.434-25.274-8.854-28.871-8.261-.809.133-1.319.299-1.617.425-2.816 7.155-10.682 11.096-18.196 8.878-7.946-2.345-12.486-10.687-10.141-18.632l.142-.463c1.101-3.484 2.958-6.748 5.488-9.598-1.97.342-4.314.786-7.646 1.328-10.058 1.635-24.352 3.206-40.137-1.632Z"/></svg>