<svg xmlns="http://www.w3.org/2000/svg" fill="none" viewBox="0 0 512 512"><path fill="currentColor" d="M493.756 286.37c6.744 8.487 8.894 18.559 8.407 29.267-1.704 14.73-9.253 28.269-20.795 37.521-8.899 6.639-18.372 12.465-27.794 18.322-3.439 2.142-6.808 4.374-10.158 6.652-3.016 2.012-6.078 3.95-9.141 5.89a535.977 535.977 0 0 0-13.417 8.767c-3.891 2.595-7.841 5.096-11.779 7.617a406.956 406.956 0 0 0-7.347 4.854c-4.334 2.926-8.75 5.721-13.167 8.521a478.86 478.86 0 0 0-11.609 7.62c-3.89 2.595-7.841 5.096-11.779 7.618a403.328 403.328 0 0 0-7.346 4.853c-4.335 2.927-8.75 5.722-13.167 8.521a476.948 476.948 0 0 0-11.609 7.621c-3.891 2.594-7.841 5.096-11.779 7.617a406.956 406.956 0 0 0-7.347 4.854c-3.742 2.527-7.544 4.957-11.358 7.374-3.863 2.449-7.714 4.911-11.511 7.462l-2.078 1.389a194.347 194.347 0 0 0-4.486 3.157c-7.831 5.51-15.59 8.277-25.204 8.489-2.763-.529-2.763-.529-5.588-1.353l-3.274-.937-3.543-1.045-5.735-1.649c-2.05-.591-4.1-1.185-6.149-1.78a1609.72 1609.72 0 0 0-12.921-3.671l-2.215-.621-4.484-1.258c-10.028-2.811-20.049-5.635-30.044-8.56a1274.934 1274.934 0 0 0-20.306-5.76 431.48 431.48 0 0 1-10.693-3.067c-19.913-6.006-33.915-6.095-53.483.971-3.736 1.331-7.5 2.37-11.333 3.384a1602.79 1602.79 0 0 0-9.614 2.728c-12.044 3.361-23.519 2.686-34.569-3.522-10.295-7.513-13.884-15.914-16.64-28.035a791.893 791.893 0 0 0-2.07-8.753c-2.496-10.413-4.921-20.843-7.326-31.278l-.513-2.226c-.86-3.738-1.719-7.477-2.572-11.217-1.632-7.137-3.3-14.261-5.079-21.364a6534.62 6534.62 0 0 1-.963-3.898 660.216 660.216 0 0 0-1.813-7.134c-3.153-12.776-2.848-23.911 3.606-35.576 5.554-8.319 13.698-13.017 23.179-15.72l1.918-.552a876.235 876.235 0 0 1 5.954-1.678l3.7-1.038c3.795-1.057 7.594-2.098 11.395-3.135l4.214-1.154 8.73-2.391c6.343-1.735 12.683-3.477 19.024-5.221l6.093-1.674a3549.286 3549.286 0 0 0 22.359-6.213c2.082-.585 4.163-1.172 6.244-1.762l2.793-.785 2.395-.678 2.492-.642a3607.6 3607.6 0 0 0 2.635-.902c5.966-.671 11.096 1.036 16.84 2.597a1671.965 1671.965 0 0 1 14.527 3.859c2.959.796 5.919 1.583 8.88 2.37 6.993 1.86 13.983 3.734 20.969 5.618a4333.02 4333.02 0 0 0 21.568 5.748 4572.21 4572.21 0 0 1 18.569 4.952c3.687.992 7.375 1.977 11.067 2.949 3.479.916 6.951 1.851 10.421 2.8 1.863.504 3.731.99 5.599 1.475 15.388 4.262 25.889 13.484 33.797 27.214 1.103 2.594 1.423 4.875 1.627 7.675 7.882-2.831 15.386-6.095 22.901-9.768a291.558 291.558 0 0 1 14.685-6.625c6.094-2.562 12.085-5.289 18.052-8.134a431.564 431.564 0 0 1 13.921-6.298c4.213-1.836 8.408-3.711 12.603-5.589l2.468-1.104c6.663-2.985 13.32-5.985 19.973-8.994 4.316-1.953 8.635-3.901 12.954-5.846l2.16-.976c4.776-2.157 9.559-4.297 14.351-6.416a711.57 711.57 0 0 0 4.457-1.995c20.427-9.207 40.422-7.688 56.271 9.668Zm-42.872 18.762a1830.16 1830.16 0 0 1-4.405 2.269l-2.153 1.133c-2.651 1.365-5.36 2.561-8.101 3.735a721.01 721.01 0 0 0-11.669 5.155 3666.486 3666.486 0 0 1-16.33 7.336c-5.3 2.368-10.598 4.74-15.887 7.131a3757.34 3757.34 0 0 1-15.887 7.131 5393.636 5393.636 0 0 0-22.365 10.055 5743.051 5743.051 0 0 1-24.814 11.148c-8.491 3.793-8.491 3.793-16.946 7.665-2.968 1.295-2.968 1.295-6.06 2.331-7.134 2.523-10.39 5.878-14.174 12.229-7.233 12.095-17.907 18.157-31.111 21.832-9.839 1.769-18.012.376-27.601-2.205a1699.959 1699.959 0 0 1-14.677-3.864c-2.232-.596-4.464-1.187-6.697-1.777-7.8-2.062-15.595-4.138-23.388-6.228a3483.421 3483.421 0 0 0-21.767-5.753 3019.42 3019.42 0 0 1-18.738-4.965c-3.72-.998-7.442-1.986-11.171-2.953a775.037 775.037 0 0 1-10.489-2.802 368.79 368.79 0 0 0-5.673-1.472c-6.368-1.78-10.264-3.225-13.591-9.127-2.184-5.165.075-10.488 1.926-15.512 3.107-3.881 5.701-5.24 10.618-5.845 5.07-.003 9.911 1.622 14.762 2.963l5.67 1.508c2.021.541 4.039 1.088 6.057 1.638 4.219 1.147 8.444 2.27 12.67 3.389 11.255 2.985 22.501 6 33.743 9.032a4340.251 4340.251 0 0 0 22.191 5.927 1402.71 1402.71 0 0 1 12.568 3.385c3.226.877 6.461 1.723 9.695 2.574l3.475.973c6.947 1.788 12.573 2.321 19.254-.692 6.374-4.729 9.792-9.884 10.972-17.766-.218-7.196-3.5-12.794-8.455-17.855-2.232-1.748-4.075-2.347-6.802-3.109l-3.044-.865-3.332-.915-3.517-.988c-3.849-1.078-7.702-2.14-11.556-3.198l-3.996-1.1c-5.55-1.527-11.1-3.048-16.655-4.556a2708.358 2708.358 0 0 1-23.752-6.557 1646.592 1646.592 0 0 0-16.756-4.605 687.558 687.558 0 0 1-9.974-2.76c-15.322-4.347-26.114-7.083-41.033-.629-2.607.808-5.225 1.49-7.868 2.179-1.295.353-2.59.708-3.884 1.065l-1.961.536c-3.512.961-7.024 1.926-10.535 2.89l-2.118.581c-7.265 1.996-14.528 4-21.777 6.056a496.013 496.013 0 0 1-15.775 4.191l-3.437.88a326.53 326.53 0 0 1-6.545 1.601l-2.952.767-2.606.636c-3.345 1.928-3.908 4.127-4.962 7.761.149 3.141.149 3.141 1.058 6.314l.904 3.681 1.033 3.943c.345 1.379.687 2.759 1.028 4.14.709 2.866 1.427 5.729 2.152 8.591 1.652 6.554 3.162 13.14 4.688 19.724l1.791 7.638c1.112 4.746 2.217 9.493 3.314 14.243.655 2.835 1.313 5.671 1.971 8.506.312 1.347.623 2.695.932 4.043a682.355 682.355 0 0 0 2.855 11.962l.558 2.302c.787 2.8 1.335 4.252 3.8 5.886 3.068 1.098 4.459.814 7.58-.039l3.019-.801 3.249-.917 3.38-.909c6.176-1.677 12.323-3.45 18.466-5.248l3.762-1.097a777.54 777.54 0 0 0 7.176-2.141l3.346-.99 2.915-.882c9.338-2.004 16.677-.612 25.798 2.005 1.291.359 2.582.716 3.874 1.072 2.764.764 5.526 1.537 8.286 2.317 4.369 1.233 8.745 2.439 13.123 3.64a7073.816 7073.816 0 0 1 37.298 10.353 2890.82 2890.82 0 0 0 20.641 5.71c4.35 1.188 8.69 2.405 13.026 3.645 2.701.764 5.409 1.5 8.121 2.229 1.845.505 3.681 1.043 5.517 1.582 5.471 1.44 9.123 2.381 14.201-.495a95.086 95.086 0 0 0 3.732-2.814 397.612 397.612 0 0 1 4.093-2.72l2.196-1.495c3.104-2.076 6.254-4.075 9.408-6.072a534.24 534.24 0 0 0 13.418-8.768c3.891-2.594 7.841-5.096 11.779-7.617a401.68 401.68 0 0 0 7.347-4.854c4.335-2.926 8.751-5.722 13.169-8.522a383.338 383.338 0 0 0 9.47-6.182c3.716-2.514 7.492-4.928 11.282-7.33 4.544-2.88 9.05-5.807 13.508-8.819 4.455-2.987 8.969-5.883 13.471-8.798l5.641-3.665 11.281-7.33 2.811-1.827a5632.17 5632.17 0 0 1 5.736-3.72c4.233-2.743 8.459-5.493 12.638-8.317 4.362-2.938 8.802-5.75 13.244-8.565a444.89 444.89 0 0 0 11.606-7.626 234.878 234.878 0 0 1 5.314-3.412c15.192-9.478 15.192-9.478 23.115-24.869.424-3.383-.457-5.417-2.271-8.248-5.889-5.222-11.389-3.379-17.465-.021ZM275.29 25.737c5.488 4.175 8.505 8.793 11.519 14.996l1.162 2.314c1.491 2.968 2.961 5.947 4.424 8.93a766.47 766.47 0 0 0 2.691 5.4l.773 1.619c1.421 2.836 1.421 2.836 3.882 4.685 2.556.8 5.097 1.196 7.741 1.537l3.319.463c1.721.234 3.443.466 5.165.693 11.752 1.565 22.768 3.645 30.701 13.431 5.972 8.354 6.893 16.96 6.08 27.028-2.154 10.694-10.467 17.621-17.818 24.941-1.404 1.404-2.808 2.808-4.209 4.215-.867.87-1.737 1.738-2.608 2.604-2.171 2.117-2.171 2.117-3.798 4.656.105 5.289.923 10.497 1.879 15.686 2.197 11.93 4.539 24.692-2.312 35.49-4.949 6.827-11.424 12.255-19.769 14.071-2.258.2-4.515.21-6.781.237l-1.805.067c-8.319.087-15.158-3.835-22.232-7.891a1690.018 1690.018 0 0 0-8.09-4.552l-1.68-.96-1.538-.842-1.304-.729c-3.049-1.05-5.363-.75-8.312.481l-2.511 1.371-1.375.738a547.751 547.751 0 0 0-4.324 2.359c-19.145 10.439-19.145 10.439-27.264 10.148l-1.851-.04c-8.915-.353-15.182-3.738-21.484-10.043-5.096-5.658-7.968-12.632-7.997-20.312l-.008-1.714c.133-7.155 1.48-14.189 2.746-21.211l.513-2.858.474-2.554c.737-4.339.737-4.339-.485-8.4l-1.226-1.304-1.452-1.56c-3.946-3.983-7.922-7.94-11.965-11.822-6.756-6.506-12.551-13.395-13.139-23.262-.256-10.785 1.666-19.08 8.964-27.31 8.287-8.088 19.272-8.745 30.122-10.338 3.077-.453 6.147-.936 9.213-1.469l2.75-.45c3.572-1.09 4.875-3.036 6.647-6.314.485-1.025.963-2.052 1.437-3.08l1.618-3.394a933.238 933.238 0 0 0 2.486-5.303c5.082-10.895 10.46-19.363 21.763-24.345 10.239-3.687 20.205-1.55 29.268 3.897Zm-24.302 22.678a60.309 60.309 0 0 0-2.8 5.533l-.752 1.622a678.545 678.545 0 0 0-2.341 5.126c-9.893 21.834-9.893 21.834-21.459 26.423-6.95 2.47-14.433 3.057-21.706 3.993-1.948.255-3.893.529-5.838.805l-1.797.214c-2.888.42-4.491.926-6.936 2.642-1.539 2.304-2.093 3.906-1.902 6.709.86 3.081 3.106 4.923 5.377 7.028l1.533 1.502a470.142 470.142 0 0 0 4.888 4.692c13.4 12.81 13.4 12.81 15.573 19.441l.982 2.845c1.726 8.313.218 16.886-1.356 25.084-1.724 8.734-1.724 8.734-1.871 17.592 1.958 2.647 3.498 4.08 6.734 4.552a59.106 59.106 0 0 0 5.659-2.513l1.675-.82a270.122 270.122 0 0 0 9.122-4.752l1.871-1.015a312.825 312.825 0 0 0 3.542-1.965c5.649-3.112 11.286-5.198 17.787-5.152l2.479-.017c8.449.925 15.487 5.146 22.868 9.121 1.679.9 3.358 1.797 5.04 2.691 1.04.553 2.077 1.109 3.113 1.669 3.301 1.834 3.301 1.834 6.905 2.753 2.917-1.183 4.223-1.872 5.986-4.552.506-6.945-1.109-13.621-2.412-20.409-1.447-7.955-2.641-16.403-.114-24.258l.684-2.27c2.457-5.342 6.41-9.479 10.604-13.473.941-.92 1.881-1.84 2.821-2.762a552.392 552.392 0 0 1 4.404-4.254 391.65 391.65 0 0 0 4.279-4.174l1.346-1.256c2.164-2.165 3.376-3.742 3.59-6.882-.309-2.98-.309-2.98-1.978-5.155-2.915-2.046-5.265-2.444-8.733-2.856l-1.888-.268a492.73 492.73 0 0 0-5.963-.796c-23.744-3.143-23.744-3.143-32.473-13.665-1.739-2.302-3.039-4.76-4.33-7.34l-.853-1.658a223.727 223.727 0 0 1-4.452-9.299l-.892-1.964a269.84 269.84 0 0 1-1.664-3.774c-1.537-3.436-2.846-5.732-6.122-7.773-3.865-.653-5.46.36-8.23 3.035Z"/><path fill="currentColor" d="M120.384 100.825c3.715 2.783 5.758 5.862 7.799 9.997l.787 1.543a675.413 675.413 0 0 1 2.995 5.953 551.813 551.813 0 0 0 1.823 3.6l.523 1.079c.962 1.891.962 1.891 2.628 3.124 1.731.533 3.451.797 5.241 1.025l2.247.308c1.166.156 2.332.31 3.498.462 7.957 1.043 15.416 2.43 20.787 8.954 4.043 5.569 4.667 11.306 4.116 18.019-1.458 7.129-7.086 11.747-12.063 16.627-.951.936-1.902 1.872-2.85 2.81-.588.58-1.176 1.159-1.766 1.736-1.47 1.412-1.47 1.412-2.572 3.104.071 3.526.625 6.998 1.273 10.457 1.487 7.954 3.073 16.462-1.566 23.66-3.351 4.552-7.735 8.171-13.385 9.381-1.529.133-3.058.14-4.592.158l-1.222.044c-5.632.059-10.263-2.556-15.052-5.26a1332.51 1332.51 0 0 0-5.478-3.035l-1.137-.64-1.042-.561-.883-.486c-2.065-.7-3.631-.5-5.628.32l-1.7.915-.931.492c-.979.518-1.954 1.045-2.928 1.572-12.963 6.96-12.963 6.96-18.46 6.765l-1.253-.026c-6.037-.235-10.28-2.492-14.546-6.695-3.451-3.772-5.396-8.422-5.415-13.542l-.006-1.142c.09-4.771 1.003-9.459 1.86-14.141l.347-1.905.321-1.703c.5-2.893.5-2.893-.328-5.6l-.83-.869-.984-1.04a454.858 454.858 0 0 0-8.1-7.882c-4.576-4.337-8.499-8.93-8.897-15.508-.173-7.19 1.128-12.72 6.07-18.206 5.61-5.392 13.048-5.83 20.394-6.892 2.084-.303 4.163-.624 6.238-.979l1.862-.301c2.419-.726 3.301-2.023 4.5-4.209.329-.683.653-1.368.974-2.054l1.096-2.262a641.051 641.051 0 0 0 1.683-3.535c3.44-7.264 7.082-12.909 14.735-16.23 6.933-2.458 13.68-1.034 19.817 2.598Zm-16.455 15.118a40.25 40.25 0 0 0-1.896 3.689l-.509 1.081a441.263 441.263 0 0 0-1.585 3.418c-6.698 14.556-6.698 14.556-14.529 17.615-4.706 1.647-9.773 2.038-14.697 2.662-1.319.17-2.635.353-3.953.537l-1.217.142c-1.955.28-3.04.618-4.696 1.762-1.042 1.536-1.417 2.604-1.288 4.473.583 2.054 2.103 3.282 3.641 4.685l1.038 1.001a312.27 312.27 0 0 0 3.31 3.128c9.073 8.54 9.073 8.54 10.544 12.961l.665 1.897c1.169 5.542.147 11.257-.918 16.722-1.168 5.823-1.168 5.823-1.267 11.728 1.326 1.765 2.368 2.72 4.56 3.035a40.32 40.32 0 0 0 3.83-1.676l1.135-.546a185.21 185.21 0 0 0 6.176-3.168l1.267-.677c.802-.432 1.602-.868 2.398-1.31 3.825-2.074 7.642-3.466 12.044-3.434l1.678-.012c5.721.617 10.486 3.431 15.484 6.081 1.136.6 2.274 1.198 3.412 1.794.704.368 1.407.739 2.108 1.113 2.235 1.222 2.235 1.222 4.675 1.835 1.976-.789 2.86-1.248 4.053-3.035.343-4.63-.75-9.081-1.633-13.606-.98-5.303-1.788-10.936-.077-16.172l.463-1.513c1.664-3.562 4.34-6.32 7.18-8.982l1.91-1.842c.989-.95 1.981-1.897 2.982-2.836.975-.918 1.937-1.849 2.897-2.782l.911-.837c1.465-1.444 2.286-2.495 2.431-4.589-.209-1.986-.209-1.986-1.339-3.436-1.974-1.364-3.565-1.629-5.913-1.904l-1.278-.179c-1.345-.187-2.691-.36-4.038-.53-16.077-2.096-16.077-2.096-21.987-9.111-1.177-1.534-2.058-3.174-2.932-4.893l-.577-1.105a148.245 148.245 0 0 1-3.015-6.2l-.604-1.309c-.382-.836-.757-1.674-1.126-2.516-1.041-2.291-1.927-3.821-4.145-5.182-2.617-.435-3.697.24-5.573 2.023ZM415.384 100.825c3.715 2.783 5.758 5.862 7.799 9.997l.787 1.543a675.413 675.413 0 0 1 2.995 5.953 551.813 551.813 0 0 0 1.823 3.6l.523 1.079c.962 1.891.962 1.891 2.628 3.124 1.731.533 3.451.797 5.241 1.025l2.247.308c1.166.156 2.332.31 3.498.462 7.957 1.043 15.416 2.43 20.787 8.954 4.043 5.569 4.667 11.306 4.116 18.019-1.458 7.129-7.086 11.747-12.063 16.627-.951.936-1.902 1.872-2.85 2.81-.588.58-1.176 1.159-1.766 1.736-1.47 1.412-1.47 1.412-2.572 3.104.071 3.526.625 6.998 1.273 10.457 1.487 7.954 3.073 16.462-1.566 23.66-3.351 4.552-7.735 8.171-13.385 9.381-1.529.133-3.058.14-4.592.158l-1.222.044c-5.632.059-10.263-2.556-15.052-5.26a1332.51 1332.51 0 0 0-5.478-3.035l-1.137-.64-1.042-.561-.883-.486c-2.065-.7-3.631-.5-5.628.32l-1.7.915-.931.492c-.979.518-1.954 1.045-2.928 1.572-12.963 6.96-12.963 6.96-18.459 6.765l-1.254-.026c-6.036-.235-10.279-2.492-14.546-6.695-3.451-3.772-5.396-8.422-5.415-13.542l-.006-1.142c.091-4.771 1.003-9.459 1.86-14.141l.347-1.905.321-1.703c.499-2.893.499-2.893-.328-5.6l-.83-.869-.984-1.04a452.817 452.817 0 0 0-8.101-7.882c-4.575-4.337-8.498-8.93-8.896-15.508-.173-7.19 1.128-12.72 6.069-18.206 5.611-5.392 13.049-5.83 20.395-6.892a251.88 251.88 0 0 0 6.238-.979l1.862-.301c2.419-.726 3.301-2.023 4.501-4.209a343657226544132.1 343657226544132.1 0 0 1 2.068-4.316 600.372 600.372 0 0 0 1.684-3.535c3.44-7.264 7.082-12.909 14.735-16.23 6.933-2.458 13.68-1.034 19.817 2.598Zm-16.455 15.118a40.25 40.25 0 0 0-1.896 3.689l-.509 1.081a423.306 423.306 0 0 0-1.584 3.418c-6.699 14.556-6.699 14.556-14.53 17.615-4.706 1.647-9.773 2.038-14.697 2.662-1.319.17-2.636.353-3.953.537l-1.217.142c-1.955.28-3.04.618-4.696 1.762-1.042 1.536-1.417 2.604-1.287 4.473.582 2.054 2.102 3.282 3.64 4.685l1.038 1.001a315.235 315.235 0 0 0 3.31 3.128c9.072 8.54 9.072 8.54 10.544 12.961l.665 1.897c1.169 5.542.147 11.257-.918 16.722-1.168 5.823-1.168 5.823-1.267 11.728 1.326 1.765 2.368 2.72 4.56 3.035a40.404 40.404 0 0 0 3.831-1.676l1.134-.546a186.082 186.082 0 0 0 6.176-3.168l1.267-.677c.802-.432 1.602-.868 2.398-1.31 3.825-2.074 7.642-3.466 12.044-3.434l1.678-.012c5.721.617 10.486 3.431 15.484 6.081 1.136.6 2.274 1.198 3.412 1.794.704.368 1.407.739 2.108 1.113 2.235 1.222 2.235 1.222 4.675 1.835 1.976-.789 2.86-1.248 4.053-3.035.343-4.63-.75-9.081-1.633-13.606-.98-5.303-1.788-10.936-.077-16.172l.463-1.513c1.664-3.562 4.34-6.32 7.18-8.982l1.91-1.842c.989-.95 1.981-1.897 2.982-2.836.975-.918 1.937-1.849 2.897-2.782l.911-.837c1.465-1.444 2.286-2.495 2.431-4.589-.209-1.986-.209-1.986-1.339-3.436-1.974-1.364-3.565-1.629-5.913-1.904l-1.278-.179c-1.345-.187-2.691-.36-4.038-.53-16.077-2.096-16.077-2.096-21.987-9.111-1.177-1.534-2.058-3.174-2.932-4.893l-.577-1.105a148.245 148.245 0 0 1-3.015-6.2l-.604-1.309c-.382-.836-.757-1.674-1.126-2.516-1.041-2.291-1.927-3.821-4.145-5.182-2.617-.435-3.697.24-5.573 2.023Z"/></svg>