<svg xmlns="http://www.w3.org/2000/svg" fill="none" viewBox="0 0 512 512"><path fill="currentColor" d="M9.918 277.213c12.309-11.091 31.278-10.103 42.37 2.205l163.999 182c11.091 12.309 10.104 31.278-2.205 42.369-12.308 11.091-31.278 10.104-42.369-2.205l-164-182c-11.09-12.308-10.103-31.278 2.205-42.369Z"/><path fill="var(--red-6)" d="M397.18 32.085c11.161-19.298 16.742-28.946 26.214-31.48 9.473-2.534 19.138 3.037 38.469 14.178l17.997 10.372c19.33 11.141 28.997 16.711 31.535 26.168 2.538 9.455-3.043 19.104-14.204 38.401L293.92 441.178c-2.287 3.955-3.431 5.933-4.921 7.647-1.49 1.713-3.291 3.12-6.894 5.935l-21.895 17.115c-39.247 30.677-58.87 46.015-72.716 38.035-13.846-7.98-10.351-32.613-3.36-81.88l3.9-27.486c.641-4.522.962-6.783 1.702-8.928.742-2.145 1.886-4.123 4.173-8.077L397.18 32.085Z"/></svg>