<svg xmlns="http://www.w3.org/2000/svg" fill="none" viewBox="0 0 512 515"><path stroke="currentColor" stroke-linecap="round" stroke-linejoin="round" stroke-width="30" d="M258.858 271.27c-1.658-.237-3.789-.237-5.683 0-41.677-1.421-74.829-35.52-74.829-77.434 0-42.861 34.573-77.67 77.67-77.67 42.861 0 77.671 34.809 77.671 77.67-.237 41.914-33.152 76.013-74.829 77.434ZM415.598 427.561c-42.15 38.598-98.035 62.042-159.603 62.042-61.569 0-117.454-23.444-159.604-62.042 2.368-22.259 16.576-44.045 41.913-61.095 64.884-43.097 170.971-43.097 235.381 0 25.337 17.05 39.545 38.836 41.913 61.095Z"/><path stroke="currentcolor" stroke-linecap="round" stroke-linejoin="round" stroke-width="30" d="M256 489.6c130.78 0 236.8-106.02 236.8-236.8C492.8 122.019 386.78 16 256 16 125.218 16 19.2 122.019 19.2 252.8c0 130.78 106.018 236.8 236.8 236.8Z"/></svg>