<svg
    viewBox="0 0 512 512"
    fill="none"
    stroke="currentColor"
    stroke-width="2"
    stroke-linecap="round"
    stroke-linejoin="round">
	<path fill="currentColor" fill-rule="evenodd" d="M206.806 41c7.911-.015 15.667.159 23.521 1.305l1.572.243.015.003 2.505.45 1.966.365c40.545 7.755 76.609 29.758 101.635 62.637l1.203 1.6.008.01 1.837 2.556.673.942c13.853 19.534 23.879 43.008 27.482 66.749l.17 1.15.001.004.234 1.704.206 1.528c2.079 15.805 2.642 32.118.083 47.941l-.001.006-.292 1.733c-4.617 28.073-16.195 55.534-34.543 77.451-1.833 2.192-3.429 4.134-4.544 6.572l1.298 1.342c.773.79 1.502 1.543 2.249 2.29l.009.008c2.33 2.394 4.169 4.3 6.966 5.555 5.49-4.21 10.889-5.929 17.869-6.021h.021c10.326.113 16.92 5.119 23.817 11.964l.005.006 2.178 2.194 3.694 3.692c1.23 1.231 2.458 2.463 3.681 3.699l8.889 8.891c2.961 2.967 5.918 5.936 8.873 8.908l7.155 7.184a6052.9 6052.9 0 0 0 7.161 7.171l12.482 12.496 3.967 3.983a2628.85 2628.85 0 0 1 11.417 11.479l3.79 3.842.004.004c4.682 4.803 8.471 8.87 11.053 13.515 2.6 4.679 3.955 9.898 3.882 16.991a.967.967 0 0 1-.004.076c-.798 8.298-5.482 14.73-11.266 20.183l-.008.008a120.89 120.89 0 0 0-2.983 2.832c-3.8 3.778-7.199 6.951-11.086 9.181-3.914 2.246-8.288 3.518-14.026 3.578h-.019c-10.894-.112-17.783-5.565-25.053-12.784l-.006-.006-2.117-2.141-3.61-3.601a2450.762 2450.762 0 0 1-3.602-3.609 6461.31 6461.31 0 0 1-17.342-17.389 7696.731 7696.731 0 0 0-6.98-7.008l-6.985-6.996c-4.068-4.069-8.133-8.139-12.197-12.211l-3.876-3.892-.902-.894c-2.131-2.089-4.435-4.21-6.803-6.385-2.703-2.483-5.489-5.036-8.165-7.676-5.346-5.273-10.319-10.946-13.409-17.215a.811.811 0 0 1-.046-.115c-2.052-6.272-2.383-14.498.586-20.644l.016-.03a85.353 85.353 0 0 0 4.005-8.672 141.887 141.887 0 0 0-9.832-9.083c-11.463 9.508-23.622 17.779-36.917 24.574l-.011.006c-37.652 18.595-83.979 21.515-123.733 8.247l-.004-.002-1.671-.568c-7.693-2.609-15.07-5.615-22.317-9.373l-.011-.006-2.864-1.536a173.71 173.71 0 0 1-22.191-14.119h-.001l-1.312-.987c-30.167-22.433-52.159-58.035-59.777-94.674l-.002-.009-.697-3.549-.204-.955c-2.046-9.865-2.549-19.571-2.573-29.589L41 203.922c.035-10.65.774-21.007 3.063-31.54l.002-.01.393-1.704c6.899-30.059 21.357-58.089 43.22-80.058l.006-.005 1.445-1.428c21.651-21.53 48.708-36.454 78.275-43.924l.006-.002 2.323-.568c11.621-2.837 23.033-3.633 34.897-3.683h2.176Zm151.672 298.054c-3.179 1.315-4.671 1.944-5.974 2.871-1.329.944-2.478 2.209-4.948 4.944a.523.523 0 0 1-.023.025l-2.373 2.431-.016.015c-2.698 2.629-5.215 4.66-6 7.967-.051 1.838.157 3.202.651 4.418.504 1.239 1.329 2.392 2.613 3.769l1.724 1.716.003.003 1.995 2.003 2.189 2.188c4.131 4.139 8.265 8.277 12.399 12.412l12.41 12.401c3.964 3.967 7.93 7.933 11.896 11.897l24.763 24.754a709.122 709.122 0 0 0 8.524 8.471l2.012 1.947.005.004 2.189 2.146 2.176 2.052.004.004c1.441 1.379 2.585 2.273 3.829 2.865 1.199.57 2.548.884 4.434 1.02 3.624-1.271 5.976-3.425 8.708-6.302l1.621-1.754.013-.014c.679-.703 1.351-1.393 2.024-2.066l2.039-2.153.002-.003c1.411-1.477 2.387-2.64 3.032-3.908.61-1.201.947-2.547 1.003-4.416-1.465-2.821-2.18-4.184-3.08-5.411-.92-1.256-2.041-2.382-4.411-4.755l-2.189-2.155-.004-.005-7.268-7.266a6699.61 6699.61 0 0 0-17.507-17.454l-.001-.001-14.15-14.097-22.453-22.407-2.339-2.322-.003-.002a802.499 802.499 0 0 0-10.414-10.203l-2.211-2.061-.003-.003c-1.292-1.216-2.239-2.08-3.279-2.664-.967-.544-2.05-.862-3.612-.901ZM273.253 77.223C250.014 64.51 223.062 59.448 196.675 60.9c-38.912 2.69-74.111 20.759-99.962 49.744v-.001l-1.293 1.46-.002.002c-13.536 15.183-23.584 34.438-29.232 53.995-9.717 35.899-6.68 76.069 11.73 108.775l.901 1.57.001.001a166.957 166.957 0 0 0 15.335 22.368l2.122 2.563v.002c2.572 3.12 5.072 5.985 8.085 8.606a83.103 83.103 0 0 1 3.376 2.807l1.1.981.004.004c18.751 17.294 40.956 28.626 65.826 34.415l2.119.485c10.05 1.485 15.032 2.221 20.045 2.548 5.016.327 10.069.244 20.264.077 32.706-1.496 67.791-17.557 90.497-41.097l2.046-2.187.006-.007c18.947-19.831 32.437-43.503 38.589-70.261l.451-1.985v-.004c2.175-9.351 2.685-18.562 2.693-28.206v-1.87c0-5.435.081-10.771-.591-16.081l-.443-2.781v-.004c-4.155-26.833-14.337-51.165-31.315-72.391l-1.913-2.354-.004-.005c-10.475-13.108-24.652-24.508-39.399-32.483l-2.231-1.17c-.744-.394-1.488-.79-2.227-1.193Z" clip-rule="evenodd"/>
</svg>