<svg xmlns="http://www.w3.org/2000/svg" fill="none" viewBox="0 0 514 514">
  <path fill="#000" d="M198.13.62h-2.6C181.37.68 167.8 1.63 154 5l-2.78.68C116 14.58 83.78 32.36 58 58l-1.73 1.71c-26.02 26.15-43.24 59.53-51.46 95.35l-.47 2.04C1.44 170.45.63 183.58.7 197.19v2.46C.73 212 1.37 223.9 4 236l.84 4.27C13.91 283.9 40.1 326.3 76 353l1.57 1.18A206.94 206.94 0 0 0 104 371l3.43 1.84c8.62 4.47 17.4 8.05 26.57 11.16l2 .68c47.33 15.8 102.5 12.32 147.32-9.82 16.1-8.23 30.81-18.28 44.68-29.86 4.56 3.8 8.85 7.75 13 12a103.51 103.51 0 0 1-5.1 11.13c-3.4 7.04-3.05 16.59-.65 23.93 7.24 14.69 23.4 26.77 34.85 38.24l4.64 4.66a22346 22346 0 0 0 14.6 14.62c5.58 5.58 11.15 11.17 16.72 16.77a7634.03 7634.03 0 0 0 20.76 20.82 2601 2601 0 0 0 8.63 8.63l2.54 2.57c8.66 8.6 16.65 14.87 29.26 15 13.4-.14 20.23-5.92 29.33-14.97 1.18-1.16 2.38-2.3 3.6-3.42 6.84-6.45 12.24-13.93 13.16-23.5.17-16.67-6.35-24.26-17.58-35.78a3178.95 3178.95 0 0 0-18.2-18.34l-4.75-4.77-14.94-14.96c-5.72-5.72-11.43-11.45-17.14-17.19a8397.1 8397.1 0 0 0-21.26-21.31c-2.93-2.96-5.88-5.9-8.83-8.85l-2.61-2.63c-8.2-8.14-15.84-13.89-27.78-14.02-8.35.11-14.7 2.2-21.25 7.37-3.9-1.59-6.33-4.13-9.25-7.13-.9-.9-1.78-1.81-2.7-2.75L345 329c1.41-3.39 3.54-5.97 5.88-8.77C372.71 294.15 386.5 261.45 392 228l.35-2.08c3.14-19.42 2.33-39.49-.35-58.92l-.28-2.04c-4.17-29.17-16.54-58.1-33.72-81.96l-2.2-3.06C325.48 39.09 281.02 11.97 231 3l-3-.54C218.04.84 208.22.6 198.13.62Zm80.05 41.39c1.76.96 3.54 1.89 5.32 2.82C301.27 54.44 318.36 68.18 331 84l2.29 2.82C353.74 112.39 366 141.7 371 174l.53 3.33c.82 6.45.72 12.93.72 19.42v2.24c-.01 11.58-.62 22.7-3.25 34.01l-.54 2.38C361.05 267.62 344.8 296.13 322 320l-2.46 2.63c-27.37 28.38-69.63 47.73-109.06 49.53-24.4.4-24.4.4-48.48-3.16l-2.58-.59c-29.94-6.97-56.69-20.62-79.28-41.46a97.7 97.7 0 0 0-5.33-4.51c-3.68-3.2-6.72-6.69-9.81-10.44l-2.54-3.07A200.9 200.9 0 0 1 44 282l-1.08-1.88c-22.2-39.44-25.84-87.84-14.14-131.06C35.58 125.51 47.68 102.31 64 84l1.55-1.75c31.12-34.9 73.51-56.67 120.38-59.91 31.76-1.75 64.23 4.34 92.25 19.67Zm110.49 317.93 2.66 2.48c4.2 4.05 8.36 8.11 12.48 12.23l2.8 2.78 7.49 7.47 4.69 4.68 14.7 14.68 16.94 16.88a8117.6 8117.6 0 0 1 20.96 20.9l8.7 8.7 2.62 2.58c5.64 5.65 5.64 5.65 9.29 12.68-.09 5-1.73 7.38-5.13 10.94l-2.46 2.6c-.8.8-1.6 1.62-2.41 2.46l-1.94 2.1c-3.35 3.53-6.35 6.3-11.06 7.9-4.9-.32-7.25-1.6-10.76-4.96l-2.62-2.47L453 482l-2.41-2.33a857.36 857.36 0 0 1-10.22-10.16l-7.5-7.5-7.89-7.9a27445.6 27445.6 0 0 1-28.49-28.48 23300.79 23300.79 0 0 1-29.7-29.71l-2.62-2.62-2.39-2.4-2.08-2.07c-3.17-3.4-4.35-5.97-4.2-10.67 1-4.4 4.36-7.1 7.5-10.16l2.84-2.91c5.85-6.48 5.85-6.48 13.66-9.71 4.27.05 6.11 1.68 9.17 4.56Z"/>
  <path fill="#000" d="M204.1 97.33c3.14 1.33 6 3.02 8.93 4.77l2.57 1.49a4420.73 4420.73 0 0 0 12.6 7.38c3.06 1.78 6.12 3.58 9.18 5.38 4.9 2.88 9.8 5.73 14.7 8.57l2.54 1.46 12.86 7.43c7.98 4.6 15.95 9.22 23.87 13.93l1.96 1.16 1.8 1.07 1.55.92c1.28.94 1.28.94 2.83 3.28.2 2.02.2 2.02.21 4.5l.03 2.86v3.13l.02 3.3.02 8.95.02 5.6c.02 6.5.03 13.01.03 19.52 0 6.07.03 12.13.06 18.2.02 5.2.04 10.41.04 15.62 0 3.11 0 6.22.03 9.33.02 2.93.02 5.85 0 8.78l.02 3.22c.1 8.31.1 8.31-2.29 11.62-2.5 1.67-5.01 3.3-7.64 4.78l-1.71 1-3.8 2.18-6.74 3.9-12.89 7.46-15.23 8.82-12.71 7.36-2.58 1.49-5.06 2.92c-4.11 2.37-8.2 4.78-12.25 7.25l-2.34 1.42c-1.45.88-2.9 1.77-4.33 2.67-6.78 4.12-6.78 4.12-10.95 3.85-3-1.3-5.73-2.97-8.53-4.67a992.77 992.77 0 0 1-27.47-15.66 1400.95 1400.95 0 0 0-17.33-10.12l-7.93-4.58-17.9-10.37-6.38-3.67a4198.02 4198.02 0 0 1-5.2-2.98c-2.7-1.57-4.6-2.87-6.2-5.56-.29-2.13-.29-2.13-.3-4.6l-.02-2.86v-3.13c0-1.1 0-2.2-.02-3.3-.01-2.98-.02-5.96-.01-8.94l-.02-7.47v-17.63c0-6.06-.02-12.12-.05-18.18-.02-5.2-.03-10.4-.03-15.61 0-3.1 0-6.22-.02-9.32-.02-2.93-.02-5.85 0-8.77l-.01-3.22c-.1-9.11-.1-9.11 2.33-11.63l2.04-1.36 1.97-1.33 2.1-1.2 2.41-1.37 2.58-1.45 2.7-1.54 5.62-3.2c4.3-2.45 8.58-4.94 12.86-7.43l5.04-2.92 2.52-1.46 7.56-4.38 2.53-1.46 5.01-2.9a24335.28 24335.28 0 0 0 20.8-12.05 408.85 408.85 0 0 0 15.53-9.3c2.98-1.25 5.35-1.62 8.48-.95Zm-8.1 16.4-2.52 1.49-2.65 1.57-2.67 1.58-6.54 3.87a59.01 59.01 0 0 0 7.1 4.71l2.42 1.4 2.6 1.48a8920.63 8920.63 0 0 1 8.35 4.82c4.3 2.47 8.58 4.96 12.87 7.45l5.02 2.9 2.52 1.46 7.78 4.5 2.6 1.52 5.12 2.94c3.9 2.22 7.7 4.49 11.42 7 6.07 4.39 6.07 4.39 13.14 5.46a34.5 34.5 0 0 0 6.69-4.37c1.39-.89 2.8-1.73 4.22-2.58 1.98-1.18 3.92-2.41 5.86-3.65-1.94-2.18-4.07-3.45-6.6-4.88l-2.63-1.5-1.4-.79-5.89-3.34-3.04-1.73c-4.9-2.79-9.78-5.61-14.66-8.44l-4.97-2.89-2.49-1.44-7.8-4.52c-1.75-1-3.5-2.02-5.24-3.03l-2.54-1.46a958.29 958.29 0 0 1-11.25-6.6l-1.87-1.11-3.37-2.04c-4.36-2.6-5.26-2.34-9.57.21Zm-34.69 20.1-1.5.85c-2.74 1.49-2.74 1.49-4.56 3.91l1.57.88c17.52 9.79 17.52 9.79 25.9 14.78 6.6 3.93 13.27 7.77 19.92 11.62 3.18 1.83 6.35 3.67 9.51 5.51l4.13 2.4 5.18 3.02c1.54.9 3.08 1.78 4.63 2.66 1.29.73 2.55 1.5 3.78 2.33 1.7 1.15 1.7 1.15 4.48 1.96 2.54-.76 4.47-2.13 6.6-3.7l1.7-1.16c1.38-.95 2.75-1.94 4.1-2.92a58.9 58.9 0 0 0-7.1-4.71l-2.41-1.4-2.6-1.49-2.71-1.56a8145.1 8145.1 0 0 0-5.64-3.25 21167.95 21167.95 0 0 0-36.01-20.84 630.92 630.92 0 0 1-11.2-6.6l-1.85-1.1-3.31-2.04c-5.1-3.09-7.77-2.03-12.61.84Zm-22.25 12.5-2.3 1.43c-1.23.75-1.23.75-2.5 1.5-1.26.82-1.26.82-2.56 1.64l-2.63 1.61a490 490 0 0 0-6.39 4c1.95 2.19 4.11 3.46 6.65 4.9.88.5 1.75 1 2.66 1.5l1.4.8 7.42 4.21 1.52.87c4.62 2.63 9.21 5.3 13.8 8 7.34 4.32 14.7 8.6 22.07 12.86 3.93 2.26 7.84 4.54 11.7 6.92l2.05 1.24c1.25.76 2.5 1.53 3.73 2.31.54.34 1.1.67 1.66 1l1.42.9c2.7.78 4.83-.87 7.21-2.1l1.9-1.06 2.1-1.16 2.13-1.2 2.2-1.22 5.32-2.96c-1.13-3.38-3.66-4.13-6.64-5.7a1437.19 1437.19 0 0 1-5.95-3.23c-3.73-2.07-7.4-4.24-11.07-6.4-9.05-5.33-18.14-10.6-27.24-15.86a4148.97 4148.97 0 0 1-16.22-9.43l-2.4-1.4-2.1-1.21-2.05-1.15-2.3-1.45c-2.33-1.16-2.33-1.16-4.6-.16Zm-23.36 22.63c-.43 11.69-.76 23.37-.96 35.07-.1 5.43-.23 10.85-.44 16.28-.2 5.25-.31 10.49-.36 15.74-.04 2-.1 3.99-.2 5.98-.53 9.25-.53 9.25 1.96 18.03 4.55 4.74 10.46 7.4 16.42 9.94a69.14 69.14 0 0 1 8.1 4.36l4.95 2.83a2917.66 2917.66 0 0 1 37.35 21.76l5 2.95 2.24 1.31c.65.4 1.31.78 1.99 1.18 1.33.89 1.33.89 2.28.83.16-11.8.28-23.6.36-35.4.03-5.47.08-10.95.16-16.43.08-5.28.12-10.57.14-15.85.01-2.02.04-4.04.07-6.06.05-2.82.06-5.64.06-8.47l.07-2.53c-.01-4.4-.01-4.4-2.4-7.9a43.54 43.54 0 0 0-5.44-3.13l-2.28-1.36-2-1.1-2.28-1.28-2.41-1.32c-7.37-4.11-14.69-8.3-21.97-12.6-6.7-3.93-13.41-7.82-20.14-11.7-5.2-3.01-10.37-6.06-15.47-9.24-2.23-1.46-2.23-1.46-4.8-1.9Zm166.18 1.6-1.72 1.01-1.8 1.09-1.77 1.04c-1.68 1-3.36 2-5.02 3.05l-2.5 1.11c-2.48 2.3-2.5 2.77-2.69 6 0 1.68.01 3.35.05 5.02v2.69c0 2.83.02 5.65.05 8.48.03 2.83.05 5.66.05 8.49 0 1.75.02 3.51.05 5.27 0 5.92 0 5.92-2.09 8.87a84.49 84.49 0 0 1-7.22 4.58l-1.41.8a1757.05 1757.05 0 0 0-7.44 4.19l-5.5 3.1c-1.52.87-3.02 1.75-4.51 2.67-2.8 1.64-4.74 1.32-7.94 1.01-1.63-1.2-2.23-1.88-2.63-3.88l-.03-1.79-.05-2.03-.01-2.18-.04-2.25c-.05-2.36-.07-4.72-.1-7.09l-.08-4.8c-.06-3.93-.12-7.86-.16-11.8-2.62 1-5.03 2.15-7.45 3.56l-1.97 1.15-2.02 1.19-2.05 1.2c-3.13 1.66-3.13 1.66-5.9 3.8-.07 1.19-.1 2.38-.09 3.56V225.27l.02 8.85v6.13a11683.8 11683.8 0 0 0 .03 31l.04 33.97 4.01-2.2 2.26-1.23c3.53-1.94 7.04-3.93 10.55-5.92l2.32-1.31a1544 1544 0 0 0 18.7-10.85c6.62-3.89 13.27-7.75 19.92-11.58 1.54-.9 3.07-1.8 4.58-2.73 2-1.17 3.97-2.02 6.13-2.82 3.83-1.56 7.22-3.25 9.86-6.52 2.4-6.48 1.52-13.91 1.28-20.7l-.05-6.09a746.7 746.7 0 0 0-.28-14.35c-.15-5.45-.22-10.9-.29-16.35-.14-11.2-.37-22.4-.66-33.61-1.95 0-2.76.6-4.43 1.6Zm-31.7 18.62-1.53.86-1.94 1.1c-2.03 1.17-4.06 2.32-6.16 3.51v26.48l3.88-1.56 2.4-.87c2.8-1.26 4.74-2.38 6.9-4.58 1.18-4.57.9-8.9.59-13.58-.05-1.25-.1-2.5-.13-3.75-.1-3.05-.26-6.1-.45-9.14-1.36 0-2.41.87-3.57 1.53ZM338.17 126.8c2.33 1.79 2.35 3.04 2.78 5.89.1 1.46.1 1.46-.44 3.02-4.02 3.82-9.08 6.4-13.95 9.13l-2.48 1.45c-4.62 2.6-7.83 4.3-13.22 3.52-2.4-1.52-2.99-2.56-3.86-5.15-.06-2.79.6-3.74 2.3-5.99 1.74-1.26 1.74-1.26 3.76-2.36l2.24-1.25 2.34-1.26 2.29-1.27c13.18-7.24 13.18-7.24 18.24-5.73ZM73.64 127.83l2.39 1.4a7741.61 7741.61 0 0 0 3.96 2.35c1.36.82 2.72 1.62 4.09 2.42 7.61 4.51 7.61 4.51 9.25 6.59.79 3.05 1.08 4.7-.23 7.6-1.75 2.23-2.5 2.37-5.32 2.81-4.68-.06-8.43-2.78-12.33-5.17-1.34-.81-2.69-1.61-4.04-2.4-7.41-4.44-7.41-4.44-10.05-7.47-.7-2.88-.38-5.44 1-8.04 3.37-3.16 7.5-1.86 11.28-.1ZM324.67 180.7c3.43.74 6.8 1.61 10.18 2.53l2.67.69c8.34 2.23 8.34 2.23 11 5.17.73 2.36.54 4.47 0 6.86-1.5 2-1.5 2-3.98 3.05-6.2.09-12.23-1.69-18.13-3.29l-2.67-.68c-8.11-2.18-8.11-2.18-11-5.18-.98-2.77-1.06-4 .2-6.67 3.45-4.25 6.73-3.3 11.73-2.47ZM85.62 181.56c1.84 1.94 2.32 2.8 2.38 5.43-.8 3.02-1.86 4.28-4.47 5.94-2.26.8-2.26.8-4.87 1.51l-2.86.8-1.49.4a461 461 0 0 0-4.47 1.22c-8.45 2.3-8.45 2.3-12.4 2-2.3-1.37-3.47-2.27-4.43-4.77-.06-2.3.32-3.6 1.44-5.62 2.39-2.15 4.76-2.9 7.85-3.74l2.86-.79 1.49-.4c1.5-.4 2.98-.81 4.47-1.23 10.83-2.94 10.83-2.94 14.5-.75ZM118.38 89.43c2.63 2.16 3.63 3.95 4.54 7.16l.7 2.4.7 2.49.72 2.5c3.28 11.41 3.28 11.41 2.6 16.33-1.48 2.15-2.48 2.8-4.97 3.67a9.17 9.17 0 0 1-5.84-1.41c-2.9-4.08-3.87-8.64-5.17-13.37l-.75-2.6c-1.34-4.86-2.22-9.12-1.81-14.16 2.06-3.42 5.48-4 9.28-3ZM289.77 89.3c1.96 1.1 1.96 1.1 3.13 3.04.49 5.98-.93 11.15-2.6 16.88l-.72 2.66c-2.16 7.64-2.16 7.64-4.51 10.81-3.26 1.43-4.74 1.79-8.13.57-2.06-1.33-2.06-1.33-2.84-2.84-.49-5.87.87-11 2.5-16.63.44-1.5.85-3.01 1.26-4.52l.83-2.9.75-2.62c1.99-4.64 5.6-5.26 10.33-4.45Z"/>
</svg>