<?xml version="1.0" encoding="UTF-8"?>
<svg version="1.1" xmlns="http://www.w3.org/2000/svg" width="512" height="512">
<path d="M0 0 C0.85672302 0.00054382 1.71344604 0.00108765 2.59613037 0.00164795 C16.75437681 0.04284301 30.32436201 0.99525192 44.125 4.375 C45.50341064 4.71241211 45.50341064 4.71241211 46.90966797 5.05664062 C82.11944405 13.95561275 114.34887822 31.73027075 140.125 57.375 C140.69460449 57.94057617 141.26420898 58.50615234 141.85107422 59.08886719 C167.8711488 85.23096695 185.09351565 118.61716231 193.3125 154.4375 C193.46759033 155.10869873 193.62268066 155.77989746 193.7824707 156.47143555 C196.68051432 169.82138796 197.49947195 182.95861183 197.4375 196.5625 C197.43600952 197.37448853 197.43451904 198.18647705 197.4329834 199.02307129 C197.39227396 211.37625869 196.75680682 223.27095742 194.125 235.375 C193.84350193 236.79682591 193.56225236 238.21870104 193.28125 239.640625 C184.21337687 283.28885993 158.03037655 325.68149848 122.125 352.375 C121.34817871 352.95846191 121.34817871 352.95846191 120.55566406 353.55371094 C112.10682199 359.87184678 103.42194118 365.39375299 94.125 370.375 C92.99320312 370.98214844 91.86140625 371.58929688 90.6953125 372.21484375 C82.0781894 376.67972499 73.30055951 380.26108276 64.125 383.375 C63.13790039 383.71144531 63.13790039 383.71144531 62.13085938 384.0546875 C14.79577068 399.84853456 -40.37258022 396.370819 -85.19091797 374.23095703 C-101.28881773 366.00158038 -116.0094516 355.9580134 -129.875 344.375 C-134.43530824 348.17975422 -138.72589392 352.12469621 -142.875 356.375 C-141.42877814 360.23159162 -139.66182503 363.85262994 -137.77734375 367.5078125 C-134.37518629 374.54777469 -134.72041461 384.09082705 -137.125 391.4375 C-144.3621369 406.1196736 -160.52187837 418.20119242 -171.97860694 429.67879558 C-173.52629767 431.22945059 -175.07341388 432.78067669 -176.62037086 434.33206367 C-181.48170735 439.20699488 -186.34498118 444.07998063 -191.21117181 448.95006651 C-196.79220009 454.53559048 -202.36658976 460.12763158 -207.93542069 465.72531599 C-212.27099206 470.08255803 -216.61236396 474.43396541 -220.95811683 478.78105265 C-223.54125093 481.36522862 -226.12195913 483.95171502 -228.69659996 486.54435539 C-231.563719 489.43113983 -234.44279114 492.30571679 -237.32299805 495.17944336 C-238.16010818 496.02576828 -238.99721832 496.8720932 -239.85969543 497.74406433 C-248.52261042 506.34624589 -256.51876276 512.61813559 -269.125 512.75 C-282.52026998 512.59982149 -289.35376451 506.83045608 -298.45507812 497.78027344 C-299.63153105 496.61595723 -300.83582169 495.47984598 -302.046875 494.3515625 C-308.89123707 487.90090267 -314.29677495 480.42619234 -315.2109375 470.859375 C-315.38533584 454.18689373 -308.86392986 446.59352215 -297.63531876 435.07811356 C-291.6000539 428.93298865 -285.52099438 422.83160672 -279.43599725 416.73580861 C-277.85062789 415.14747927 -276.26583488 413.55857696 -274.68120384 411.96951103 C-269.70507392 406.97977806 -264.72700024 401.99199682 -259.74601012 397.00711542 C-254.02686118 391.28347081 -248.31434756 385.55330942 -242.60739738 379.81750208 C-238.16909347 375.35754575 -233.72500641 370.90340591 -229.27653092 366.4535951 C-226.63025793 363.80627879 -223.98642422 361.15663576 -221.34862709 358.50087166 C-218.41172542 355.54434502 -215.46291197 352.59997906 -212.51293945 349.65649414 C-211.22147255 348.35120506 -211.22147255 348.35120506 -209.90391541 347.01954651 C-201.71248017 338.88434305 -194.06603524 333.13507958 -182.125 333 C-173.7723696 333.11478245 -167.41963992 335.2073997 -160.875 340.375 C-156.97214233 338.78832422 -154.53979018 336.24149519 -151.625 333.25 C-150.73296875 332.33992188 -149.8409375 331.42984375 -148.921875 330.4921875 C-148.24640625 329.79351562 -147.5709375 329.09484375 -146.875 328.375 C-148.28560212 324.98621621 -150.41385823 322.40305049 -152.75830078 319.60693359 C-174.58829587 293.5247874 -188.37031725 260.82307227 -193.875 227.375 C-193.99069336 226.68986328 -194.10638672 226.00472656 -194.22558594 225.29882812 C-197.37011415 205.8718022 -196.55205468 185.80701757 -193.875 166.375 C-193.78379883 165.70130371 -193.69259766 165.02760742 -193.59863281 164.33349609 C-189.42878914 135.16653695 -177.05551642 106.23322658 -159.875 82.375 C-159.15054688 81.364375 -158.42609375 80.35375 -157.6796875 79.3125 C-127.34471381 38.46540672 -82.89056506 11.34884742 -32.875 2.375 C-31.88693359 2.19694824 -30.89886719 2.01889648 -29.88085938 1.83544922 C-19.90730936 0.21799959 -10.08525683 -0.02415952 0 0 Z M-80.0546875 41.38085938 C-81.81656667 42.34308738 -83.59559617 43.27370425 -85.375 44.203125 C-103.1496039 53.81756983 -120.23009114 67.55455973 -132.875 83.375 C-133.63039062 84.30441406 -134.38578125 85.23382813 -135.1640625 86.19140625 C-155.61428448 111.76823472 -167.87781137 141.07480985 -172.875 173.375 C-173.0507959 174.47440918 -173.2265918 175.57381836 -173.40771484 176.70654297 C-174.22871551 183.15187004 -174.11970042 189.63669466 -174.125 196.125 C-174.12567474 196.86453918 -174.12634949 197.60407837 -174.12704468 198.36602783 C-174.1102658 209.94596219 -173.50932627 221.06828822 -170.875 232.375 C-170.69807617 233.1597168 -170.52115234 233.94443359 -170.33886719 234.75292969 C-162.92119422 266.99866866 -146.67289793 295.50693048 -123.875 319.375 C-123.06160156 320.24125 -122.24820313 321.1075 -121.41015625 322 C-94.04104174 350.38935702 -51.78294993 369.73241288 -12.35253906 371.53613281 C12.05406605 371.93549196 12.05406605 371.93549196 36.125 368.375 C36.97497559 368.18164062 37.82495117 367.98828125 38.70068359 367.7890625 C68.64748068 360.8149297 95.39420184 347.16938152 117.984375 326.328125 C119.71841258 324.74597392 121.47199382 323.26553119 123.3125 321.8125 C126.99120262 318.62429106 130.0315265 315.12628109 133.125 311.375 C133.96289062 310.36308594 134.80078125 309.35117187 135.6640625 308.30859375 C142.59730142 299.79185258 148.65268745 290.89510137 154.125 281.375 C154.48190918 280.75463867 154.83881836 280.13427734 155.20654297 279.49511719 C177.4105381 240.05147717 181.04236926 191.6545809 169.34375 148.4375 C162.53618286 124.88699746 150.44860451 101.68867358 134.125 83.375 C133.61453125 82.7989502 133.1040625 82.22290039 132.578125 81.62939453 C101.4597217 46.72116232 59.06452798 24.95857344 12.19775391 21.71459961 C-19.56260108 19.96449337 -52.03988657 26.05477058 -80.0546875 41.38085938 Z M-190.54322815 359.31111145 C-191.85910762 360.54238486 -191.85910762 360.54238486 -193.20157051 361.79853249 C-197.39582936 365.84067076 -201.56167538 369.9059781 -205.68334961 374.0222168 C-206.6065802 374.94048248 -207.52981079 375.85874817 -208.48101807 376.80484009 C-210.98095261 379.29182866 -213.47769999 381.78199106 -215.97340846 384.27321982 C-217.5365819 385.83343945 -219.10033088 387.39308005 -220.66424751 388.9525547 C-225.56962703 393.84431974 -230.47304607 398.73803711 -235.37356561 403.63467091 C-241.01009023 409.26669925 -246.65312936 414.89209274 -252.30181688 420.51192158 C-256.68695263 424.87543499 -261.06630089 429.24470197 -265.44130713 433.61837131 C-268.04723129 436.22324986 -270.65550498 438.82566478 -273.26984978 441.42209435 C-276.17907243 444.31175811 -279.07620404 447.2132591 -281.97241211 450.1159668 C-283.26514793 451.39488045 -283.26514793 451.39488045 -284.58399963 452.69963074 C-290.22351848 458.34327176 -290.22351848 458.34327176 -293.875 465.375 C-293.78574143 470.37985527 -292.14998358 472.75692395 -288.75 476.3125 C-287.93660156 477.1684375 -287.12320312 478.024375 -286.28515625 478.90625 C-285.48980469 479.7209375 -284.69445312 480.535625 -283.875 481.375 C-283.23433594 482.0659375 -282.59367187 482.756875 -281.93359375 483.46875 C-278.58585938 487.00371783 -275.58129622 489.7728566 -270.875 491.375 C-265.97797924 491.05224452 -263.62958689 489.78039705 -260.11401367 486.41842651 C-259.25029144 485.60094814 -258.38656921 484.78346977 -257.49667358 483.94121933 C-256.19894516 482.67094076 -256.19894516 482.67094076 -254.875 481.375 C-253.68156479 480.21896963 -253.68156479 480.21896963 -252.46401978 479.03958511 C-249.97481669 476.60405418 -247.51035615 474.14561338 -245.05078125 471.68017578 C-244.12594437 470.75709122 -243.20110748 469.83400665 -242.24824524 468.88294983 C-239.74439828 466.3836067 -237.24365791 463.88117793 -234.74365997 461.37798548 C-232.11560849 458.74737883 -229.48509158 456.11923924 -226.85498047 453.49069214 C-222.44888672 449.0864087 -218.04488597 444.68004071 -213.64208984 440.27246094 C-208.55420437 435.17911132 -203.46269466 430.0894059 -198.36933422 425.00153172 C-193.98258256 420.61931552 -189.59777924 416.235157 -185.21460438 411.84936321 C-182.60224272 409.23544421 -179.98921388 406.62220181 -177.37442017 404.01071548 C-174.4681009 401.10781727 -171.565879 398.20085633 -168.6640625 395.29345703 C-167.79864334 394.4300621 -166.93322418 393.56666718 -166.0415802 392.67710876 C-165.25393784 391.88664658 -164.46629547 391.09618439 -163.65478516 390.2817688 C-162.96905426 389.59566088 -162.28332336 388.90955296 -161.57681274 388.20265388 C-158.40952968 384.80116496 -157.22898259 382.23942098 -157.3828125 377.5390625 C-158.38445082 373.1350337 -161.73794704 370.43684963 -164.875 367.375 C-165.82490272 366.40558794 -166.7726989 365.43410873 -167.71875 364.4609375 C-173.5608688 357.9884722 -173.5608688 357.9884722 -181.375 354.75 C-185.64361308 354.80378553 -187.48869684 356.43658456 -190.54322815 359.31111145 Z " fill="#000000" transform="translate(314.875,-0.375)"/>
<path d="M0 0 C24.39098856 23.60418248 41.16843766 56.06330498 45 90 C45.10957031 90.92039062 45.21914063 91.84078125 45.33203125 92.7890625 C49.30400628 132.08513542 39.47436317 173.80470493 14.4375 204.9375 C12.97539691 206.63980574 11.49599203 208.3273978 10 210 C9.154375 210.95390625 8.30875 211.9078125 7.4375 212.890625 C5.30656135 215.27461261 3.16178878 217.64400797 1 220 C-3.32504836 218.34136495 -6.09418825 215.128959 -9.25 211.875 C-9.80429687 211.31167969 -10.35859375 210.74835938 -10.9296875 210.16796875 C-12.29104485 208.78313972 -13.64614859 207.39216796 -15 206 C-13.57979525 202.79561843 -11.84451365 200.59594265 -9.4375 198.0625 C16.06133914 169.79705987 24.5092059 134.25502725 23 97 C22.54749512 91.192854 21.42572836 85.63804743 20 80 C19.82259277 79.24799316 19.64518555 78.49598633 19.46240234 77.72119141 C14.69111675 57.91974917 5.35529293 39.40111233 -8 24 C-8.71800781 23.15695313 -9.43601562 22.31390625 -10.17578125 21.4453125 C-11.76181404 19.60818434 -13.36427626 17.79279655 -15 16 C-10.30233025 10.33870569 -5.25276628 5.14771096 0 0 Z " fill="#000000" transform="translate(425,86)"/>
</svg>
